{
.appVersion = "1017";
copyright = "Copyright (c) 2012-2017, Omnibus-Type (www.omnibus-type.com omnibus.type@gmail.com)";
customParameters = (
{
name = openTypeNameDescription;
value = "Archivo is a grotesque sans serif typeface family from Omnibus-Type. It was originally designed for highlights and headlines. This family is reminiscent of late nineteenth century American typefaces.";
},
{
name = openTypeNameLicense;
value = "This Font Software is licensed under the SIL Open Font License, Version 1.1.This license is available with a FAQ at: http://scripts.sil.org/OFL";
},
{
name = openTypeNameLicenseURL;
value = "http://scripts.sil.org/OFL";
},
{
name = fsType;
value = (
);
}
);
date = "2013-12-04 03:13:59 +0000";
designer = "Hector Gatti";
disablesNiceNames = 1;
familyName = "Archivo Black";
featurePrefixes = (
{
automatic = 1;
code = "languagesystem DFLT dflt;\012languagesystem latn dflt;\012languagesystem latn ROM;\012languagesystem latn MOL;\012languagesystem latn CAT;\012";
name = Languagesystems;
}
);
features = (
{
automatic = 1;
code = "feature locl;\012feature sups;\012feature frac;\012feature ordn;\012";
name = aalt;
},
{
automatic = 1;
code = "script latn;\012language ROM;\012sub Scedilla by Scommaaccent;\012sub scedilla by scommaaccent;\012sub Tcedilla by Tcommaaccent;\012sub tcedilla by tcommaaccent;\012language MOL;\012sub Scedilla by Scommaaccent;\012sub scedilla by scommaaccent;\012sub Tcedilla by Tcommaaccent;\012sub tcedilla by tcommaaccent;\012language CAT;\012sub  l' periodcentered' l by ldot;\012sub  L' periodcentered' L by Ldot;\012";
name = locl;
},
{
automatic = 1;
code = "sub one by onesuperior;\012sub two by twosuperior;\012sub three by threesuperior;\012";
name = sups;
},
{
automatic = 1;

glyphs = (
{
color = 0;
glyphname = A;
lastChange = "2013-12-03 22:31:02 +0000";
layers = (
{
anchors = (
{
name = ogonek;
position = "{700, 10}";
},
{
name = top;
position = "{389, 688}";
}
);
layerId = "87647C87-E27A-4883-B22D-08F5E311E309";
paths = (
{
closed = 1;
nodes = (
"518 688 LINE",
"261 688 LINE",
"10 0 LINE",
"236 0 LINE",
"265 97 LINE",
"506 97 LINE",
"535 0 LINE",
"769 0 LINE"
);
},
{
closed = 1;
nodes = (
"388 496 LINE",
"460 251 LINE",
"311 251 LINE",
"384 496 LINE"
);
}
);
width = 778;
}
);
unicode = 0041;
},
{
color = 0;
glyphname = Aacute;
lastChange = "2013-12-03 22:30:04 +0000";
layers = (
{
layerId = "87647C87-E27A-4883-B22D-08F5E311E309";
paths = (
{
closed = 1;
nodes = (
"769 0 LINE",
"518 688 LINE",
"261 688 LINE",
"10 0 LINE",
"236 0 LINE",
"265 97 LINE",
"506 97 LINE",
"535 0 LINE"
);
},
{
closed = 1;
nodes = (
"384 496 LINE",
"388 496 LINE",
"460 251 LINE",
"311 251 LINE"
);
},
{
closed = 1;
nodes = (
"580 881 LINE",
"578 885 LINE",
"385 885 LINE",
"293 752 LINE",
"420 752 LINE"
);
}
);
width = 778;
}
);
unicode = 00C1;
},
{
color = 0;
glyphname = Abreve;
lastChange = "2013-12-03 22:30:04 +0000";
layers = (
{
layerId = "87647C87-E27A-4883-B22D-08F5E311E309";
paths = (
{
closed = 1;
nodes = (
"518 688 LINE",
"261 688 LINE",
"10 0 LINE",
"236 0 LINE",
"265 97 LINE",
"506 97 LINE",
"535 0 LINE",
"769 0 LINE"
);
},
{
closed = 1;
nodes = (
"388 496 LINE",
"460 251 LINE",
"311 251 LINE",
"384 496 LINE"
);
},
{
closed = 1;
nodes = (
"479 885 LINE",
"475 864 OFFCURVE",
"438 835 OFFCURVE",
"389 835 CURVE SMOOTH",
"340 835 OFFCURVE",
"305 864 OFFCURVE",
"301 885 CURVE",
"205 885 LINE",
"205 818 OFFCURVE",
"273 741 OFFCURVE",
"389 741 CURVE SMOOTH",
"502 741 OFFCURVE",
"574 818 OFFCURVE",
"574 885 CURVE"
);
}
);
width = 778;
}
);
unicode = 0102;
},
{
color = 0;
glyphname = Acircumflex;
lastChange = "2013-12-03 22:30:04 +0000";
layers = (
{
layerId = "87647C87-E27A-4883-B22D-08F5E311E309";
paths = (
{
closed = 1;
nodes = (
"518 688 LINE",
"261 688 LINE",
"10 0 LINE",
"236 0 LINE",
"265 97 LINE",
"506 97 LINE",
"535 0 LINE",
"769 0 LINE"
);
},
{
closed = 1;
nodes = (
"388 496 LINE",
"460 251 LINE",
"311 251 LINE",
"384 496 LINE"
);
},
{
closed = 1;
nodes = (
"453 885 LINE",
"325 885 LINE",
"186 740 LINE",
"314 740 LINE",
"388 817 LINE",
"462 740 LINE",
"592 740 LINE"
);
}
);
width = 778;
}
);
unicode = 00C2;
},
{
color = 0;
glyphname = Adieresis;
lastChange = "2013-12-03 22:30:04 +0000";
layers = (
{
layerId = "87647C87-E27A-4883-B22D-08F5E311E309";
paths = (
{
closed = 1;
nodes = (
"518 688 LINE",
"261 688 LINE",
"10 0 LINE",
"236 0 LINE",
"265 97 LINE",
"506 97 LINE",
"535 0 LINE",
"769 0 LINE"
);
},
{
closed = 1;
nodes = (
"388 496 LINE",
"460 251 LINE",
"311 251 LINE",
"384 496 LINE"
);
},
{
closed = 1;
nodes = (
"575 885 LINE",
"423 885 LINE",
"423 746 LINE",
"575 746 LINE"
);
},
{
closed = 1;
nodes = (
"355 885 LINE",
"203 885 LINE",
"203 746 LINE",
"355 746 LINE"
);
}
);
width = 778;
}
);
unicode = 00C4;
},
{
color = 0;
glyphname = Agrave;
lastChange = "2013-12-03 22:30:04 +0000";
layers = (
{
layerId = "87647C87-E27A-4883-B22D-08F5E311E309";
paths = (
{
closed = 1;
nodes = (
"769 0 LINE",
"518 688 LINE",
"261 688 LINE",
"10 0 LINE",
"236 0 LINE",
"265 97 LINE",
"506 97 LINE",
"535 0 LINE"
);
},
{
closed = 1;
nodes = (
"384 496 LINE",
"388 496 LINE",
"460 251 LINE",
"311 251 LINE"
);
},
{
closed = 1;
nodes = (
"485 752 LINE",
"393 885 LINE",
"200 885 LINE",
"198 881 LINE",
"358 752 LINE"
);
}
);
width = 778;
}
);
unicode = 00C0;
},
{
color = 0;
glyphname = Amacron;
lastChange = "2013-12-03 22:30:04 +0000";
layers = (
{
layerId = "87647C87-E27A-4883-B22D-08F5E311E309";
paths = (
{
closed = 1;
nodes = (
"518 688 LINE",
"261 688 LINE",
"10 0 LINE",
"236 0 LINE",
"265 97 LINE",
"506 97 LINE",
"535 0 LINE",
"769 0 LINE"
);
},
{
closed = 1;
nodes = (
"388 496 LINE",
"460 251 LINE",
"311 251 LINE",
"384 496 LINE"
);
},
{
closed = 1;
nodes = (
"547 865 LINE",
"231 865 LINE",
"231 765 LINE",
"547 765 LINE"
);
}
);
width = 778;
}
);
unicode = 0100;
},
{
color = 0;
glyphname = Aogonek;
lastChange = "2013-12-03 22:30:04 +0000";
layers = (
{
layerId = "87647C87-E27A-4883-B22D-08F5E311E309";
paths = (
{
closed = 1;
nodes = (
"518 688 LINE",
"261 688 LINE",
"10 0 LINE",
"236 0 LINE",
"265 97 LINE",
"506 97 LINE",
"535 0 LINE",
"542 0 LINE",
"522 -25 OFFCURVE",
"502 -55 OFFCURVE",
"502 -97 CURVE SMOOTH",
"502 -179 OFFCURVE",
"564 -211 OFFCURVE",
"629 -211 CURVE SMOOTH",
"662 -211 OFFCURVE",
"694 -206 OFFCURVE",
"725 -196 CURVE",
"725 -120 LINE",
"683 -120 LINE SMOOTH",
"638 -120 OFFCURVE",
"623 -95 OFFCURVE",
"623 -69 CURVE SMOOTH",
"623 -43 OFFCURVE",
"631 -16 OFFCURVE",
"639 0 CURVE",
"769 0 LINE"
);
},
{
closed = 1;
nodes = (
"388 496 LINE",
"460 251 LINE",
"311 251 LINE",
"384 496 LINE"
);
}
);
width = 778;
}
);
unicode = 0104;
},
{
color = 0;
glyphname = Aring;
lastChange = "2013-12-03 22:30:04 +0000";
layers = (
{
layerId = "87647C87-E27A-4883-B22D-08F5E311E309";
paths = (
{
closed = 1;
nodes = (
"518 688 LINE",
"261 688 LINE",
"10 0 LINE",
"236 0 LINE",
"265 97 LINE",
"506 97 LINE",
"535 0 LINE",
"769 0 LINE"
);
},
{
closed = 1;
nodes = (
"388 496 LINE",
"460 251 LINE",
"311 251 LINE",
"384 496 LINE"
);
},
{
closed = 1;
nodes = (
"329 954 OFFCURVE",
"280 905 OFFCURVE",
"280 845 CURVE SMOOTH",
"280 785 OFFCURVE",
"330 737 OFFCURVE",
"389 737 CURVE SMOOTH",
"449 737 OFFCURVE",
"498 786 OFFCURVE",
"498 845 CURVE SMOOTH",
"498 906 OFFCURVE",
"448 954 OFFCURVE",
"389 954 CURVE SMOOTH"
);
},
{
closed = 1;
nodes = (
"412 885 OFFCURVE",
"429 869 OFFCURVE",
"429 846 CURVE SMOOTH",
"429 822 OFFCURVE",
"413 805 OFFCURVE",
"389 805 CURVE SMOOTH",
"366 805 OFFCURVE",
"349 821 OFFCURVE",
"349 844 CURVE SMOOTH",
"349 868 OFFCURVE",
"365 885 OFFCURVE",
"389 885 CURVE SMOOTH"
);
}
);
width = 778;
}
);
unicode = 00C5;
},
{
color = 0;
glyphname = Aringacute;
lastChange = "2013-12-03 22:30:04 +0000";
layers = (
{
layerId = "87647C87-E27A-4883-B22D-08F5E311E309";
paths = (
{
closed = 1;
nodes = (
"518 688 LINE",
"491 688 LINE",
"496 700 OFFCURVE",
"499 713 OFFCURVE",
"499 728 CURVE SMOOTH",
"499 794 OFFCURVE",
"449 827 OFFCURVE",
"390 827 CURVE SMOOTH",
"330 827 OFFCURVE",
"281 793 OFFCURVE",
"281 728 CURVE SMOOTH",
"281 713 OFFCURVE",
"283 700 OFFCURVE",
"288 688 CURVE",
"261 688 LINE",
"10 0 LINE",
"236 0 LINE",
"265 97 LINE",
"506 97 LINE",
"535 0 LINE",
"769 0 LINE"
);
},
{
closed = 1;
nodes = (
"388 496 LINE",
"460 251 LINE",
"311 251 LINE",
"384 496 LINE"
);
},
{
closed = 1;
nodes = (
"413 768 OFFCURVE",
"430 752 OFFCURVE",
"430 729 CURVE SMOOTH",
"430 705 OFFCURVE",
"414 688 OFFCURVE",
"390 688 CURVE SMOOTH",
"367 688 OFFCURVE",
"350 704 OFFCURVE",
"350 727 CURVE SMOOTH",
"350 751 OFFCURVE",
"366 768 OFFCURVE",
"390 768 CURVE SMOOTH"
);
},
{
closed = 1;
nodes = (
"580 957 LINE",
"398 957 LINE",
"321 852 LINE",
"448 852 LINE",
"582 953 LINE"
);
}
);
width = 778;
}
);
unicode = 01FA;
},
{
color = 0;
glyphname = Atilde;
lastChange = "2013-12-03 22:30:04 +0000";
layers = (
{
layerId = "87647C87-E27A-4883-B22D-08F5E311E309";
paths = (
{
closed = 1;
nodes = (
"518 688 LINE",
"261 688 LINE",
"10 0 LINE",
"236 0 LINE",
"265 97 LINE",
"506 97 LINE",
"535 0 LINE",
"769 0 LINE"
);
},
{
closed = 1;
nodes = (
"388 496 LINE",
"460 251 LINE",
"311 251 LINE",
"384 496 LINE"
);
},
{
closed = 1;
nodes = (
"530 885 LINE",
"523 862 OFFCURVE",
"505 845 OFFCURVE",
"480 845 CURVE SMOOTH",
"426 845 OFFCURVE",
"371 885 OFFCURVE",
"307 885 CURVE SMOOTH",
"223 885 OFFCURVE",
"167 814 OFFCURVE",
"167 742 CURVE",
"248 742 LINE",
"255 765 OFFCURVE",
"273 782 OFFCURVE",
"298 782 CURVE SMOOTH",
"352 782 OFFCURVE",
"407 742 OFFCURVE",
"471 742 CURVE SMOOTH",
"555 742 OFFCURVE",
"611 813 OFFCURVE",
"611 885 CURVE"
);
}
);
width = 778;
}
);
unicode = 00C3;
},
{
color = 0;
glyphname = AE;
lastChange = "2013-12-03 22:31:02 +0000";
layers = (
{
anchors = (
{
name = top;
position = "{500, 688}";
}
);
layerId = "87647C87-E27A-4883-B22D-08F5E311E309";
paths = (
{
closed = 1;
nodes = (
"501 0 LINE",
"962 0 LINE",
"962 165 LINE",
"673 165 LINE",
"649 270 LINE",
"899 270 LINE",
"899 428 LINE",
"612 428 LINE",
"590 523 LINE",
"955 523 LINE",
"955 688 LINE",
"276 688 LINE",
"-15 0 LINE",
"211 0 LINE",
"245 97 LINE",
"479 97 LINE"
);
},
{
closed = 1;
nodes = (
"387 496 LINE",
"391 496 LINE",
"445 251 LINE",
"300 251 LINE"
);
}
);
width = 1000;
}
);
unicode = 00C6;
},
{
color = 0;
glyphname = AEacute;
lastChange = "2013-12-03 22:30:04 +0000";
layers = (
{
layerId = "87647C87-E27A-4883-B22D-08F5E311E309";
paths = (
{
closed = 1;
nodes = (
"758 881 LINE",
"756 885 LINE",
"563 885 LINE",
"471 752 LINE",
"598 752 LINE"
);
},
{
closed = 1;
nodes = (
"501 0 LINE",
"962 0 LINE",
"962 165 LINE",
"673 165 LINE",
"649 270 LINE",
"899 270 LINE",
"899 428 LINE",
"612 428 LINE",
"590 523 LINE",
"955 523 LINE",
"955 688 LINE",
"276 688 LINE",
"-15 0 LINE",
"211 0 LINE",
"245 97 LINE",
"479 97 LINE"
);
},
{
closed = 1;
nodes = (
"387 496 LINE",
"391 496 LINE",
"445 251 LINE",
"300 251 LINE"
);
}
);
width = 1000;
}
);
unicode = 01FC;
},
{
color = 0;
glyphname = B;
lastChange = "2013-12-03 22:30:04 +0000";
layers = (
{
layerId = "87647C87-E27A-4883-B22D-08F5E311E309";
paths = (
{
closed = 1;
nodes = (
"74 688 LINE",
"74 0 LINE",
"538 0 LINE SMOOTH",
"649 0 OFFCURVE",
"738 73 OFFCURVE",
"738 183 CURVE SMOOTH",
"738 293 OFFCURVE",
"678 339 OFFCURVE",
"607 355 CURVE",
"607 359 LINE",
"669 377 OFFCURVE",
"722 419 OFFCURVE",
"722 519 CURVE SMOOTH",
"722 618 OFFCURVE",
"636 688 OFFCURVE",
"532 688 CURVE SMOOTH"
);
},
{
closed = 1;
nodes = (
"463 278 LINE SMOOTH",
"492 278 OFFCURVE",
"514 254 OFFCURVE",
"514 224 CURVE SMOOTH",
"514 214 LINE SMOOTH",
"514 183 OFFCURVE",
"492 160 OFFCURVE",
"463 160 CURVE SMOOTH",
"295 160 LINE",
"295 278 LINE"
);
},
{
closed = 1;
nodes = (
"447 537 LINE SMOOTH",
"475 537 OFFCURVE",
"498 513 OFFCURVE",
"498 484 CURVE SMOOTH",
"498 474 LINE SMOOTH",
"498 444 OFFCURVE",
"476 420 OFFCURVE",
"447 420 CURVE SMOOTH",
"295 420 LINE",
"295 537 LINE"
);
}
);
width = 778;
}
);
unicode = 0042;
},
{
color = 0;
glyphname = C;
lastChange = "2013-12-03 22:31:02 +0000";
layers = (
{
anchors = (
{
name = bottom;
position = "{389, 0}";
},
{
name = top;
position = "{389, 688}";
}
);
layerId = "87647C87-E27A-4883-B22D-08F5E311E309";
paths = (
{
closed = 1;
nodes = (
"167 700 OFFCURVE",
"45 579 OFFCURVE",
"45 344 CURVE SMOOTH",
"45 109 OFFCURVE",
"167 -12 OFFCURVE",
"402 -12 CURVE SMOOTH",
"612 -12 OFFCURVE",
"733 90 OFFCURVE",
"733 279 CURVE",
"529 279 LINE",
"529 200 OFFCURVE",
"486 153 OFFCURVE",
"399 153 CURVE SMOOTH",
"309 153 OFFCURVE",
"271 218 OFFCURVE",
"271 312 CURVE SMOOTH",
"271 376 LINE SMOOTH",
"271 470 OFFCURVE",
"307 535 OFFCURVE",
"401 535 CURVE SMOOTH",
"480 535 OFFCURVE",
"522 484 OFFCURVE",
"522 405 CURVE",
"733 405 LINE",
"733 597 OFFCURVE",
"602 700 OFFCURVE",
"402 700 CURVE SMOOTH"
);
}
);
width = 778;
}
);
unicode = 0043;
},
{
color = 0;
glyphname = Cacute;
lastChange = "2013-12-03 22:30:04 +0000";
layers = (
{
layerId = "87647C87-E27A-4883-B22D-08F5E311E309";
paths = (
{
closed = 1;
nodes = (
"167 700 OFFCURVE",
"45 579 OFFCURVE",
"45 344 CURVE SMOOTH",
"45 109 OFFCURVE",
"167 -12 OFFCURVE",
"402 -12 CURVE SMOOTH",
"612 -12 OFFCURVE",
"733 90 OFFCURVE",
"733 279 CURVE",
"529 279 LINE",
"529 200 OFFCURVE",
"486 153 OFFCURVE",
"399 153 CURVE SMOOTH",
"309 153 OFFCURVE",
"271 218 OFFCURVE",
"271 312 CURVE SMOOTH",
"271 376 LINE SMOOTH",
"271 470 OFFCURVE",
"307 535 OFFCURVE",
"401 535 CURVE SMOOTH",
"480 535 OFFCURVE",
"522 484 OFFCURVE",
"522 405 CURVE",
"733 405 LINE",
"733 597 OFFCURVE",
"602 700 OFFCURVE",
"402 700 CURVE SMOOTH"
);
},
{
closed = 1;
nodes = (
"590 881 LINE",
"588 885 LINE",
"396 885 LINE",
"303 752 LINE",
"431 752 LINE"
);
}
);
width = 778;
}
);
unicode = 0106;
},
{
color = 0;
glyphname = Ccaron;
lastChange = "2013-12-03 22:30:04 +0000";
layers = (
{
layerId = "87647C87-E27A-4883-B22D-08F5E311E309";
paths = (
{
closed = 1;
nodes = (
"167 700 OFFCURVE",
"45 579 OFFCURVE",
"45 344 CURVE SMOOTH",
"45 109 OFFCURVE",
"167 -12 OFFCURVE",
"402 -12 CURVE SMOOTH",
"612 -12 OFFCURVE",
"733 90 OFFCURVE",
"733 279 CURVE",
"529 279 LINE",
"529 200 OFFCURVE",
"486 153 OFFCURVE",
"399 153 CURVE SMOOTH",
"309 153 OFFCURVE",
"271 218 OFFCURVE",
"271 312 CURVE SMOOTH",
"271 376 LINE SMOOTH",
"271 470 OFFCURVE",
"307 535 OFFCURVE",
"401 535 CURVE SMOOTH",
"480 535 OFFCURVE",
"522 484 OFFCURVE",
"522 405 CURVE",
"733 405 LINE",
"733 597 OFFCURVE",
"602 700 OFFCURVE",
"402 700 CURVE SMOOTH"
);
},
{
closed = 1;
nodes = (
"592 885 LINE",
"462 885 LINE",
"388 808 LINE",
"314 885 LINE",
"186 885 LINE",
"325 740 LINE",
"453 740 LINE"
);
}
);
width = 778;
}
);
unicode = 010C;
},
{
color = 0;
glyphname = Ccedilla;
lastChange = "2013-12-03 22:30:04 +0000";
layers = (
{
layerId = "87647C87-E27A-4883-B22D-08F5E311E309";
paths = (
{
closed = 1;
nodes = (
"167 700 OFFCURVE",
"45 579 OFFCURVE",
"45 344 CURVE SMOOTH",
"45 124 OFFCURVE",
"152 3 OFFCURVE",
"359 -11 CURVE",
"348 -86 LINE",
"386 -86 LINE SMOOTH",
"415 -86 OFFCURVE",
"424 -98 OFFCURVE",
"424 -118 CURVE SMOOTH",
"424 -141 OFFCURVE",
"408 -149 OFFCURVE",
"384 -149 CURVE SMOOTH",
"332 -149 OFFCURVE",
"267 -141 OFFCURVE",
"267 -141 CURVE",
"267 -195 LINE",
"296 -205 OFFCURVE",
"347 -211 OFFCURVE",
"393 -211 CURVE SMOOTH",
"439 -211 OFFCURVE",
"511 -194 OFFCURVE",
"511 -118 CURVE SMOOTH",
"511 -56 OFFCURVE",
"467 -34 OFFCURVE",
"418 -29 CURVE",
"421 -12 LINE",
"619 -6 OFFCURVE",
"733 96 OFFCURVE",
"733 279 CURVE",
"529 279 LINE",
"529 200 OFFCURVE",
"486 153 OFFCURVE",
"399 153 CURVE SMOOTH",
"309 153 OFFCURVE",
"271 218 OFFCURVE",
"271 312 CURVE SMOOTH",
"271 376 LINE SMOOTH",
"271 470 OFFCURVE",
"307 535 OFFCURVE",
"401 535 CURVE SMOOTH",
"480 535 OFFCURVE",
"522 484 OFFCURVE",
"522 405 CURVE",
"733 405 LINE",
"733 597 OFFCURVE",
"602 700 OFFCURVE",
"402 700 CURVE SMOOTH"
);
}
);
width = 778;
}
);
unicode = 00C7;
},
{
color = 0;
glyphname = Ccircumflex;
lastChange = "2013-12-03 22:30:04 +0000";
layers = (
{
layerId = "87647C87-E27A-4883-B22D-08F5E311E309";
paths = (
{
closed = 1;
nodes = (
"167 700 OFFCURVE",
"45 579 OFFCURVE",
"45 344 CURVE SMOOTH",
"45 109 OFFCURVE",
"167 -12 OFFCURVE",
"402 -12 CURVE SMOOTH",
"612 -12 OFFCURVE",
"733 90 OFFCURVE",
"733 279 CURVE",
"529 279 LINE",
"529 200 OFFCURVE",
"486 153 OFFCURVE",
"399 153 CURVE SMOOTH",
"309 153 OFFCURVE",
"271 218 OFFCURVE",
"271 312 CURVE SMOOTH",
"271 376 LINE SMOOTH",
"271 470 OFFCURVE",
"307 535 OFFCURVE",
"401 535 CURVE SMOOTH",
"480 535 OFFCURVE",
"522 484 OFFCURVE",
"522 405 CURVE",
"733 405 LINE",
"733 597 OFFCURVE",
"602 700 OFFCURVE",
"402 700 CURVE SMOOTH"
);
},
{
closed = 1;
nodes = (
"453 885 LINE",
"325 885 LINE",
"186 740 LINE",
"314 740 LINE",
"388 817 LINE",
"462 740 LINE",
"592 740 LINE"
);
}
);
width = 778;
}
);
unicode = 0108;
},
{
color = 0;
glyphname = Cdotaccent;
lastChange = "2013-12-03 22:30:04 +0000";
layers = (
{
layerId = "87647C87-E27A-4883-B22D-08F5E311E309";
paths = (
{
closed = 1;
nodes = (
"167 700 OFFCURVE",
"45 579 OFFCURVE",
"45 344 CURVE SMOOTH",
"45 109 OFFCURVE",
"167 -12 OFFCURVE",
"402 -12 CURVE SMOOTH",
"612 -12 OFFCURVE",
"733 90 OFFCURVE",
"733 279 CURVE",
"529 279 LINE",
"529 200 OFFCURVE",
"486 153 OFFCURVE",
"399 153 CURVE SMOOTH",
"309 153 OFFCURVE",
"271 218 OFFCURVE",
"271 312 CURVE SMOOTH",
"271 376 LINE SMOOTH",
"271 470 OFFCURVE",
"307 535 OFFCURVE",
"401 535 CURVE SMOOTH",
"480 535 OFFCURVE",
"522 484 OFFCURVE",
"522 405 CURVE",
"733 405 LINE",
"733 597 OFFCURVE",
"602 700 OFFCURVE",
"402 700 CURVE SMOOTH"
);
},
{
closed = 1;
nodes = (
"465 885 LINE",
"313 885 LINE",
"313 746 LINE",
"465 746 LINE"
);
}
);
width = 778;
}
);
unicode = 010A;
},
{
color = 0;
glyphname = D;
lastChange = "2013-12-03 22:31:02 +0000";
layers = (
{
anchors = (
{
name = center;
position = "{389, 344}";
},
{
name = top;
position = "{389, 688}";
}
);
layerId = "87647C87-E27A-4883-B22D-08F5E311E309";
paths = (
{
closed = 1;
nodes = (
"74 688 LINE",
"74 0 LINE",
"372 0 LINE SMOOTH",
"607 0 OFFCURVE",
"733 109 OFFCURVE",
"733 344 CURVE SMOOTH",
"733 579 OFFCURVE",
"607 688 OFFCURVE",
"372 688 CURVE SMOOTH"
);
},
{
closed = 1;
nodes = (
"368 523 LINE SMOOTH",
"465 523 OFFCURVE",
"507 468 OFFCURVE",
"507 374 CURVE SMOOTH",
"507 314 LINE SMOOTH",
"507 220 OFFCURVE",
"465 165 OFFCURVE",
"368 165 CURVE SMOOTH",
"295 165 LINE",
"295 523 LINE"
);
}
);
width = 778;
}
);
unicode = 0044;
},
{
color = 0;
glyphname = Eth;
lastChange = "2013-12-03 22:30:04 +0000";
layers = (
{
layerId = "87647C87-E27A-4883-B22D-08F5E311E309";
paths = (
{
closed = 1;
nodes = (
"1 304 LINE",
"74 304 LINE",
"74 0 LINE",
"372 0 LINE SMOOTH",
"607 0 OFFCURVE",
"733 109 OFFCURVE",
"733 344 CURVE SMOOTH",
"733 579 OFFCURVE",
"607 688 OFFCURVE",
"372 688 CURVE SMOOTH",
"74 688 LINE",
"74 402 LINE",
"1 402 LINE"
);
},
{
closed = 1;
nodes = (
"392 304 LINE",
"392 402 LINE",
"295 402 LINE",
"295 523 LINE",
"368 523 LINE SMOOTH",
"465 523 OFFCURVE",
"507 468 OFFCURVE",
"507 374 CURVE SMOOTH",
"507 314 LINE SMOOTH",
"507 220 OFFCURVE",
"465 165 OFFCURVE",
"368 165 CURVE SMOOTH",
"295 165 LINE",
"295 304 LINE"
);
}
);
width = 778;
}
);
unicode = 00D0;
},
{
color = 0;
glyphname = Dcaron;
lastChange = "2013-12-03 22:30:04 +0000";
layers = (
{
layerId = "87647C87-E27A-4883-B22D-08F5E311E309";
paths = (
{
closed = 1;
nodes = (
"74 688 LINE",
"74 0 LINE",
"372 0 LINE SMOOTH",
"607 0 OFFCURVE",
"733 109 OFFCURVE",
"733 344 CURVE SMOOTH",
"733 579 OFFCURVE",
"607 688 OFFCURVE",
"372 688 CURVE SMOOTH"
);
},
{
closed = 1;
nodes = (
"368 523 LINE SMOOTH",
"465 523 OFFCURVE",
"507 468 OFFCURVE",
"507 374 CURVE SMOOTH",
"507 314 LINE SMOOTH",
"507 220 OFFCURVE",
"465 165 OFFCURVE",
"368 165 CURVE SMOOTH",
"295 165 LINE",
"295 523 LINE"
);
},
{
closed = 1;
nodes = (
"556 885 LINE",
"426 885 LINE",
"352 808 LINE",
"277 885 LINE",
"149 885 LINE",
"289 740 LINE",
"417 740 LINE"
);
}
);
width = 778;
}
);
unicode = 010E;
},
{
color = 0;
glyphname = Dcroat;
lastChange = "2013-12-03 22:30:04 +0000";
layers = (
{
layerId = "87647C87-E27A-4883-B22D-08F5E311E309";
paths = (
{
closed = 1;
nodes = (
"1 304 LINE",
"74 304 LINE",
"74 0 LINE",
"372 0 LINE SMOOTH",
"607 0 OFFCURVE",
"733 109 OFFCURVE",
"733 344 CURVE SMOOTH",
"733 579 OFFCURVE",
"607 688 OFFCURVE",
"372 688 CURVE SMOOTH",
"74 688 LINE",
"74 402 LINE",
"1 402 LINE"
);
},
{
closed = 1;
nodes = (
"392 304 LINE",
"392 402 LINE",
"295 402 LINE",
"295 523 LINE",
"368 523 LINE SMOOTH",
"465 523 OFFCURVE",
"507 468 OFFCURVE",
"507 374 CURVE SMOOTH",
"507 314 LINE SMOOTH",
"507 220 OFFCURVE",
"465 165 OFFCURVE",
"368 165 CURVE SMOOTH",
"295 165 LINE",
"295 304 LINE"
);
}
);
width = 778;
}
);
unicode = 0110;
},
{
color = 0;
glyphname = E;
lastChange = "2013-12-03 22:31:02 +0000";
layers = (
{
anchors = (
{
name = bottom;
position = "{361, 0}";
},
{
name = ogonek;
position = "{650, 10}";
},
{
name = top;
position = "{361, 688}";
}
);
layerId = "87647C87-E27A-4883-B22D-08F5E311E309";
paths = (
{
closed = 1;
nodes = (
"676 0 LINE",
"676 165 LINE",
"295 165 LINE",
"295 270 LINE",
"615 270 LINE",
"615 428 LINE",
"295 428 LINE",
"295 523 LINE",
"669 523 LINE",
"669 688 LINE",
"74 688 LINE",
"74 0 LINE"
);
}
);
width = 722;
}
);
unicode = 0045;
},
{
color = 0;
glyphname = Eacute;
lastChange = "2013-12-03 22:30:04 +0000";
layers = (
{
layerId = "87647C87-E27A-4883-B22D-08F5E311E309";
paths = (
{
closed = 1;
nodes = (
"577 881 LINE",
"575 885 LINE",
"382 885 LINE",
"290 752 LINE",
"417 752 LINE"
);
},
{
closed = 1;
nodes = (
"676 0 LINE",
"676 165 LINE",
"295 165 LINE",
"295 270 LINE",
"615 270 LINE",
"615 428 LINE",
"295 428 LINE",
"295 523 LINE",
"669 523 LINE",
"669 688 LINE",
"74 688 LINE",
"74 0 LINE"
);
}
);
width = 722;
}
);
unicode = 00C9;
},
{
color = 0;
glyphname = Ebreve;
lastChange = "2013-12-03 22:30:04 +0000";
layers = (
{
layerId = "87647C87-E27A-4883-B22D-08F5E311E309";
paths = (
{
closed = 1;
nodes = (
"475 885 LINE",
"471 864 OFFCURVE",
"435 835 OFFCURVE",
"385 835 CURVE SMOOTH",
"336 835 OFFCURVE",
"301 864 OFFCURVE",
"297 885 CURVE",
"201 885 LINE",
"201 818 OFFCURVE",
"270 741 OFFCURVE",
"385 741 CURVE SMOOTH",
"499 741 OFFCURVE",
"570 818 OFFCURVE",
"570 885 CURVE"
);
},
{
closed = 1;
nodes = (
"676 0 LINE",
"676 165 LINE",
"295 165 LINE",
"295 270 LINE",
"615 270 LINE",
"615 428 LINE",
"295 428 LINE",
"295 523 LINE",
"669 523 LINE",
"669 688 LINE",
"74 688 LINE",
"74 0 LINE"
);
}
);
width = 722;
}
);
unicode = 0114;
},
{
color = 0;
glyphname = Ecaron;
lastChange = "2013-12-03 22:30:04 +0000";
layers = (
{
layerId = "87647C87-E27A-4883-B22D-08F5E311E309";
paths = (
{
closed = 1;
nodes = (
"589 885 LINE",
"459 885 LINE",
"385 808 LINE",
"311 885 LINE",
"183 885 LINE",
"322 740 LINE",
"450 740 LINE"
);
},
{
closed = 1;
nodes = (
"676 0 LINE",
"676 165 LINE",
"295 165 LINE",
"295 270 LINE",
"615 270 LINE",
"615 428 LINE",
"295 428 LINE",
"295 523 LINE",
"669 523 LINE",
"669 688 LINE",
"74 688 LINE",
"74 0 LINE"
);
}
);
width = 722;
}
);
unicode = 011A;
},
{
color = 0;
glyphname = Ecircumflex;
lastChange = "2013-12-03 22:30:04 +0000";
layers = (
{
layerId = "87647C87-E27A-4883-B22D-08F5E311E309";
paths = (
{
closed = 1;
nodes = (
"450 885 LINE",
"322 885 LINE",
"183 740 LINE",
"311 740 LINE",
"385 817 LINE",
"459 740 LINE",
"589 740 LINE"
);
},
{
closed = 1;
nodes = (
"676 0 LINE",
"676 165 LINE",
"295 165 LINE",
"295 270 LINE",
"615 270 LINE",
"615 428 LINE",
"295 428 LINE",
"295 523 LINE",
"669 523 LINE",
"669 688 LINE",
"74 688 LINE",
"74 0 LINE"
);
}
);
width = 722;
}
);
unicode = 00CA;
},
{
color = 0;
glyphname = Edieresis;
lastChange = "2013-12-03 22:30:04 +0000";
layers = (
{
layerId = "87647C87-E27A-4883-B22D-08F5E311E309";
paths = (
{
closed = 1;
nodes = (
"572 885 LINE",
"420 885 LINE",
"420 746 LINE",
"572 746 LINE"
);
},
{
closed = 1;
nodes = (
"352 885 LINE",
"200 885 LINE",
"200 746 LINE",
"352 746 LINE"
);
},
{
closed = 1;
nodes = (
"676 0 LINE",
"676 165 LINE",
"295 165 LINE",
"295 270 LINE",
"615 270 LINE",
"615 428 LINE",
"295 428 LINE",
"295 523 LINE",
"669 523 LINE",
"669 688 LINE",
"74 688 LINE",
"74 0 LINE"
);
}
);
width = 722;
}
);
unicode = 00CB;
},
{
color = 0;
glyphname = Edotaccent;
lastChange = "2013-12-03 22:30:04 +0000";
layers = (
{
layerId = "87647C87-E27A-4883-B22D-08F5E311E309";
paths = (
{
closed = 1;
nodes = (
"462 885 LINE",
"310 885 LINE",
"310 746 LINE",
"462 746 LINE"
);
},
{
closed = 1;
nodes = (
"676 0 LINE",
"676 165 LINE",
"295 165 LINE",
"295 270 LINE",
"615 270 LINE",
"615 428 LINE",
"295 428 LINE",
"295 523 LINE",
"669 523 LINE",
"669 688 LINE",
"74 688 LINE",
"74 0 LINE"
);
}
);
width = 722;
}
);
unicode = 0116;
},
{
color = 0;
glyphname = Egrave;
lastChange = "2013-12-03 22:30:04 +0000";
layers = (
{
layerId = "87647C87-E27A-4883-B22D-08F5E311E309";
paths = (
{
closed = 1;
nodes = (
"482 752 LINE",
"390 885 LINE",
"197 885 LINE",
"195 881 LINE",
"355 752 LINE"
);
},
{
closed = 1;
nodes = (
"676 0 LINE",
"676 165 LINE",
"295 165 LINE",
"295 270 LINE",
"615 270 LINE",
"615 428 LINE",
"295 428 LINE",
"295 523 LINE",
"669 523 LINE",
"669 688 LINE",
"74 688 LINE",
"74 0 LINE"
);
}
);
width = 722;
}
);
unicode = 00C8;
},
{
color = 0;
glyphname = Emacron;
lastChange = "2013-12-03 22:30:04 +0000";
layers = (
{
layerId = "87647C87-E27A-4883-B22D-08F5E311E309";
paths = (
{
closed = 1;
nodes = (
"544 865 LINE",
"228 865 LINE",
"228 765 LINE",
"544 765 LINE"
);
},
{
closed = 1;
nodes = (
"676 0 LINE",
"676 165 LINE",
"295 165 LINE",
"295 270 LINE",
"615 270 LINE",
"615 428 LINE",
"295 428 LINE",
"295 523 LINE",
"669 523 LINE",
"669 688 LINE",
"74 688 LINE",
"74 0 LINE"
);
}
);
width = 722;
}
);
unicode = 0112;
},
{
color = 0;
glyphname = Eogonek;
lastChange = "2013-12-03 22:30:04 +0000";
layers = (
{
layerId = "87647C87-E27A-4883-B22D-08F5E311E309";
paths = (
{
closed = 1;
nodes = (
"669 688 LINE",
"74 688 LINE",
"74 0 LINE",
"531 0 LINE",
"511 -25 OFFCURVE",
"491 -55 OFFCURVE",
"491 -97 CURVE SMOOTH",
"491 -179 OFFCURVE",
"553 -211 OFFCURVE",
"617 -211 CURVE SMOOTH",
"650 -211 OFFCURVE",
"682 -206 OFFCURVE",
"713 -196 CURVE",
"713 -120 LINE",
"671 -120 LINE SMOOTH",
"626 -120 OFFCURVE",
"611 -95 OFFCURVE",
"611 -69 CURVE SMOOTH",
"611 -43 OFFCURVE",
"620 -16 OFFCURVE",
"627 0 CURVE",
"676 0 LINE",
"676 165 LINE",
"295 165 LINE",
"295 270 LINE",
"615 270 LINE",
"615 428 LINE",
"295 428 LINE",
"295 523 LINE",
"669 523 LINE"
);
}
);
width = 722;
}
);
unicode = 0118;
},
{
color = 0;
glyphname = F;
lastChange = "2013-12-03 22:30:04 +0000";
layers = (
{
layerId = "87647C87-E27A-4883-B22D-08F5E311E309";
paths = (
{
closed = 1;
nodes = (
"295 0 LINE",
"295 247 LINE",
"583 247 LINE",
"583 405 LINE",
"295 405 LINE",
"295 523 LINE",
"630 523 LINE",
"630 688 LINE",
"74 688 LINE",
"74 0 LINE"
);
}
);
width = 667;
}
);
unicode = 0046;
},
{
color = 0;
glyphname = G;
lastChange = "2013-12-03 22:31:02 +0000";
layers = (
{
anchors = (
{
name = bottom;
position = "{417, 0}";
},
{
name = top;
position = "{417, 688}";
}
);
layerId = "87647C87-E27A-4883-B22D-08F5E311E309";
paths = (
{
closed = 1;
nodes = (
"182 700 OFFCURVE",
"45 579 OFFCURVE",
"45 344 CURVE SMOOTH",
"45 109 OFFCURVE",
"159 -12 OFFCURVE",
"388 -12 CURVE SMOOTH",
"493 -12 OFFCURVE",
"572 15 OFFCURVE",
"634 68 CURVE",
"656 0 LINE",
"770 0 LINE",
"770 384 LINE",
"403 384 LINE",
"403 244 LINE",
"559 244 LINE",
"559 189 OFFCURVE",
"499 153 OFFCURVE",
"429 153 CURVE SMOOTH",
"324 153 OFFCURVE",
"271 212 OFFCURVE",
"271 312 CURVE SMOOTH",
"271 376 LINE SMOOTH",
"271 476 OFFCURVE",
"324 535 OFFCURVE",
"429 535 CURVE SMOOTH",
"499 535 OFFCURVE",
"559 498 OFFCURVE",
"559 439 CURVE",
"770 439 LINE",
"770 612 OFFCURVE",
"613 700 OFFCURVE",
"420 700 CURVE SMOOTH"
);
}
);
width = 833;
}
);
unicode = 0047;
},
{
color = 0;
glyphname = Gbreve;
lastChange = "2013-12-03 22:30:04 +0000";
layers = (
{
layerId = "87647C87-E27A-4883-B22D-08F5E311E309";
paths = (
{
closed = 1;
nodes = (
"182 700 OFFCURVE",
"45 579 OFFCURVE",
"45 344 CURVE SMOOTH",
"45 109 OFFCURVE",
"159 -12 OFFCURVE",
"388 -12 CURVE SMOOTH",
"493 -12 OFFCURVE",
"572 15 OFFCURVE",
"634 68 CURVE",
"656 0 LINE",
"770 0 LINE",
"770 384 LINE",
"403 384 LINE",
"403 244 LINE",
"559 244 LINE",
"559 189 OFFCURVE",
"499 153 OFFCURVE",
"429 153 CURVE SMOOTH",
"324 153 OFFCURVE",
"271 212 OFFCURVE",
"271 312 CURVE SMOOTH",
"271 376 LINE SMOOTH",
"271 476 OFFCURVE",
"324 535 OFFCURVE",
"429 535 CURVE SMOOTH",
"499 535 OFFCURVE",
"559 498 OFFCURVE",
"559 439 CURVE",
"770 439 LINE",
"770 612 OFFCURVE",
"613 700 OFFCURVE",
"420 700 CURVE SMOOTH"
);
},
{
closed = 1;
nodes = (
"506 885 LINE",
"502 864 OFFCURVE",
"466 835 OFFCURVE",
"416 835 CURVE SMOOTH",
"367 835 OFFCURVE",
"332 864 OFFCURVE",
"328 885 CURVE",
"232 885 LINE",
"232 818 OFFCURVE",
"301 741 OFFCURVE",
"416 741 CURVE SMOOTH",
"530 741 OFFCURVE",
"601 818 OFFCURVE",
"601 885 CURVE"
);
}
);
width = 833;
}
);
unicode = 011E;
},
{
color = 0;
glyphname = Gcircumflex;
lastChange = "2013-12-03 22:30:04 +0000";
layers = (
{
layerId = "87647C87-E27A-4883-B22D-08F5E311E309";
paths = (
{
closed = 1;
nodes = (
"182 700 OFFCURVE",
"45 579 OFFCURVE",
"45 344 CURVE SMOOTH",
"45 109 OFFCURVE",
"159 -12 OFFCURVE",
"388 -12 CURVE SMOOTH",
"493 -12 OFFCURVE",
"572 15 OFFCURVE",
"634 68 CURVE",
"656 0 LINE",
"770 0 LINE",
"770 384 LINE",
"403 384 LINE",
"403 244 LINE",
"559 244 LINE",
"559 189 OFFCURVE",
"499 153 OFFCURVE",
"429 153 CURVE SMOOTH",
"324 153 OFFCURVE",
"271 212 OFFCURVE",
"271 312 CURVE SMOOTH",
"271 376 LINE SMOOTH",
"271 476 OFFCURVE",
"324 535 OFFCURVE",
"429 535 CURVE SMOOTH",
"499 535 OFFCURVE",
"559 498 OFFCURVE",
"559 439 CURVE",
"770 439 LINE",
"770 612 OFFCURVE",
"613 700 OFFCURVE",
"420 700 CURVE SMOOTH"
);
},
{
closed = 1;
nodes = (
"480 885 LINE",
"353 885 LINE",
"213 740 LINE",
"341 740 LINE",
"416 817 LINE",
"490 740 LINE",
"620 740 LINE"
);
}
);
width = 833;
}
);
unicode = 011C;
},
{
color = 0;
glyphname = Gcommaaccent;
lastChange = "2013-12-03 22:30:04 +0000";
layers = (
{
layerId = "87647C87-E27A-4883-B22D-08F5E311E309";
paths = (
{
closed = 1;
nodes = (
"182 700 OFFCURVE",
"45 579 OFFCURVE",
"45 344 CURVE SMOOTH",
"45 109 OFFCURVE",
"159 -12 OFFCURVE",
"388 -12 CURVE SMOOTH",
"493 -12 OFFCURVE",
"572 15 OFFCURVE",
"634 68 CURVE",
"656 0 LINE",
"770 0 LINE",
"770 384 LINE",
"403 384 LINE",
"403 244 LINE",
"559 244 LINE",
"559 189 OFFCURVE",
"499 153 OFFCURVE",
"429 153 CURVE SMOOTH",
"324 153 OFFCURVE",
"271 212 OFFCURVE",
"271 312 CURVE SMOOTH",
"271 376 LINE SMOOTH",
"271 476 OFFCURVE",
"324 535 OFFCURVE",
"429 535 CURVE SMOOTH",
"499 535 OFFCURVE",
"559 498 OFFCURVE",
"559 439 CURVE",
"770 439 LINE",
"770 612 OFFCURVE",
"613 700 OFFCURVE",
"420 700 CURVE SMOOTH"
);
},
{
closed = 1;
nodes = (
"481 -59 LINE",
"352 -59 LINE",
"352 -175 LINE",
"401 -175 LINE",
"360 -267 LINE",
"427 -267 LINE",
"481 -168 LINE"
);
}
);
width = 833;
}
);
unicode = 0122;
},
{
color = 0;
glyphname = Gdotaccent;
lastChange = "2013-12-03 22:30:04 +0000";
layers = (
{
layerId = "87647C87-E27A-4883-B22D-08F5E311E309";
paths = (
{
closed = 1;
nodes = (
"182 700 OFFCURVE",
"45 579 OFFCURVE",
"45 344 CURVE SMOOTH",
"45 109 OFFCURVE",
"159 -12 OFFCURVE",
"388 -12 CURVE SMOOTH",
"493 -12 OFFCURVE",
"572 15 OFFCURVE",
"634 68 CURVE",
"656 0 LINE",
"770 0 LINE",
"770 384 LINE",
"403 384 LINE",
"403 244 LINE",
"559 244 LINE",
"559 189 OFFCURVE",
"499 153 OFFCURVE",
"429 153 CURVE SMOOTH",
"324 153 OFFCURVE",
"271 212 OFFCURVE",
"271 312 CURVE SMOOTH",
"271 376 LINE SMOOTH",
"271 476 OFFCURVE",
"324 535 OFFCURVE",
"429 535 CURVE SMOOTH",
"499 535 OFFCURVE",
"559 498 OFFCURVE",
"559 439 CURVE",
"770 439 LINE",
"770 612 OFFCURVE",
"613 700 OFFCURVE",
"420 700 CURVE SMOOTH"
);
},
{
closed = 1;
nodes = (
"493 885 LINE",
"340 885 LINE",
"340 746 LINE",
"493 746 LINE"
);
}
);
width = 833;
}
);
unicode = 0120;
},
{
color = 0;
glyphname = H;
lastChange = "2013-12-03 22:31:02 +0000";
layers = (
{
anchors = (
{
name = center;
position = "{417, 344}";
},
{
name = top;
position = "{417, 688}";
}
);
layerId = "87647C87-E27A-4883-B22D-08F5E311E309";
paths = (
{
closed = 1;
nodes = (
"759 688 LINE",
"538 688 LINE",
"538 437 LINE",
"295 437 LINE",
"295 688 LINE",
"74 688 LINE",
"74 0 LINE",
"295 0 LINE",
"295 261 LINE",
"538 261 LINE",
"538 0 LINE",
"759 0 LINE"
);
}
);
width = 833;
}
);
unicode = 0048;
},
{
color = 0;
glyphname = Hbar;
lastChange = "2013-12-03 22:30:04 +0000";
layers = (
{
layerId = "87647C87-E27A-4883-B22D-08F5E311E309";
paths = (
{
closed = 1;
nodes = (
"831 502 LINE",
"831 600 LINE",
"759 600 LINE",
"759 688 LINE",
"538 688 LINE",
"538 600 LINE",
"295 600 LINE",
"295 688 LINE",
"74 688 LINE",
"74 600 LINE",
"1 600 LINE",
"1 502 LINE",
"74 502 LINE",
"74 0 LINE",
"295 0 LINE",
"295 251 LINE",
"538 251 LINE",
"538 0 LINE",
"759 0 LINE",
"759 502 LINE"
);
},
{
closed = 1;
nodes = (
"295 427 LINE",
"295 502 LINE",
"538 502 LINE",
"538 427 LINE"
);
}
);
width = 833;
}
);
unicode = 0126;
},
{
color = 0;
glyphname = Hcircumflex;
lastChange = "2013-12-03 22:30:04 +0000";
layers = (
{
layerId = "87647C87-E27A-4883-B22D-08F5E311E309";
paths = (
{
closed = 1;
nodes = (
"759 688 LINE",
"538 688 LINE",
"538 437 LINE",
"295 437 LINE",
"295 688 LINE",
"74 688 LINE",
"74 0 LINE",
"295 0 LINE",
"295 261 LINE",
"538 261 LINE",
"538 0 LINE",
"759 0 LINE"
);
},
{
closed = 1;
nodes = (
"480 885 LINE",
"353 885 LINE",
"213 740 LINE",
"341 740 LINE",
"416 817 LINE",
"490 740 LINE",
"620 740 LINE"
);
}
);
width = 833;
}
);
unicode = 0124;
},
{
color = 0;
glyphname = I;
lastChange = "2013-12-03 22:31:02 +0000";
layers = (
{
anchors = (
{
name = ogonek;
position = "{350, 10}";
},
{
name = top;
position = "{195, 688}";
}
);
layerId = "87647C87-E27A-4883-B22D-08F5E311E309";
paths = (
{
closed = 1;
nodes = (
"305 688 LINE",
"84 688 LINE",
"84 0 LINE",
"305 0 LINE"
);
}
);
width = 389;
}
);
unicode = 0049;
},
{
color = 0;
glyphname = IJ;
lastChange = "2013-12-03 22:30:04 +0000";
layers = (
{
layerId = "87647C87-E27A-4883-B22D-08F5E311E309";
paths = (
{
closed = 1;
nodes = (
"954 688 LINE",
"733 688 LINE",
"733 240 LINE SMOOTH",
"733 176 OFFCURVE",
"709 153 OFFCURVE",
"662 153 CURVE SMOOTH",
"615 153 OFFCURVE",
"591 176 OFFCURVE",
"591 240 CURVE SMOOTH",
"591 248 LINE",
"384 248 LINE",
"384 239 LINE SMOOTH",
"384 63 OFFCURVE",
"491 -12 OFFCURVE",
"669 -12 CURVE SMOOTH",
"847 -12 OFFCURVE",
"954 63 OFFCURVE",
"954 239 CURVE SMOOTH"
);
},
{
closed = 1;
nodes = (
"305 688 LINE",
"84 688 LINE",
"84 0 LINE",
"305 0 LINE"
);
}
);
width = 1028;
}
);
unicode = 0132;
},
{
color = 0;
glyphname = Iacute;
lastChange = "2013-12-03 22:30:04 +0000";
layers = (
{
layerId = "87647C87-E27A-4883-B22D-08F5E311E309";
paths = (
{
closed = 1;
nodes = (
"305 0 LINE",
"305 688 LINE",
"84 688 LINE",
"84 0 LINE"
);
},
{
closed = 1;
nodes = (
"386 881 LINE",
"384 885 LINE",
"191 885 LINE",
"99 752 LINE",
"226 752 LINE"
);
}
);
width = 389;
}
);
unicode = 00CD;
},
{
color = 0;
glyphname = Ibreve;
lastChange = "2013-12-03 22:30:04 +0000";
layers = (
{
layerId = "87647C87-E27A-4883-B22D-08F5E311E309";
paths = (
{
closed = 1;
nodes = (
"305 688 LINE",
"84 688 LINE",
"84 0 LINE",
"305 0 LINE"
);
},
{
closed = 1;
nodes = (
"284 885 LINE",
"280 864 OFFCURVE",
"244 835 OFFCURVE",
"194 835 CURVE SMOOTH",
"146 835 OFFCURVE",
"110 864 OFFCURVE",
"106 885 CURVE",
"10 885 LINE",
"10 818 OFFCURVE",
"79 741 OFFCURVE",
"194 741 CURVE SMOOTH",
"308 741 OFFCURVE",
"379 818 OFFCURVE",
"379 885 CURVE"
);
}
);
width = 389;
}
);
unicode = 012C;
},
{
color = 0;
glyphname = Icircumflex;
lastChange = "2013-12-03 22:30:04 +0000";
layers = (
{
layerId = "87647C87-E27A-4883-B22D-08F5E311E309";
paths = (
{
closed = 1;
nodes = (
"305 688 LINE",
"84 688 LINE",
"84 0 LINE",
"305 0 LINE"
);
},
{
closed = 1;
nodes = (
"259 885 LINE",
"131 885 LINE",
"-8 740 LINE",
"120 740 LINE",
"194 817 LINE",
"268 740 LINE",
"398 740 LINE"
);
}
);
width = 389;
}
);
unicode = 00CE;
},
{
color = 0;
glyphname = Idieresis;
lastChange = "2013-12-03 22:30:04 +0000";
layers = (
{
layerId = "87647C87-E27A-4883-B22D-08F5E311E309";
paths = (
{
closed = 1;
nodes = (
"305 688 LINE",
"84 688 LINE",
"84 0 LINE",
"305 0 LINE"
);
},
{
closed = 1;
nodes = (
"381 885 LINE",
"229 885 LINE",
"229 746 LINE",
"381 746 LINE"
);
},
{
closed = 1;
nodes = (
"161 885 LINE",
"9 885 LINE",
"9 746 LINE",
"161 746 LINE"
);
}
);
width = 389;
}
);
unicode = 00CF;
},
{
color = 0;
glyphname = Idotaccent;
lastChange = "2013-12-03 22:30:04 +0000";
layers = (
{
layerId = "87647C87-E27A-4883-B22D-08F5E311E309";
paths = (
{
closed = 1;
nodes = (
"305 688 LINE",
"84 688 LINE",
"84 0 LINE",
"305 0 LINE"
);
},
{
closed = 1;
nodes = (
"271 885 LINE",
"119 885 LINE",
"119 746 LINE",
"271 746 LINE"
);
}
);
width = 389;
}
);
unicode = 0130;
},
{
color = 0;
glyphname = Igrave;
lastChange = "2013-12-03 22:30:04 +0000";
layers = (
{
layerId = "87647C87-E27A-4883-B22D-08F5E311E309";
paths = (
{
closed = 1;
nodes = (
"305 0 LINE",
"305 688 LINE",
"84 688 LINE",
"84 0 LINE"
);
},
{
closed = 1;
nodes = (
"291 752 LINE",
"199 885 LINE",
"6 885 LINE",
"4 881 LINE",
"164 752 LINE"
);
}
);
width = 389;
}
);
unicode = 00CC;
},
{
color = 0;
glyphname = Imacron;
lastChange = "2013-12-03 22:30:04 +0000";
layers = (
{
layerId = "87647C87-E27A-4883-B22D-08F5E311E309";
paths = (
{
closed = 1;
nodes = (
"305 688 LINE",
"84 688 LINE",
"84 0 LINE",
"305 0 LINE"
);
},
{
closed = 1;
nodes = (
"353 865 LINE",
"37 865 LINE",
"37 765 LINE",
"353 765 LINE"
);
}
);
width = 389;
}
);
unicode = 012A;
},
{
color = 0;
glyphname = Iogonek;
lastChange = "2013-12-03 22:30:04 +0000";
layers = (
{
layerId = "87647C87-E27A-4883-B22D-08F5E311E309";
paths = (
{
closed = 1;
nodes = (
"305 688 LINE",
"84 688 LINE",
"84 0 LINE",
"203 0 LINE",
"183 -25 OFFCURVE",
"163 -55 OFFCURVE",
"163 -97 CURVE SMOOTH",
"163 -179 OFFCURVE",
"225 -211 OFFCURVE",
"289 -211 CURVE SMOOTH",
"322 -211 OFFCURVE",
"354 -206 OFFCURVE",
"385 -196 CURVE",
"385 -120 LINE",
"343 -120 LINE SMOOTH",
"298 -120 OFFCURVE",
"283 -95 OFFCURVE",
"283 -69 CURVE SMOOTH",
"283 -43 OFFCURVE",
"292 -16 OFFCURVE",
"299 0 CURVE",
"305 0 LINE"
);
}
);
width = 389;
}
);
unicode = 012E;
},
{
color = 0;
glyphname = Itilde;
lastChange = "2013-12-03 22:30:04 +0000";
layers = (
{
layerId = "87647C87-E27A-4883-B22D-08F5E311E309";
paths = (
{
closed = 1;
nodes = (
"305 688 LINE",
"84 688 LINE",
"84 0 LINE",
"305 0 LINE"
);
},
{
closed = 1;
nodes = (
"336 885 LINE",
"329 862 OFFCURVE",
"311 845 OFFCURVE",
"286 845 CURVE SMOOTH",
"232 845 OFFCURVE",
"177 885 OFFCURVE",
"113 885 CURVE SMOOTH",
"29 885 OFFCURVE",
"-27 814 OFFCURVE",
"-27 742 CURVE",
"54 742 LINE",
"61 765 OFFCURVE",
"79 782 OFFCURVE",
"104 782 CURVE SMOOTH",
"158 782 OFFCURVE",
"213 742 OFFCURVE",
"277 742 CURVE SMOOTH",
"361 742 OFFCURVE",
"417 813 OFFCURVE",
"417 885 CURVE"
);
}
);
width = 389;
}
);
unicode = 0128;
},
{
color = 0;
glyphname = J;
lastChange = "2013-12-03 22:31:02 +0000";
layers = (
{
anchors = (
{
name = top;
position = "{334, 688}";
}
);
layerId = "87647C87-E27A-4883-B22D-08F5E311E309";
paths = (
{
closed = 1;
nodes = (
"593 688 LINE",
"372 688 LINE",
"372 240 LINE SMOOTH",
"372 176 OFFCURVE",
"348 153 OFFCURVE",
"301 153 CURVE SMOOTH",
"254 153 OFFCURVE",
"230 176 OFFCURVE",
"230 240 CURVE SMOOTH",
"230 248 LINE",
"23 248 LINE",
"23 239 LINE SMOOTH",
"23 63 OFFCURVE",
"130 -12 OFFCURVE",
"308 -12 CURVE SMOOTH",
"486 -12 OFFCURVE",
"593 63 OFFCURVE",
"593 239 CURVE SMOOTH"
);
}
);
width = 667;
}
);
unicode = 004A;
},
{
color = 0;
glyphname = Jcircumflex;
lastChange = "2013-12-03 22:30:04 +0000";
layers = (
{
layerId = "87647C87-E27A-4883-B22D-08F5E311E309";
paths = (
{
closed = 1;
nodes = (
"593 688 LINE",
"372 688 LINE",
"372 240 LINE SMOOTH",
"372 176 OFFCURVE",
"348 153 OFFCURVE",
"301 153 CURVE SMOOTH",
"254 153 OFFCURVE",
"230 176 OFFCURVE",
"230 240 CURVE SMOOTH",
"230 248 LINE",
"23 248 LINE",
"23 239 LINE SMOOTH",
"23 63 OFFCURVE",
"130 -12 OFFCURVE",
"308 -12 CURVE SMOOTH",
"486 -12 OFFCURVE",
"593 63 OFFCURVE",
"593 239 CURVE SMOOTH"
);
},
{
closed = 1;
nodes = (
"536 885 LINE",
"408 885 LINE",
"269 740 LINE",
"396 740 LINE",
"471 817 LINE",
"545 740 LINE",
"675 740 LINE"
);
}
);
width = 667;
}
);
unicode = 0134;
},
{
color = 0;
glyphname = K;
lastChange = "2013-12-03 22:31:02 +0000";
layers = (
{
anchors = (
{
name = bottom;
position = "{417, 0}";
},
{
name = top;
position = "{417, 688}";
}
);
layerId = "87647C87-E27A-4883-B22D-08F5E311E309";
paths = (
{
closed = 1;
nodes = (
"295 688 LINE",
"74 688 LINE",
"74 0 LINE",
"295 0 LINE",
"295 154 LINE",
"415 252 LINE",
"558 0 LINE",
"819 0 LINE",
"567 405 LINE",
"814 688 LINE",
"540 688 LINE",
"295 394 LINE"
);
}
);
width = 833;
}
);
unicode = 004B;
},
{
color = 0;
glyphname = Kcommaaccent;
lastChange = "2013-12-03 22:30:04 +0000";
layers = (
{
layerId = "87647C87-E27A-4883-B22D-08F5E311E309";
paths = (
{
closed = 1;
nodes = (
"481 -59 LINE",
"352 -59 LINE",
"352 -175 LINE",
"401 -175 LINE",
"360 -267 LINE",
"427 -267 LINE",
"481 -168 LINE"
);
},
{
closed = 1;
nodes = (
"295 688 LINE",
"74 688 LINE",
"74 0 LINE",
"295 0 LINE",
"295 154 LINE",
"415 252 LINE",
"558 0 LINE",
"819 0 LINE",
"567 405 LINE",
"814 688 LINE",
"540 688 LINE",
"295 394 LINE"
);
}
);
width = 833;
}
);
unicode = 0136;
},
{
color = 0;
glyphname = L;
lastChange = "2013-12-03 22:31:02 +0000";
layers = (
{
anchors = (
{
name = bottom;
position = "{334, 0}";
},
{
name = top;
position = "{334, 688}";
}
);
layerId = "87647C87-E27A-4883-B22D-08F5E311E309";
paths = (
{
closed = 1;
nodes = (
"648 0 LINE",
"648 176 LINE",
"295 176 LINE",
"295 688 LINE",
"74 688 LINE",
"74 0 LINE"
);
}
);
width = 667;
}
);
unicode = 004C;
},
{
color = 0;
glyphname = Lacute;
lastChange = "2013-12-03 22:30:04 +0000";
layers = (
{
layerId = "87647C87-E27A-4883-B22D-08F5E311E309";
paths = (
{
closed = 1;
nodes = (
"375 881 LINE",
"373 885 LINE",
"180 885 LINE",
"88 752 LINE",
"215 752 LINE"
);
},
{
closed = 1;
nodes = (
"648 0 LINE",
"648 176 LINE",
"295 176 LINE",
"295 688 LINE",
"74 688 LINE",
"74 0 LINE"
);
}
);
width = 667;
}
);
unicode = 0139;
},
{
color = 0;
glyphname = Lcaron;
lastChange = "2013-12-03 22:30:04 +0000";
layers = (
{
layerId = "87647C87-E27A-4883-B22D-08F5E311E309";
paths = (
{
closed = 1;
nodes = (
"625 688 LINE",
"496 688 LINE",
"496 572 LINE",
"545 572 LINE",
"504 480 LINE",
"571 480 LINE",
"625 579 LINE"
);
},
{
closed = 1;
nodes = (
"648 0 LINE",
"648 176 LINE",
"295 176 LINE",
"295 688 LINE",
"74 688 LINE",
"74 0 LINE"
);
}
);
width = 667;
}
);
unicode = 013D;
},
{
color = 0;
glyphname = Lcommaaccent;
lastChange = "2013-12-03 22:30:04 +0000";
layers = (
{
layerId = "87647C87-E27A-4883-B22D-08F5E311E309";
paths = (
{
closed = 1;
nodes = (
"398 -59 LINE",
"269 -59 LINE",
"269 -175 LINE",
"318 -175 LINE",
"277 -267 LINE",
"344 -267 LINE",
"398 -168 LINE"
);
},
{
closed = 1;
nodes = (
"648 0 LINE",
"648 176 LINE",
"295 176 LINE",
"295 688 LINE",
"74 688 LINE",
"74 0 LINE"
);
}
);
width = 667;
}
);
unicode = 013B;
},
{
color = 0;
glyphname = Ldot;
lastChange = "2013-12-03 22:30:04 +0000";
layers = (
{
layerId = "87647C87-E27A-4883-B22D-08F5E311E309";
paths = (
{
closed = 1;
nodes = (
"580 526 LINE",
"388 526 LINE",
"388 343 LINE",
"580 343 LINE"
);
},
{
closed = 1;
nodes = (
"648 0 LINE",
"648 176 LINE",
"295 176 LINE",
"295 688 LINE",
"74 688 LINE",
"74 0 LINE"
);
}
);
width = 667;
}
);
unicode = 013F;
},
{
color = 0;
glyphname = Lslash;
lastChange = "2013-12-03 22:30:04 +0000";
layers = (
{
layerId = "87647C87-E27A-4883-B22D-08F5E311E309";
paths = (
{
closed = 1;
nodes = (
"295 688 LINE",
"74 688 LINE",
"74 328 LINE",
"0 282 LINE",
"0 184 LINE",
"74 229 LINE",
"74 0 LINE",
"648 0 LINE",
"648 176 LINE",
"295 176 LINE",
"295 364 LINE",
"444 456 LINE",
"444 556 LINE",
"295 463 LINE"
);
}
);
width = 667;
}
);
unicode = 0141;
},
{
color = 0;
glyphname = M;
lastChange = "2013-12-03 22:30:04 +0000";
layers = (
{
layerId = "87647C87-E27A-4883-B22D-08F5E311E309";
paths = (
{
closed = 1;
nodes = (
"884 688 LINE",
"583 688 LINE",
"480 291 LINE",
"476 291 LINE",
"372 688 LINE",
"60 688 LINE",
"60 0 LINE",
"263 0 LINE",
"263 248 LINE SMOOTH",
"263 352 OFFCURVE",
"245 465 OFFCURVE",
"245 465 CURVE",
"249 465 LINE",
"377 0 LINE",
"550 0 LINE",
"677 466 LINE",
"681 466 LINE",
"681 466 OFFCURVE",
"665 352 OFFCURVE",
"665 248 CURVE SMOOTH",
"665 0 LINE",
"884 0 LINE"
);
}
);
width = 944;
}
);
unicode = 004D;
},
{
color = 0;
glyphname = N;
lastChange = "2013-12-03 22:31:02 +0000";
layers = (
{
anchors = (
{
name = bottom;
position = "{417, 0}";
},
{
name = top;
position = "{417, 688}";
}
);
layerId = "87647C87-E27A-4883-B22D-08F5E311E309";
paths = (
{
closed = 1;
nodes = (
"759 688 LINE",
"556 688 LINE",
"556 349 LINE",
"267 688 LINE",
"74 688 LINE",
"74 0 LINE",
"277 0 LINE",
"277 334 LINE",
"566 0 LINE",
"759 0 LINE"
);
}
);
width = 833;
}
);
unicode = 004E;
},
{
color = 0;
glyphname = Nacute;
lastChange = "2013-12-03 22:30:04 +0000";
layers = (
{
layerId = "87647C87-E27A-4883-B22D-08F5E311E309";
paths = (
{
closed = 1;
nodes = (
"759 0 LINE",
"759 688 LINE",
"556 688 LINE",
"556 349 LINE",
"267 688 LINE",
"74 688 LINE",
"74 0 LINE",
"277 0 LINE",
"277 334 LINE",
"566 0 LINE"
);
},
{
closed = 1;
nodes = (
"607 881 LINE",
"605 885 LINE",
"413 885 LINE",
"320 752 LINE",
"448 752 LINE"
);
}
);
width = 833;
}
);
unicode = 0143;
},
{
color = 0;
glyphname = Ncaron;
lastChange = "2013-12-03 22:30:04 +0000";
layers = (
{
layerId = "87647C87-E27A-4883-B22D-08F5E311E309";
paths = (
{
closed = 1;
nodes = (
"759 688 LINE",
"556 688 LINE",
"556 349 LINE",
"267 688 LINE",
"74 688 LINE",
"74 0 LINE",
"277 0 LINE",
"277 334 LINE",
"566 0 LINE",
"759 0 LINE"
);
},
{
closed = 1;
nodes = (
"620 885 LINE",
"490 885 LINE",
"416 808 LINE",
"341 885 LINE",
"213 885 LINE",
"353 740 LINE",
"480 740 LINE"
);
}
);
width = 833;
}
);
unicode = 0147;
},
{
color = 0;
glyphname = Ncommaaccent;
lastChange = "2013-12-03 22:30:04 +0000";
layers = (
{
layerId = "87647C87-E27A-4883-B22D-08F5E311E309";
paths = (
{
closed = 1;
nodes = (
"759 688 LINE",
"556 688 LINE",
"556 349 LINE",
"267 688 LINE",
"74 688 LINE",
"74 0 LINE",
"277 0 LINE",
"277 334 LINE",
"566 0 LINE",
"759 0 LINE"
);
},
{
closed = 1;
nodes = (
"481 -59 LINE",
"352 -59 LINE",
"352 -175 LINE",
"401 -175 LINE",
"360 -267 LINE",
"427 -267 LINE",
"481 -168 LINE"
);
}
);
width = 833;
}
);
unicode = 0145;
},
{
color = 0;
glyphname = Eng;
lastChange = "2013-12-03 22:30:04 +0000";
layers = (
{
layerId = "87647C87-E27A-4883-B22D-08F5E311E309";
paths = (
{
closed = 1;
nodes = (
"759 688 LINE",
"556 688 LINE",
"556 349 LINE",
"267 688 LINE",
"74 688 LINE",
"74 0 LINE",
"277 0 LINE",
"277 334 LINE",
"557 10 LINE",
"557 -9 LINE SMOOTH",
"557 -50 OFFCURVE",
"541 -73 OFFCURVE",
"501 -73 CURVE SMOOTH",
"452 -73 LINE",
"452 -192 LINE",
"483 -203 OFFCURVE",
"544 -210 OFFCURVE",
"576 -210 CURVE SMOOTH",
"704 -210 OFFCURVE",
"759 -157 OFFCURVE",
"759 -29 CURVE SMOOTH"
);
}
);
width = 814;
}
);
unicode = 014A;
},
{
color = 0;
glyphname = Ntilde;
lastChange = "2013-12-03 22:30:04 +0000";
layers = (
{
layerId = "87647C87-E27A-4883-B22D-08F5E311E309";
paths = (
{
closed = 1;
nodes = (
"759 688 LINE",
"556 688 LINE",
"556 349 LINE",
"267 688 LINE",
"74 688 LINE",
"74 0 LINE",
"277 0 LINE",
"277 334 LINE",
"566 0 LINE",
"759 0 LINE"
);
},
{
closed = 1;
nodes = (
"558 885 LINE",
"550 862 OFFCURVE",
"533 845 OFFCURVE",
"507 845 CURVE SMOOTH",
"454 845 OFFCURVE",
"398 885 OFFCURVE",
"334 885 CURVE SMOOTH",
"250 885 OFFCURVE",
"194 814 OFFCURVE",
"194 742 CURVE",
"275 742 LINE",
"283 765 OFFCURVE",
"300 782 OFFCURVE",
"326 782 CURVE SMOOTH",
"379 782 OFFCURVE",
"435 742 OFFCURVE",
"499 742 CURVE SMOOTH",
"583 742 OFFCURVE",
"639 813 OFFCURVE",
"639 885 CURVE"
);
}
);
width = 833;
}
);
unicode = 00D1;
},
{
color = 0;
glyphname = O;
lastChange = "2013-12-03 22:31:02 +0000";
layers = (
{
anchors = (
{
name = top;
position = "{417, 688}";
}
);
layerId = "87647C87-E27A-4883-B22D-08F5E311E309";
paths = (
{
closed = 1;
nodes = (
"181 700 OFFCURVE",
"45 579 OFFCURVE",
"45 344 CURVE SMOOTH",
"45 109 OFFCURVE",
"181 -12 OFFCURVE",
"416 -12 CURVE SMOOTH",
"651 -12 OFFCURVE",
"788 109 OFFCURVE",
"788 344 CURVE SMOOTH",
"788 579 OFFCURVE",
"651 700 OFFCURVE",
"416 700 CURVE SMOOTH"
);
},
{
closed = 1;
nodes = (
"513 535 OFFCURVE",
"562 470 OFFCURVE",
"562 376 CURVE SMOOTH",
"562 312 LINE SMOOTH",
"562 218 OFFCURVE",
"513 153 OFFCURVE",
"416 153 CURVE SMOOTH",
"319 153 OFFCURVE",
"271 218 OFFCURVE",
"271 312 CURVE SMOOTH",
"271 376 LINE SMOOTH",
"271 470 OFFCURVE",
"319 535 OFFCURVE",
"416 535 CURVE SMOOTH"
);
}
);
width = 833;
}
);
unicode = 004F;
},
{
color = 0;
glyphname = Oacute;
lastChange = "2013-12-03 22:30:04 +0000";
layers = (
{
layerId = "87647C87-E27A-4883-B22D-08F5E311E309";
paths = (
{
closed = 1;
nodes = (
"181 700 OFFCURVE",
"45 579 OFFCURVE",
"45 344 CURVE SMOOTH",
"45 109 OFFCURVE",
"181 -12 OFFCURVE",
"416 -12 CURVE SMOOTH",
"651 -12 OFFCURVE",
"788 109 OFFCURVE",
"788 344 CURVE SMOOTH",
"788 579 OFFCURVE",
"651 700 OFFCURVE",
"416 700 CURVE SMOOTH"
);
},
{
closed = 1;
nodes = (
"513 535 OFFCURVE",
"562 470 OFFCURVE",
"562 376 CURVE SMOOTH",
"562 312 LINE SMOOTH",
"562 218 OFFCURVE",
"513 153 OFFCURVE",
"416 153 CURVE SMOOTH",
"319 153 OFFCURVE",
"271 218 OFFCURVE",
"271 312 CURVE SMOOTH",
"271 376 LINE SMOOTH",
"271 470 OFFCURVE",
"319 535 OFFCURVE",
"416 535 CURVE SMOOTH"
);
},
{
closed = 1;
nodes = (
"607 881 LINE",
"605 885 LINE",
"413 885 LINE",
"320 752 LINE",
"448 752 LINE"
);
}
);
width = 833;
}
);
unicode = 00D3;
},
{
color = 0;
glyphname = Obreve;
lastChange = "2013-12-03 22:30:04 +0000";
layers = (
{
layerId = "87647C87-E27A-4883-B22D-08F5E311E309";
paths = (
{
closed = 1;
nodes = (
"181 700 OFFCURVE",
"45 579 OFFCURVE",
"45 344 CURVE SMOOTH",
"45 109 OFFCURVE",
"181 -12 OFFCURVE",
"416 -12 CURVE SMOOTH",
"651 -12 OFFCURVE",
"788 109 OFFCURVE",
"788 344 CURVE SMOOTH",
"788 579 OFFCURVE",
"651 700 OFFCURVE",
"416 700 CURVE SMOOTH"
);
},
{
closed = 1;
nodes = (
"513 535 OFFCURVE",
"562 470 OFFCURVE",
"562 376 CURVE SMOOTH",
"562 312 LINE SMOOTH",
"562 218 OFFCURVE",
"513 153 OFFCURVE",
"416 153 CURVE SMOOTH",
"319 153 OFFCURVE",
"271 218 OFFCURVE",
"271 312 CURVE SMOOTH",
"271 376 LINE SMOOTH",
"271 470 OFFCURVE",
"319 535 OFFCURVE",
"416 535 CURVE SMOOTH"
);
},
{
closed = 1;
nodes = (
"506 885 LINE",
"502 864 OFFCURVE",
"466 835 OFFCURVE",
"416 835 CURVE SMOOTH",
"367 835 OFFCURVE",
"332 864 OFFCURVE",
"328 885 CURVE",
"232 885 LINE",
"232 818 OFFCURVE",
"301 741 OFFCURVE",
"416 741 CURVE SMOOTH",
"530 741 OFFCURVE",
"601 818 OFFCURVE",
"601 885 CURVE"
);
}
);
width = 833;
}
);
unicode = 014E;
},
{
color = 0;
glyphname = Ocircumflex;
lastChange = "2013-12-03 22:30:04 +0000";
layers = (
{
layerId = "87647C87-E27A-4883-B22D-08F5E311E309";
paths = (
{
closed = 1;
nodes = (
"181 700 OFFCURVE",
"45 579 OFFCURVE",
"45 344 CURVE SMOOTH",
"45 109 OFFCURVE",
"181 -12 OFFCURVE",
"416 -12 CURVE SMOOTH",
"651 -12 OFFCURVE",
"788 109 OFFCURVE",
"788 344 CURVE SMOOTH",
"788 579 OFFCURVE",
"651 700 OFFCURVE",
"416 700 CURVE SMOOTH"
);
},
{
closed = 1;
nodes = (
"513 535 OFFCURVE",
"562 470 OFFCURVE",
"562 376 CURVE SMOOTH",
"562 312 LINE SMOOTH",
"562 218 OFFCURVE",
"513 153 OFFCURVE",
"416 153 CURVE SMOOTH",
"319 153 OFFCURVE",
"271 218 OFFCURVE",
"271 312 CURVE SMOOTH",
"271 376 LINE SMOOTH",
"271 470 OFFCURVE",
"319 535 OFFCURVE",
"416 535 CURVE SMOOTH"
);
},
{
closed = 1;
nodes = (
"480 885 LINE",
"353 885 LINE",
"213 740 LINE",
"341 740 LINE",
"416 817 LINE",
"490 740 LINE",
"620 740 LINE"
);
}
);
width = 833;
}
);
unicode = 00D4;
},
{
color = 0;
glyphname = Odieresis;
lastChange = "2013-12-03 22:30:04 +0000";
layers = (
{
layerId = "87647C87-E27A-4883-B22D-08F5E311E309";
paths = (
{
closed = 1;
nodes = (
"181 700 OFFCURVE",
"45 579 OFFCURVE",
"45 344 CURVE SMOOTH",
"45 109 OFFCURVE",
"181 -12 OFFCURVE",
"416 -12 CURVE SMOOTH",
"651 -12 OFFCURVE",
"788 109 OFFCURVE",
"788 344 CURVE SMOOTH",
"788 579 OFFCURVE",
"651 700 OFFCURVE",
"416 700 CURVE SMOOTH"
);
},
{
closed = 1;
nodes = (
"513 535 OFFCURVE",
"562 470 OFFCURVE",
"562 376 CURVE SMOOTH",
"562 312 LINE SMOOTH",
"562 218 OFFCURVE",
"513 153 OFFCURVE",
"416 153 CURVE SMOOTH",
"319 153 OFFCURVE",
"271 218 OFFCURVE",
"271 312 CURVE SMOOTH",
"271 376 LINE SMOOTH",
"271 470 OFFCURVE",
"319 535 OFFCURVE",
"416 535 CURVE SMOOTH"
);
},
{
closed = 1;
nodes = (
"603 885 LINE",
"451 885 LINE",
"451 746 LINE",
"603 746 LINE"
);
},
{
closed = 1;
nodes = (
"382 885 LINE",
"230 885 LINE",
"230 746 LINE",
"382 746 LINE"
);
}
);
width = 833;
}
);
unicode = 00D6;
},
{
color = 0;
glyphname = Ograve;
lastChange = "2013-12-03 22:30:04 +0000";
layers = (
{
layerId = "87647C87-E27A-4883-B22D-08F5E311E309";
paths = (
{
closed = 1;
nodes = (
"181 700 OFFCURVE",
"45 579 OFFCURVE",
"45 344 CURVE SMOOTH",
"45 109 OFFCURVE",
"181 -12 OFFCURVE",
"416 -12 CURVE SMOOTH",
"651 -12 OFFCURVE",
"788 109 OFFCURVE",
"788 344 CURVE SMOOTH",
"788 579 OFFCURVE",
"651 700 OFFCURVE",
"416 700 CURVE SMOOTH"
);
},
{
closed = 1;
nodes = (
"513 535 OFFCURVE",
"562 470 OFFCURVE",
"562 376 CURVE SMOOTH",
"562 312 LINE SMOOTH",
"562 218 OFFCURVE",
"513 153 OFFCURVE",
"416 153 CURVE SMOOTH",
"319 153 OFFCURVE",
"271 218 OFFCURVE",
"271 312 CURVE SMOOTH",
"271 376 LINE SMOOTH",
"271 470 OFFCURVE",
"319 535 OFFCURVE",
"416 535 CURVE SMOOTH"
);
},
{
closed = 1;
nodes = (
"513 752 LINE",
"420 885 LINE",
"228 885 LINE",
"226 881 LINE",
"386 752 LINE"
);
}
);
width = 833;
}
);
unicode = 00D2;
},
{
color = 0;
glyphname = Ohungarumlaut;
lastChange = "2013-12-03 22:30:04 +0000";
layers = (
{
layerId = "87647C87-E27A-4883-B22D-08F5E311E309";
paths = (
{
closed = 1;
nodes = (
"181 700 OFFCURVE",
"45 579 OFFCURVE",
"45 344 CURVE SMOOTH",
"45 109 OFFCURVE",
"181 -12 OFFCURVE",
"416 -12 CURVE SMOOTH",
"651 -12 OFFCURVE",
"788 109 OFFCURVE",
"788 344 CURVE SMOOTH",
"788 579 OFFCURVE",
"651 700 OFFCURVE",
"416 700 CURVE SMOOTH"
);
},
{
closed = 1;
nodes = (
"513 535 OFFCURVE",
"562 470 OFFCURVE",
"562 376 CURVE SMOOTH",
"562 312 LINE SMOOTH",
"562 218 OFFCURVE",
"513 153 OFFCURVE",
"416 153 CURVE SMOOTH",
"319 153 OFFCURVE",
"271 218 OFFCURVE",
"271 312 CURVE SMOOTH",
"271 376 LINE SMOOTH",
"271 470 OFFCURVE",
"319 535 OFFCURVE",
"416 535 CURVE SMOOTH"
);
},
{
closed = 1;
nodes = (
"500 886 LINE",
"322 886 LINE",
"246 752 LINE",
"363 752 LINE",
"502 882 LINE"
);
},
{
closed = 1;
nodes = (
"711 886 LINE",
"533 886 LINE",
"457 752 LINE",
"574 752 LINE",
"713 882 LINE"
);
}
);
width = 833;
}
);
unicode = 0150;
},
{
color = 0;
glyphname = Omacron;
lastChange = "2013-12-03 22:30:04 +0000";
layers = (
{
layerId = "87647C87-E27A-4883-B22D-08F5E311E309";
paths = (
{
closed = 1;
nodes = (
"181 700 OFFCURVE",
"45 579 OFFCURVE",
"45 344 CURVE SMOOTH",
"45 109 OFFCURVE",
"181 -12 OFFCURVE",
"416 -12 CURVE SMOOTH",
"651 -12 OFFCURVE",
"788 109 OFFCURVE",
"788 344 CURVE SMOOTH",
"788 579 OFFCURVE",
"651 700 OFFCURVE",
"416 700 CURVE SMOOTH"
);
},
{
closed = 1;
nodes = (
"513 535 OFFCURVE",
"562 470 OFFCURVE",
"562 376 CURVE SMOOTH",
"562 312 LINE SMOOTH",
"562 218 OFFCURVE",
"513 153 OFFCURVE",
"416 153 CURVE SMOOTH",
"319 153 OFFCURVE",
"271 218 OFFCURVE",
"271 312 CURVE SMOOTH",
"271 376 LINE SMOOTH",
"271 470 OFFCURVE",
"319 535 OFFCURVE",
"416 535 CURVE SMOOTH"
);
},
{
closed = 1;
nodes = (
"575 865 LINE",
"258 865 LINE",
"258 765 LINE",
"575 765 LINE"
);
}
);
width = 833;
}
);
unicode = 014C;
},
{
color = 0;
glyphname = Oslash;
lastChange = "2013-12-03 22:31:02 +0000";
layers = (
{
anchors = (
{
name = top;
position = "{417, 688}";
}
);
layerId = "87647C87-E27A-4883-B22D-08F5E311E309";
paths = (
{
closed = 1;
nodes = (
"779 725 LINE",
"671 725 LINE",
"618 659 LINE",
"562 686 OFFCURVE",
"495 700 OFFCURVE",
"416 700 CURVE SMOOTH",
"181 700 OFFCURVE",
"45 579 OFFCURVE",
"45 344 CURVE SMOOTH",
"45 225 OFFCURVE",
"80 135 OFFCURVE",
"144 76 CURVE",
"54 -36 LINE",
"162 -36 LINE",
"214 28 LINE",
"269 1 OFFCURVE",
"337 -12 OFFCURVE",
"416 -12 CURVE SMOOTH",
"651 -12 OFFCURVE",
"788 109 OFFCURVE",
"788 344 CURVE SMOOTH",
"788 463 OFFCURVE",
"753 553 OFFCURVE",
"687 612 CURVE"
);
},
{
closed = 1;
nodes = (
"551 444 LINE",
"558 424 OFFCURVE",
"562 401 OFFCURVE",
"562 376 CURVE SMOOTH",
"562 312 LINE SMOOTH",
"562 218 OFFCURVE",
"513 153 OFFCURVE",
"416 153 CURVE SMOOTH",
"382 153 OFFCURVE",
"355 161 OFFCURVE",
"333 175 CURVE"
);
},
{
closed = 1;
nodes = (
"449 535 OFFCURVE",
"477 527 OFFCURVE",
"499 513 CURVE",
"281 244 LINE",
"274 264 OFFCURVE",
"271 287 OFFCURVE",
"271 312 CURVE SMOOTH",
"271 376 LINE SMOOTH",
"271 470 OFFCURVE",
"319 535 OFFCURVE",
"416 535 CURVE SMOOTH"
);
}
);
width = 833;
}
);
unicode = 00D8;
},
{
color = 0;
glyphname = Oslashacute;
lastChange = "2013-12-03 22:30:04 +0000";
layers = (
{
layerId = "87647C87-E27A-4883-B22D-08F5E311E309";
paths = (
{
closed = 1;
nodes = (
"779 725 LINE",
"671 725 LINE",
"618 659 LINE",
"562 686 OFFCURVE",
"495 700 OFFCURVE",
"416 700 CURVE SMOOTH",
"181 700 OFFCURVE",
"45 579 OFFCURVE",
"45 344 CURVE SMOOTH",
"45 225 OFFCURVE",
"80 135 OFFCURVE",
"144 76 CURVE",
"54 -36 LINE",
"162 -36 LINE",
"214 28 LINE",
"269 1 OFFCURVE",
"337 -12 OFFCURVE",
"416 -12 CURVE SMOOTH",
"651 -12 OFFCURVE",
"788 109 OFFCURVE",
"788 344 CURVE SMOOTH",
"788 463 OFFCURVE",
"753 553 OFFCURVE",
"687 612 CURVE"
);
},
{
closed = 1;
nodes = (
"551 444 LINE",
"558 424 OFFCURVE",
"562 401 OFFCURVE",
"562 376 CURVE SMOOTH",
"562 312 LINE SMOOTH",
"562 218 OFFCURVE",
"513 153 OFFCURVE",
"416 153 CURVE SMOOTH",
"382 153 OFFCURVE",
"355 161 OFFCURVE",
"333 175 CURVE"
);
},
{
closed = 1;
nodes = (
"449 535 OFFCURVE",
"477 527 OFFCURVE",
"499 513 CURVE",
"281 244 LINE",
"274 264 OFFCURVE",
"271 287 OFFCURVE",
"271 312 CURVE SMOOTH",
"271 376 LINE SMOOTH",
"271 470 OFFCURVE",
"319 535 OFFCURVE",
"416 535 CURVE SMOOTH"
);
},
{
closed = 1;
nodes = (
"607 881 LINE",
"605 885 LINE",
"413 885 LINE",
"320 752 LINE",
"448 752 LINE"
);
}
);
width = 833;
}
);
unicode = 01FE;
},
{
color = 0;
glyphname = Otilde;
lastChange = "2013-12-03 22:30:04 +0000";
layers = (
{
layerId = "87647C87-E27A-4883-B22D-08F5E311E309";
paths = (
{
closed = 1;
nodes = (
"181 700 OFFCURVE",
"45 579 OFFCURVE",
"45 344 CURVE SMOOTH",
"45 109 OFFCURVE",
"181 -12 OFFCURVE",
"416 -12 CURVE SMOOTH",
"651 -12 OFFCURVE",
"788 109 OFFCURVE",
"788 344 CURVE SMOOTH",
"788 579 OFFCURVE",
"651 700 OFFCURVE",
"416 700 CURVE SMOOTH"
);
},
{
closed = 1;
nodes = (
"513 535 OFFCURVE",
"562 470 OFFCURVE",
"562 376 CURVE SMOOTH",
"562 312 LINE SMOOTH",
"562 218 OFFCURVE",
"513 153 OFFCURVE",
"416 153 CURVE SMOOTH",
"319 153 OFFCURVE",
"271 218 OFFCURVE",
"271 312 CURVE SMOOTH",
"271 376 LINE SMOOTH",
"271 470 OFFCURVE",
"319 535 OFFCURVE",
"416 535 CURVE SMOOTH"
);
},
{
closed = 1;
nodes = (
"558 885 LINE",
"550 862 OFFCURVE",
"533 845 OFFCURVE",
"507 845 CURVE SMOOTH",
"454 845 OFFCURVE",
"398 885 OFFCURVE",
"334 885 CURVE SMOOTH",
"250 885 OFFCURVE",
"194 814 OFFCURVE",
"194 742 CURVE",
"275 742 LINE",
"283 765 OFFCURVE",
"300 782 OFFCURVE",
"326 782 CURVE SMOOTH",
"379 782 OFFCURVE",
"435 742 OFFCURVE",
"499 742 CURVE SMOOTH",
"583 742 OFFCURVE",
"639 813 OFFCURVE",
"639 885 CURVE"
);
}
);
width = 833;
}
);
unicode = 00D5;
},
{
color = 0;
glyphname = OE;
lastChange = "2013-12-03 22:31:02 +0000";
layers = (
{
anchors = (
{
name = top;
position = "{500, 688}";
}
);
layerId = "87647C87-E27A-4883-B22D-08F5E311E309";
paths = (
{
closed = 1;
nodes = (
"973 0 LINE",
"973 165 LINE",
"689 165 LINE",
"689 270 LINE",
"912 270 LINE",
"912 428 LINE",
"689 428 LINE",
"689 523 LINE",
"966 523 LINE",
"966 688 LINE",
"495 688 LINE",
"495 625 LINE",
"449 674 OFFCURVE",
"386 700 OFFCURVE",
"309 700 CURVE SMOOTH",
"134 700 OFFCURVE",
"35 569 OFFCURVE",
"35 344 CURVE SMOOTH",
"35 119 OFFCURVE",
"134 -12 OFFCURVE",
"309 -12 CURVE SMOOTH",
"386 -12 OFFCURVE",
"449 14 OFFCURVE",
"495 62 CURVE",
"495 0 LINE"
);
},
{
closed = 1;
nodes = (
"496 312 LINE SMOOTH",
"496 218 OFFCURVE",
"455 153 OFFCURVE",
"370 153 CURVE SMOOTH",
"285 153 OFFCURVE",
"244 218 OFFCURVE",
"244 312 CURVE SMOOTH",
"244 376 LINE SMOOTH",
"244 470 OFFCURVE",
"285 535 OFFCURVE",
"370 535 CURVE SMOOTH",
"455 535 OFFCURVE",
"496 470 OFFCURVE",
"496 376 CURVE SMOOTH"
);
}
);
width = 1000;
}
);
unicode = 0152;
},
{
color = 0;
glyphname = P;
lastChange = "2013-12-03 22:30:04 +0000";
layers = (
{
layerId = "87647C87-E27A-4883-B22D-08F5E311E309";
paths = (
{
closed = 1;
nodes = (
"74 688 LINE",
"74 0 LINE",
"295 0 LINE",
"295 222 LINE",
"460 222 LINE SMOOTH",
"590 222 OFFCURVE",
"680 319 OFFCURVE",
"680 449 CURVE SMOOTH",
"680 462 LINE SMOOTH",
"680 592 OFFCURVE",
"590 688 OFFCURVE",
"460 688 CURVE SMOOTH"
);
},
{
closed = 1;
nodes = (
"386 525 LINE SMOOTH",
"434 525 OFFCURVE",
"456 499 OFFCURVE",
"456 458 CURVE SMOOTH",
"456 450 LINE SMOOTH",
"456 409 OFFCURVE",
"433 383 OFFCURVE",
"386 383 CURVE SMOOTH",
"295 383 LINE",
"295 525 LINE"
);
}
);
width = 722;
}
);
unicode = 0050;
},
{
color = 0;
glyphname = Thorn;
lastChange = "2013-12-03 22:30:04 +0000";
layers = (
{
layerId = "87647C87-E27A-4883-B22D-08F5E311E309";
paths = (
{
closed = 1;
nodes = (
"295 688 LINE",
"74 688 LINE",
"74 0 LINE",
"295 0 LINE",
"295 122 LINE",
"460 122 LINE SMOOTH",
"590 122 OFFCURVE",
"680 219 OFFCURVE",
"680 349 CURVE SMOOTH",
"680 362 LINE SMOOTH",
"680 492 OFFCURVE",
"590 588 OFFCURVE",
"460 588 CURVE SMOOTH",
"295 588 LINE"
);
},
{
closed = 1;
nodes = (
"386 425 LINE SMOOTH",
"434 425 OFFCURVE",
"456 399 OFFCURVE",
"456 358 CURVE SMOOTH",
"456 350 LINE SMOOTH",
"456 309 OFFCURVE",
"433 283 OFFCURVE",
"386 283 CURVE SMOOTH",
"295 283 LINE",
"295 425 LINE"
);
}
);
width = 722;
}
);
unicode = 00DE;
},
{
color = 0;
glyphname = Q;
lastChange = "2013-12-03 22:30:04 +0000";
layers = (
{
layerId = "87647C87-E27A-4883-B22D-08F5E311E309";
paths = (
{
closed = 1;
nodes = (
"45 112 OFFCURVE",
"177 -8 OFFCURVE",
"406 -12 CURVE",
"512 -131 LINE",
"775 -131 LINE",
"618 28 LINE",
"727 82 OFFCURVE",
"788 188 OFFCURVE",
"788 344 CURVE SMOOTH",
"788 579 OFFCURVE",
"651 700 OFFCURVE",
"416 700 CURVE SMOOTH",
"181 700 OFFCURVE",
"45 579 OFFCURVE",
"45 344 CURVE SMOOTH"
);
},
{
closed = 1;
nodes = (
"562 312 LINE SMOOTH",
"562 218 OFFCURVE",
"513 153 OFFCURVE",
"416 153 CURVE SMOOTH",
"319 153 OFFCURVE",
"271 218 OFFCURVE",
"271 312 CURVE SMOOTH",
"271 376 LINE SMOOTH",
"271 470 OFFCURVE",
"319 535 OFFCURVE",
"416 535 CURVE SMOOTH",
"513 535 OFFCURVE",
"562 470 OFFCURVE",
"562 376 CURVE SMOOTH"
);
}
);
width = 833;
}
);
unicode = 0051;
},
{
color = 0;
glyphname = R;
lastChange = "2013-12-03 22:31:02 +0000";
layers = (
{
anchors = (
{
name = bottom;
position = "{389, 0}";
},
{
name = top;
position = "{389, 688}";
}
);
layerId = "87647C87-E27A-4883-B22D-08F5E311E309";
paths = (
{
closed = 1;
nodes = (
"727 589 OFFCURVE",
"648 688 OFFCURVE",
"495 688 CURVE SMOOTH",
"74 688 LINE",
"74 0 LINE",
"295 0 LINE",
"295 251 LINE",
"377 251 LINE",
"499 0 LINE",
"747 0 LINE",
"594 288 LINE",
"683 321 OFFCURVE",
"727 397 OFFCURVE",
"727 477 CURVE SMOOTH"
);
},
{
closed = 1;
nodes = (
"502 431 OFFCURVE",
"474 404 OFFCURVE",
"440 404 CURVE SMOOTH",
"295 404 LINE",
"295 531 LINE",
"440 531 LINE SMOOTH",
"474 531 OFFCURVE",
"502 505 OFFCURVE",
"502 468 CURVE SMOOTH"
);
}
);
width = 778;
}
);
unicode = 0052;
},
{
color = 0;
glyphname = Racute;
lastChange = "2013-12-03 22:30:04 +0000";
layers = (
{
layerId = "87647C87-E27A-4883-B22D-08F5E311E309";
paths = (
{
closed = 1;
nodes = (
"569 881 LINE",
"567 885 LINE",
"374 885 LINE",
"282 752 LINE",
"409 752 LINE"
);
},
{
closed = 1;
nodes = (
"727 589 OFFCURVE",
"648 688 OFFCURVE",
"495 688 CURVE SMOOTH",
"74 688 LINE",
"74 0 LINE",
"295 0 LINE",
"295 251 LINE",
"377 251 LINE",
"499 0 LINE",
"747 0 LINE",
"594 288 LINE",
"683 321 OFFCURVE",
"727 397 OFFCURVE",
"727 477 CURVE SMOOTH"
);
},
{
closed = 1;
nodes = (
"502 431 OFFCURVE",
"474 404 OFFCURVE",
"440 404 CURVE SMOOTH",
"295 404 LINE",
"295 531 LINE",
"440 531 LINE SMOOTH",
"474 531 OFFCURVE",
"502 505 OFFCURVE",
"502 468 CURVE SMOOTH"
);
}
);
width = 778;
}
);
unicode = 0154;
},
{
color = 0;
glyphname = Rcaron;
lastChange = "2013-12-03 22:30:04 +0000";
layers = (
{
layerId = "87647C87-E27A-4883-B22D-08F5E311E309";
paths = (
{
closed = 1;
nodes = (
"592 885 LINE",
"462 885 LINE",
"388 808 LINE",
"314 885 LINE",
"186 885 LINE",
"325 740 LINE",
"453 740 LINE"
);
},
{
closed = 1;
nodes = (
"727 589 OFFCURVE",
"648 688 OFFCURVE",
"495 688 CURVE SMOOTH",
"74 688 LINE",
"74 0 LINE",
"295 0 LINE",
"295 251 LINE",
"377 251 LINE",
"499 0 LINE",
"747 0 LINE",
"594 288 LINE",
"683 321 OFFCURVE",
"727 397 OFFCURVE",
"727 477 CURVE SMOOTH"
);
},
{
closed = 1;
nodes = (
"502 431 OFFCURVE",
"474 404 OFFCURVE",
"440 404 CURVE SMOOTH",
"295 404 LINE",
"295 531 LINE",
"440 531 LINE SMOOTH",
"474 531 OFFCURVE",
"502 505 OFFCURVE",
"502 468 CURVE SMOOTH"
);
}
);
width = 778;
}
);
unicode = 0158;
},
{
color = 0;
glyphname = Rcommaaccent;
lastChange = "2013-12-03 22:30:04 +0000";
layers = (
{
layerId = "87647C87-E27A-4883-B22D-08F5E311E309";
paths = (
{
closed = 1;
nodes = (
"454 -59 LINE",
"324 -59 LINE",
"324 -175 LINE",
"374 -175 LINE",
"333 -267 LINE",
"400 -267 LINE",
"454 -168 LINE"
);
},
{
closed = 1;
nodes = (
"727 589 OFFCURVE",
"648 688 OFFCURVE",
"495 688 CURVE SMOOTH",
"74 688 LINE",
"74 0 LINE",
"295 0 LINE",
"295 251 LINE",
"377 251 LINE",
"499 0 LINE",
"747 0 LINE",
"594 288 LINE",
"683 321 OFFCURVE",
"727 397 OFFCURVE",
"727 477 CURVE SMOOTH"
);
},
{
closed = 1;
nodes = (
"502 431 OFFCURVE",
"474 404 OFFCURVE",
"440 404 CURVE SMOOTH",
"295 404 LINE",
"295 531 LINE",
"440 531 LINE SMOOTH",
"474 531 OFFCURVE",
"502 505 OFFCURVE",
"502 468 CURVE SMOOTH"
);
}
);
width = 778;
}
);
unicode = 0156;
},
{
color = 0;
glyphname = S;
lastChange = "2013-12-03 22:31:02 +0000";
layers = (
{
anchors = (
{
name = bottom;
position = "{361, 0}";
},
{
name = top;
position = "{361, 688}";
}
);
layerId = "87647C87-E27A-4883-B22D-08F5E311E309";
paths = (
{
closed = 1;
nodes = (
"200 700 OFFCURVE",
"54 640 OFFCURVE",
"54 480 CURVE SMOOTH",
"54 212 OFFCURVE",
"460 291 OFFCURVE",
"460 192 CURVE SMOOTH",
"460 149 OFFCURVE",
"403 146 OFFCURVE",
"363 146 CURVE SMOOTH",
"295 146 OFFCURVE",
"252 159 OFFCURVE",
"252 233 CURVE",
"43 233 LINE",
"43 37 OFFCURVE",
"190 -12 OFFCURVE",
"383 -12 CURVE SMOOTH",
"556 -12 OFFCURVE",
"686 57 OFFCURVE",
"686 228 CURVE",
"681 483 OFFCURVE",
"280 402 OFFCURVE",
"280 505 CURVE SMOOTH",
"280 529 OFFCURVE",
"310 550 OFFCURVE",
"371 550 CURVE SMOOTH",
"435 550 OFFCURVE",
"460 516 OFFCURVE",
"460 480 CURVE SMOOTH",
"460 476 LINE",
"667 476 LINE",
"667 488 LINE",
"664 635 OFFCURVE",
"529 700 OFFCURVE",
"363 700 CURVE SMOOTH"
);
}
);
width = 722;
}
);
unicode = 0053;
},
{
color = 0;
glyphname = Sacute;
lastChange = "2013-12-03 22:30:04 +0000";
layers = (
{
layerId = "87647C87-E27A-4883-B22D-08F5E311E309";
paths = (
{
closed = 1;
nodes = (
"200 700 OFFCURVE",
"54 640 OFFCURVE",
"54 480 CURVE SMOOTH",
"54 212 OFFCURVE",
"460 291 OFFCURVE",
"460 192 CURVE SMOOTH",
"460 149 OFFCURVE",
"403 146 OFFCURVE",
"363 146 CURVE SMOOTH",
"295 146 OFFCURVE",
"252 159 OFFCURVE",
"252 233 CURVE",
"43 233 LINE",
"43 37 OFFCURVE",
"190 -12 OFFCURVE",
"383 -12 CURVE SMOOTH",
"556 -12 OFFCURVE",
"686 57 OFFCURVE",
"686 228 CURVE",
"681 483 OFFCURVE",
"280 402 OFFCURVE",
"280 505 CURVE SMOOTH",
"280 529 OFFCURVE",
"310 550 OFFCURVE",
"371 550 CURVE SMOOTH",
"435 550 OFFCURVE",
"460 516 OFFCURVE",
"460 480 CURVE SMOOTH",
"460 476 LINE",
"667 476 LINE",
"667 488 LINE",
"664 635 OFFCURVE",
"529 700 OFFCURVE",
"363 700 CURVE SMOOTH"
);
},
{
closed = 1;
nodes = (
"552 881 LINE",
"550 885 LINE",
"357 885 LINE",
"265 752 LINE",
"393 752 LINE"
);
}
);
width = 722;
}
);
unicode = 015A;
},
{
color = 0;
glyphname = Scaron;
lastChange = "2013-12-03 22:30:04 +0000";
layers = (
{
layerId = "87647C87-E27A-4883-B22D-08F5E311E309";
paths = (
{
closed = 1;
nodes = (
"200 700 OFFCURVE",
"54 640 OFFCURVE",
"54 480 CURVE SMOOTH",
"54 212 OFFCURVE",
"460 291 OFFCURVE",
"460 192 CURVE SMOOTH",
"460 149 OFFCURVE",
"403 146 OFFCURVE",
"363 146 CURVE SMOOTH",
"295 146 OFFCURVE",
"252 159 OFFCURVE",
"252 233 CURVE",
"43 233 LINE",
"43 37 OFFCURVE",
"190 -12 OFFCURVE",
"383 -12 CURVE SMOOTH",
"556 -12 OFFCURVE",
"686 57 OFFCURVE",
"686 228 CURVE",
"681 483 OFFCURVE",
"280 402 OFFCURVE",
"280 505 CURVE SMOOTH",
"280 529 OFFCURVE",
"310 550 OFFCURVE",
"371 550 CURVE SMOOTH",
"435 550 OFFCURVE",
"460 516 OFFCURVE",
"460 480 CURVE SMOOTH",
"460 476 LINE",
"667 476 LINE",
"667 488 LINE",
"664 635 OFFCURVE",
"529 700 OFFCURVE",
"363 700 CURVE SMOOTH"
);
},
{
closed = 1;
nodes = (
"564 885 LINE",
"435 885 LINE",
"360 808 LINE",
"286 885 LINE",
"158 885 LINE",
"297 740 LINE",
"425 740 LINE"
);
}
);
width = 722;
}
);
unicode = 0160;
},
{
color = 0;
glyphname = Scedilla;
lastChange = "2013-12-03 22:30:04 +0000";
layers = (
{
layerId = "87647C87-E27A-4883-B22D-08F5E311E309";
paths = (
{
closed = 1;
nodes = (
"200 700 OFFCURVE",
"54 640 OFFCURVE",
"54 480 CURVE SMOOTH",
"54 212 OFFCURVE",
"460 291 OFFCURVE",
"460 192 CURVE SMOOTH",
"460 149 OFFCURVE",
"403 146 OFFCURVE",
"363 146 CURVE SMOOTH",
"295 146 OFFCURVE",
"252 159 OFFCURVE",
"252 233 CURVE",
"43 233 LINE",
"43 55 OFFCURVE",
"165 -2 OFFCURVE",
"332 -11 CURVE",
"320 -86 LINE",
"358 -86 LINE SMOOTH",
"387 -86 OFFCURVE",
"396 -98 OFFCURVE",
"396 -118 CURVE SMOOTH",
"396 -141 OFFCURVE",
"380 -149 OFFCURVE",
"356 -149 CURVE SMOOTH",
"304 -149 OFFCURVE",
"239 -141 OFFCURVE",
"239 -141 CURVE",
"239 -195 LINE",
"269 -205 OFFCURVE",
"319 -211 OFFCURVE",
"365 -211 CURVE SMOOTH",
"412 -211 OFFCURVE",
"483 -194 OFFCURVE",
"483 -118 CURVE SMOOTH",
"483 -56 OFFCURVE",
"439 -34 OFFCURVE",
"391 -29 CURVE",
"393 -12 LINE",
"561 -9 OFFCURVE",
"686 61 OFFCURVE",
"686 228 CURVE",
"681 483 OFFCURVE",
"280 402 OFFCURVE",
"280 505 CURVE SMOOTH",
"280 529 OFFCURVE",
"310 550 OFFCURVE",
"371 550 CURVE SMOOTH",
"435 550 OFFCURVE",
"460 516 OFFCURVE",
"460 480 CURVE SMOOTH",
"460 476 LINE",
"667 476 LINE",
"667 488 LINE",
"664 635 OFFCURVE",
"529 700 OFFCURVE",
"363 700 CURVE SMOOTH"
);
}
);
width = 722;
}
);
unicode = 015E;
},
{
color = 0;
glyphname = Scircumflex;
lastChange = "2013-12-03 22:30:04 +0000";
layers = (
{
layerId = "87647C87-E27A-4883-B22D-08F5E311E309";
paths = (
{
closed = 1;
nodes = (
"200 700 OFFCURVE",
"54 640 OFFCURVE",
"54 480 CURVE SMOOTH",
"54 212 OFFCURVE",
"460 291 OFFCURVE",
"460 192 CURVE SMOOTH",
"460 149 OFFCURVE",
"403 146 OFFCURVE",
"363 146 CURVE SMOOTH",
"295 146 OFFCURVE",
"252 159 OFFCURVE",
"252 233 CURVE",
"43 233 LINE",
"43 37 OFFCURVE",
"190 -12 OFFCURVE",
"383 -12 CURVE SMOOTH",
"556 -12 OFFCURVE",
"686 57 OFFCURVE",
"686 228 CURVE",
"681 483 OFFCURVE",
"280 402 OFFCURVE",
"280 505 CURVE SMOOTH",
"280 529 OFFCURVE",
"310 550 OFFCURVE",
"371 550 CURVE SMOOTH",
"435 550 OFFCURVE",
"460 516 OFFCURVE",
"460 480 CURVE SMOOTH",
"460 476 LINE",
"667 476 LINE",
"667 488 LINE",
"664 635 OFFCURVE",
"529 700 OFFCURVE",
"363 700 CURVE SMOOTH"
);
},
{
closed = 1;
nodes = (
"425 885 LINE",
"297 885 LINE",
"158 740 LINE",
"286 740 LINE",
"360 817 LINE",
"435 740 LINE",
"564 740 LINE"
);
}
);
width = 722;
}
);
unicode = 015C;
},
{
color = 0;
glyphname = T;
lastChange = "2013-12-03 22:31:02 +0000";
layers = (
{
anchors = (
{
name = bottom;
position = "{361, 0}";
},
{
name = center;
position = "{361, 344}";
},
{
name = top;
position = "{361, 688}";
}
);
layerId = "87647C87-E27A-4883-B22D-08F5E311E309";
paths = (
{
closed = 1;
nodes = (
"695 688 LINE",
"23 688 LINE",
"23 512 LINE",
"249 512 LINE",
"249 0 LINE",
"470 0 LINE",
"470 512 LINE",
"695 512 LINE"
);
}
);
width = 722;
}
);
unicode = 0054;
},
{
color = 0;
glyphname = Tbar;
lastChange = "2013-12-03 22:30:04 +0000";
layers = (
{
layerId = "87647C87-E27A-4883-B22D-08F5E311E309";
paths = (
{
closed = 1;
nodes = (
"632 369 LINE",
"470 369 LINE",
"470 512 LINE",
"695 512 LINE",
"695 688 LINE",
"23 688 LINE",
"23 512 LINE",
"249 512 LINE",
"249 369 LINE",
"86 369 LINE",
"86 269 LINE",
"249 269 LINE",
"249 0 LINE",
"470 0 LINE",
"470 269 LINE",
"632 269 LINE"
);
}
);
width = 722;
}
);
unicode = 0166;
},
{
color = 0;
glyphname = Tcaron;
lastChange = "2013-12-03 22:30:04 +0000";
layers = (
{
layerId = "87647C87-E27A-4883-B22D-08F5E311E309";
paths = (
{
closed = 1;
nodes = (
"695 688 LINE",
"23 688 LINE",
"23 512 LINE",
"249 512 LINE",
"249 0 LINE",
"470 0 LINE",
"470 512 LINE",
"695 512 LINE"
);
},
{
closed = 1;
nodes = (
"564 885 LINE",
"435 885 LINE",
"360 808 LINE",
"286 885 LINE",
"158 885 LINE",
"297 740 LINE",
"425 740 LINE"
);
}
);
width = 722;
}
);
unicode = 0164;
},
{
color = 0;
glyphname = Tcommaaccent;
lastChange = "2013-12-03 22:30:04 +0000";
layers = (
{
layerId = "87647C87-E27A-4883-B22D-08F5E311E309";
paths = (
{
closed = 1;
nodes = (
"695 688 LINE",
"23 688 LINE",
"23 512 LINE",
"249 512 LINE",
"249 0 LINE",
"470 0 LINE",
"470 512 LINE",
"695 512 LINE"
);
},
{
closed = 1;
nodes = (
"426 -59 LINE",
"296 -59 LINE",
"296 -175 LINE",
"346 -175 LINE",
"305 -267 LINE",
"372 -267 LINE",
"426 -168 LINE"
);
}
);
width = 722;
}
);
unicode = 021A;
},
{
color = 0;
glyphname = U;
lastChange = "2013-12-03 22:31:02 +0000";
layers = (
{
anchors = (
{
name = ogonek;
position = "{750, 10}";
},
{
name = top;
position = "{417, 688}";
}
);
layerId = "87647C87-E27A-4883-B22D-08F5E311E309";
paths = (
{
closed = 1;
nodes = (
"759 688 LINE",
"538 688 LINE",
"538 280 LINE SMOOTH",
"538 206 OFFCURVE",
"497 153 OFFCURVE",
"416 153 CURVE SMOOTH",
"335 153 OFFCURVE",
"295 206 OFFCURVE",
"295 280 CURVE SMOOTH",
"295 688 LINE",
"74 688 LINE",
"74 277 LINE SMOOTH",
"74 87 OFFCURVE",
"201 -12 OFFCURVE",
"417 -12 CURVE SMOOTH",
"633 -12 OFFCURVE",
"759 87 OFFCURVE",
"759 277 CURVE SMOOTH"
);
}
);
width = 833;
}
);
unicode = 0055;
},
{
color = 0;
glyphname = Uacute;
lastChange = "2013-12-03 22:30:04 +0000";
layers = (
{
layerId = "87647C87-E27A-4883-B22D-08F5E311E309";
paths = (
{
closed = 1;
nodes = (
"759 688 LINE",
"538 688 LINE",
"538 280 LINE SMOOTH",
"538 206 OFFCURVE",
"497 153 OFFCURVE",
"416 153 CURVE SMOOTH",
"335 153 OFFCURVE",
"295 206 OFFCURVE",
"295 280 CURVE SMOOTH",
"295 688 LINE",
"74 688 LINE",
"74 277 LINE SMOOTH",
"74 87 OFFCURVE",
"201 -12 OFFCURVE",
"417 -12 CURVE SMOOTH",
"633 -12 OFFCURVE",
"759 87 OFFCURVE",
"759 277 CURVE SMOOTH"
);
},
{
closed = 1;
nodes = (
"607 881 LINE",
"605 885 LINE",
"413 885 LINE",
"320 752 LINE",
"448 752 LINE"
);
}
);
width = 833;
}
);
unicode = 00DA;
},
{
color = 0;
glyphname = Ubreve;
lastChange = "2013-12-03 22:30:04 +0000";
layers = (
{
layerId = "87647C87-E27A-4883-B22D-08F5E311E309";
paths = (
{
closed = 1;
nodes = (
"759 688 LINE",
"538 688 LINE",
"538 280 LINE SMOOTH",
"538 206 OFFCURVE",
"497 153 OFFCURVE",
"416 153 CURVE SMOOTH",
"335 153 OFFCURVE",
"295 206 OFFCURVE",
"295 280 CURVE SMOOTH",
"295 688 LINE",
"74 688 LINE",
"74 277 LINE SMOOTH",
"74 87 OFFCURVE",
"201 -12 OFFCURVE",
"417 -12 CURVE SMOOTH",
"633 -12 OFFCURVE",
"759 87 OFFCURVE",
"759 277 CURVE SMOOTH"
);
},
{
closed = 1;
nodes = (
"506 885 LINE",
"502 864 OFFCURVE",
"466 835 OFFCURVE",
"416 835 CURVE SMOOTH",
"367 835 OFFCURVE",
"332 864 OFFCURVE",
"328 885 CURVE",
"232 885 LINE",
"232 818 OFFCURVE",
"301 741 OFFCURVE",
"416 741 CURVE SMOOTH",
"530 741 OFFCURVE",
"601 818 OFFCURVE",
"601 885 CURVE"
);
}
);
width = 833;
}
);
unicode = 016C;
},
{
color = 0;
glyphname = Ucircumflex;
lastChange = "2013-12-03 22:30:04 +0000";
layers = (
{
layerId = "87647C87-E27A-4883-B22D-08F5E311E309";
paths = (
{
closed = 1;
nodes = (
"759 688 LINE",
"538 688 LINE",
"538 280 LINE SMOOTH",
"538 206 OFFCURVE",
"497 153 OFFCURVE",
"416 153 CURVE SMOOTH",
"335 153 OFFCURVE",
"295 206 OFFCURVE",
"295 280 CURVE SMOOTH",
"295 688 LINE",
"74 688 LINE",
"74 277 LINE SMOOTH",
"74 87 OFFCURVE",
"201 -12 OFFCURVE",
"417 -12 CURVE SMOOTH",
"633 -12 OFFCURVE",
"759 87 OFFCURVE",
"759 277 CURVE SMOOTH"
);
},
{
closed = 1;
nodes = (
"480 885 LINE",
"353 885 LINE",
"213 740 LINE",
"341 740 LINE",
"416 817 LINE",
"490 740 LINE",
"620 740 LINE"
);
}
);
width = 833;
}
);
unicode = 00DB;
},
{
color = 0;
glyphname = Udieresis;
lastChange = "2013-12-03 22:30:04 +0000";
layers = (
{
layerId = "87647C87-E27A-4883-B22D-08F5E311E309";
paths = (
{
closed = 1;
nodes = (
"759 688 LINE",
"538 688 LINE",
"538 280 LINE SMOOTH",
"538 206 OFFCURVE",
"497 153 OFFCURVE",
"416 153 CURVE SMOOTH",
"335 153 OFFCURVE",
"295 206 OFFCURVE",
"295 280 CURVE SMOOTH",
"295 688 LINE",
"74 688 LINE",
"74 277 LINE SMOOTH",
"74 87 OFFCURVE",
"201 -12 OFFCURVE",
"417 -12 CURVE SMOOTH",
"633 -12 OFFCURVE",
"759 87 OFFCURVE",
"759 277 CURVE SMOOTH"
);
},
{
closed = 1;
nodes = (
"603 885 LINE",
"451 885 LINE",
"451 746 LINE",
"603 746 LINE"
);
},
{
closed = 1;
nodes = (
"382 885 LINE",
"230 885 LINE",
"230 746 LINE",
"382 746 LINE"
);
}
);
width = 833;
}
);
unicode = 00DC;
},
{
color = 0;
glyphname = Ugrave;
lastChange = "2013-12-03 22:30:04 +0000";
layers = (
{
layerId = "87647C87-E27A-4883-B22D-08F5E311E309";
paths = (
{
closed = 1;
nodes = (
"759 688 LINE",
"538 688 LINE",
"538 280 LINE SMOOTH",
"538 206 OFFCURVE",
"497 153 OFFCURVE",
"416 153 CURVE SMOOTH",
"335 153 OFFCURVE",
"295 206 OFFCURVE",
"295 280 CURVE SMOOTH",
"295 688 LINE",
"74 688 LINE",
"74 277 LINE SMOOTH",
"74 87 OFFCURVE",
"201 -12 OFFCURVE",
"417 -12 CURVE SMOOTH",
"633 -12 OFFCURVE",
"759 87 OFFCURVE",
"759 277 CURVE SMOOTH"
);
},
{
closed = 1;
nodes = (
"513 752 LINE",
"420 885 LINE",
"228 885 LINE",
"226 881 LINE",
"386 752 LINE"
);
}
);
width = 833;
}
);
unicode = 00D9;
},
{
color = 0;
glyphname = Uhungarumlaut;
lastChange = "2013-12-03 22:30:04 +0000";
layers = (
{
layerId = "87647C87-E27A-4883-B22D-08F5E311E309";
paths = (
{
closed = 1;
nodes = (
"759 688 LINE",
"538 688 LINE",
"538 280 LINE SMOOTH",
"538 206 OFFCURVE",
"497 153 OFFCURVE",
"416 153 CURVE SMOOTH",
"335 153 OFFCURVE",
"295 206 OFFCURVE",
"295 280 CURVE SMOOTH",
"295 688 LINE",
"74 688 LINE",
"74 277 LINE SMOOTH",
"74 87 OFFCURVE",
"201 -12 OFFCURVE",
"417 -12 CURVE SMOOTH",
"633 -12 OFFCURVE",
"759 87 OFFCURVE",
"759 277 CURVE SMOOTH"
);
},
{
closed = 1;
nodes = (
"500 886 LINE",
"322 886 LINE",
"246 752 LINE",
"363 752 LINE",
"502 882 LINE"
);
},
{
closed = 1;
nodes = (
"711 886 LINE",
"533 886 LINE",
"457 752 LINE",
"574 752 LINE",
"713 882 LINE"
);
}
);
width = 833;
}
);
unicode = 0170;
},
{
color = 0;
glyphname = Umacron;
lastChange = "2013-12-03 22:30:04 +0000";
layers = (
{
layerId = "87647C87-E27A-4883-B22D-08F5E311E309";
paths = (
{
closed = 1;
nodes = (
"759 688 LINE",
"538 688 LINE",
"538 280 LINE SMOOTH",
"538 206 OFFCURVE",
"497 153 OFFCURVE",
"416 153 CURVE SMOOTH",
"335 153 OFFCURVE",
"295 206 OFFCURVE",
"295 280 CURVE SMOOTH",
"295 688 LINE",
"74 688 LINE",
"74 277 LINE SMOOTH",
"74 87 OFFCURVE",
"201 -12 OFFCURVE",
"417 -12 CURVE SMOOTH",
"633 -12 OFFCURVE",
"759 87 OFFCURVE",
"759 277 CURVE SMOOTH"
);
},
{
closed = 1;
nodes = (
"575 865 LINE",
"258 865 LINE",
"258 765 LINE",
"575 765 LINE"
);
}
);
width = 833;
}
);
unicode = 016A;
},
{
color = 0;
glyphname = Uogonek;
lastChange = "2013-12-03 22:30:04 +0000";
layers = (
{
layerId = "87647C87-E27A-4883-B22D-08F5E311E309";
paths = (
{
closed = 1;
nodes = (
"759 688 LINE",
"538 688 LINE",
"538 280 LINE SMOOTH",
"538 206 OFFCURVE",
"497 153 OFFCURVE",
"416 153 CURVE SMOOTH",
"335 153 OFFCURVE",
"295 206 OFFCURVE",
"295 280 CURVE SMOOTH",
"295 688 LINE",
"74 688 LINE",
"74 277 LINE SMOOTH",
"74 87 OFFCURVE",
"201 -12 OFFCURVE",
"417 -12 CURVE SMOOTH",
"430 -12 OFFCURVE",
"443 -12 OFFCURVE",
"456 -11 CURVE",
"438 -34 OFFCURVE",
"424 -61 OFFCURVE",
"424 -97 CURVE SMOOTH",
"424 -179 OFFCURVE",
"486 -211 OFFCURVE",
"550 -211 CURVE SMOOTH",
"583 -211 OFFCURVE",
"615 -206 OFFCURVE",
"646 -196 CURVE",
"646 -120 LINE",
"604 -120 LINE SMOOTH",
"559 -120 OFFCURVE",
"544 -95 OFFCURVE",
"544 -69 CURVE SMOOTH",
"544 -40 OFFCURVE",
"556 -7 OFFCURVE",
"563 7 CURVE",
"688 44 OFFCURVE",
"759 135 OFFCURVE",
"759 277 CURVE SMOOTH"
);
}
);
width = 833;
}
);
unicode = 0172;
},
{
color = 0;
glyphname = Uring;
lastChange = "2013-12-03 22:30:04 +0000";
layers = (
{
layerId = "87647C87-E27A-4883-B22D-08F5E311E309";
paths = (
{
closed = 1;
nodes = (
"759 688 LINE",
"538 688 LINE",
"538 280 LINE SMOOTH",
"538 206 OFFCURVE",
"497 153 OFFCURVE",
"416 153 CURVE SMOOTH",
"335 153 OFFCURVE",
"295 206 OFFCURVE",
"295 280 CURVE SMOOTH",
"295 688 LINE",
"74 688 LINE",
"74 277 LINE SMOOTH",
"74 87 OFFCURVE",
"201 -12 OFFCURVE",
"417 -12 CURVE SMOOTH",
"633 -12 OFFCURVE",
"759 87 OFFCURVE",
"759 277 CURVE SMOOTH"
);
},
{
closed = 1;
nodes = (
"356 954 OFFCURVE",
"308 905 OFFCURVE",
"308 845 CURVE SMOOTH",
"308 785 OFFCURVE",
"357 737 OFFCURVE",
"417 737 CURVE SMOOTH",
"477 737 OFFCURVE",
"525 786 OFFCURVE",
"525 845 CURVE SMOOTH",
"525 906 OFFCURVE",
"476 954 OFFCURVE",
"417 954 CURVE SMOOTH"
);
},
{
closed = 1;
nodes = (
"439 885 OFFCURVE",
"457 869 OFFCURVE",
"457 846 CURVE SMOOTH",
"457 822 OFFCURVE",
"440 805 OFFCURVE",
"417 805 CURVE SMOOTH",
"394 805 OFFCURVE",
"376 821 OFFCURVE",
"376 844 CURVE SMOOTH",
"376 868 OFFCURVE",
"393 885 OFFCURVE",
"417 885 CURVE SMOOTH"
);
}
);
width = 833;
}
);
unicode = 016E;
},
{
color = 0;
glyphname = Utilde;
lastChange = "2013-12-03 22:30:04 +0000";
layers = (
{
layerId = "87647C87-E27A-4883-B22D-08F5E311E309";
paths = (
{
closed = 1;
nodes = (
"759 688 LINE",
"538 688 LINE",
"538 280 LINE SMOOTH",
"538 206 OFFCURVE",
"497 153 OFFCURVE",
"416 153 CURVE SMOOTH",
"335 153 OFFCURVE",
"295 206 OFFCURVE",
"295 280 CURVE SMOOTH",
"295 688 LINE",
"74 688 LINE",
"74 277 LINE SMOOTH",
"74 87 OFFCURVE",
"201 -12 OFFCURVE",
"417 -12 CURVE SMOOTH",
"633 -12 OFFCURVE",
"759 87 OFFCURVE",
"759 277 CURVE SMOOTH"
);
},
{
closed = 1;
nodes = (
"558 885 LINE",
"550 862 OFFCURVE",
"533 845 OFFCURVE",
"507 845 CURVE SMOOTH",
"454 845 OFFCURVE",
"398 885 OFFCURVE",
"334 885 CURVE SMOOTH",
"250 885 OFFCURVE",
"194 814 OFFCURVE",
"194 742 CURVE",
"275 742 LINE",
"283 765 OFFCURVE",
"300 782 OFFCURVE",
"326 782 CURVE SMOOTH",
"379 782 OFFCURVE",
"435 742 OFFCURVE",
"499 742 CURVE SMOOTH",
"583 742 OFFCURVE",
"639 813 OFFCURVE",
"639 885 CURVE"
);
}
);
width = 833;
}
);
unicode = 0168;
},
{
color = 0;
glyphname = V;
lastChange = "2013-12-03 22:30:04 +0000";
layers = (
{
layerId = "87647C87-E27A-4883-B22D-08F5E311E309";
paths = (
{
closed = 1;
nodes = (
"760 688 LINE",
"534 688 LINE",
"395 228 LINE",
"391 228 LINE",
"253 688 LINE",
"17 688 LINE",
"261 0 LINE",
"517 0 LINE"
);
}
);
width = 778;
}
);
unicode = 0056;
},
{
color = 0;
glyphname = W;
lastChange = "2013-12-03 22:31:02 +0000";
layers = (
{
anchors = (
{
name = top;
position = "{500, 688}";
}
);
layerId = "87647C87-E27A-4883-B22D-08F5E311E309";
paths = (
{
closed = 1;
nodes = (
"995 688 LINE",
"775 688 LINE",
"701 298 LINE",
"697 298 LINE",
"614 688 LINE",
"396 688 LINE",
"318 298 LINE",
"314 298 LINE",
"235 688 LINE",
"5 688 LINE",
"166 0 LINE",
"409 0 LINE",
"498 419 LINE",
"502 419 LINE",
"591 0 LINE",
"834 0 LINE"
);
}
);
width = 1000;
}
);
unicode = 0057;
},
{
color = 0;
glyphname = Wacute;
lastChange = "2013-12-03 22:30:04 +0000";
layers = (
{
layerId = "87647C87-E27A-4883-B22D-08F5E311E309";
paths = (
{
closed = 1;
nodes = (
"834 0 LINE",
"995 688 LINE",
"775 688 LINE",
"701 298 LINE",
"697 298 LINE",
"614 688 LINE",
"396 688 LINE",
"318 298 LINE",
"314 298 LINE",
"235 688 LINE",
"5 688 LINE",
"166 0 LINE",
"409 0 LINE",
"498 419 LINE",
"502 419 LINE",
"591 0 LINE"
);
},
{
closed = 1;
nodes = (
"691 881 LINE",
"689 885 LINE",
"496 885 LINE",
"404 752 LINE",
"531 752 LINE"
);
}
);
width = 1000;
}
);
unicode = 1E82;
},
{
color = 0;
glyphname = Wcircumflex;
lastChange = "2013-12-03 22:30:04 +0000";
layers = (
{
layerId = "87647C87-E27A-4883-B22D-08F5E311E309";
paths = (
{
closed = 1;
nodes = (
"995 688 LINE",
"775 688 LINE",
"701 298 LINE",
"697 298 LINE",
"614 688 LINE",
"396 688 LINE",
"318 298 LINE",
"314 298 LINE",
"235 688 LINE",
"5 688 LINE",
"166 0 LINE",
"409 0 LINE",
"498 419 LINE",
"502 419 LINE",
"591 0 LINE",
"834 0 LINE"
);
},
{
closed = 1;
nodes = (
"564 885 LINE",
"436 885 LINE",
"297 740 LINE",
"425 740 LINE",
"499 817 LINE",
"573 740 LINE",
"703 740 LINE"
);
}
);
width = 1000;
}
);
unicode = 0174;
},
{
color = 0;
glyphname = Wdieresis;
lastChange = "2013-12-03 22:30:04 +0000";
layers = (
{
layerId = "87647C87-E27A-4883-B22D-08F5E311E309";
paths = (
{
closed = 1;
nodes = (
"995 688 LINE",
"775 688 LINE",
"701 298 LINE",
"697 298 LINE",
"614 688 LINE",
"396 688 LINE",
"318 298 LINE",
"314 298 LINE",
"235 688 LINE",
"5 688 LINE",
"166 0 LINE",
"409 0 LINE",
"498 419 LINE",
"502 419 LINE",
"591 0 LINE",
"834 0 LINE"
);
},
{
closed = 1;
nodes = (
"686 885 LINE",
"534 885 LINE",
"534 746 LINE",
"686 746 LINE"
);
},
{
closed = 1;
nodes = (
"466 885 LINE",
"314 885 LINE",
"314 746 LINE",
"466 746 LINE"
);
}
);
width = 1000;
}
);
unicode = 1E84;
},
{
color = 0;
glyphname = Wgrave;
lastChange = "2013-12-03 22:30:04 +0000";
layers = (
{
layerId = "87647C87-E27A-4883-B22D-08F5E311E309";
paths = (
{
closed = 1;
nodes = (
"834 0 LINE",
"995 688 LINE",
"775 688 LINE",
"701 298 LINE",
"697 298 LINE",
"614 688 LINE",
"396 688 LINE",
"318 298 LINE",
"314 298 LINE",
"235 688 LINE",
"5 688 LINE",
"166 0 LINE",
"409 0 LINE",
"498 419 LINE",
"502 419 LINE",
"591 0 LINE"
);
},
{
closed = 1;
nodes = (
"596 752 LINE",
"504 885 LINE",
"311 885 LINE",
"309 881 LINE",
"469 752 LINE"
);
}
);
width = 1000;
}
);
unicode = 1E80;
},
{
color = 0;
glyphname = X;
lastChange = "2013-12-03 22:30:04 +0000";
layers = (
{
layerId = "87647C87-E27A-4883-B22D-08F5E311E309";
paths = (
{
closed = 1;
nodes = (
"755 688 LINE",
"508 688 LINE",
"403 512 LINE",
"399 512 LINE",
"295 688 LINE",
"28 688 LINE",
"250 364 LINE",
"4 0 LINE",
"252 0 LINE",
"379 214 LINE",
"383 214 LINE",
"510 0 LINE",
"778 0 LINE",
"532 363 LINE"
);
}
);
width = 778;
}
);
unicode = 0058;
},
{
color = 0;
glyphname = Y;
lastChange = "2013-12-03 22:31:02 +0000";
layers = (
{
anchors = (
{
name = top;
position = "{389, 688}";
}
);
layerId = "87647C87-E27A-4883-B22D-08F5E311E309";
paths = (
{
closed = 1;
nodes = (
"770 688 LINE",
"529 688 LINE",
"397 459 LINE",
"393 459 LINE",
"261 688 LINE",
"7 688 LINE",
"280 267 LINE",
"280 0 LINE",
"501 0 LINE",
"501 267 LINE"
);
}
);
width = 778;
}
);
unicode = 0059;
},
{
color = 0;
glyphname = Yacute;
lastChange = "2013-12-03 22:30:04 +0000";
layers = (
{
layerId = "87647C87-E27A-4883-B22D-08F5E311E309";
paths = (
{
closed = 1;
nodes = (
"501 267 LINE",
"770 688 LINE",
"529 688 LINE",
"397 459 LINE",
"393 459 LINE",
"261 688 LINE",
"7 688 LINE",
"280 267 LINE",
"280 0 LINE",
"501 0 LINE"
);
},
{
closed = 1;
nodes = (
"580 881 LINE",
"578 885 LINE",
"385 885 LINE",
"293 752 LINE",
"420 752 LINE"
);
}
);
width = 778;
}
);
unicode = 00DD;
},
{
color = 0;
glyphname = Ycircumflex;
lastChange = "2013-12-03 22:30:04 +0000";
layers = (
{
layerId = "87647C87-E27A-4883-B22D-08F5E311E309";
paths = (
{
closed = 1;
nodes = (
"770 688 LINE",
"529 688 LINE",
"397 459 LINE",
"393 459 LINE",
"261 688 LINE",
"7 688 LINE",
"280 267 LINE",
"280 0 LINE",
"501 0 LINE",
"501 267 LINE"
);
},
{
closed = 1;
nodes = (
"453 885 LINE",
"325 885 LINE",
"186 740 LINE",
"314 740 LINE",
"388 817 LINE",
"462 740 LINE",
"592 740 LINE"
);
}
);
width = 778;
}
);
unicode = 0176;
},
{
color = 0;
glyphname = Ydieresis;
lastChange = "2013-12-03 22:30:04 +0000";
layers = (
{
layerId = "87647C87-E27A-4883-B22D-08F5E311E309";
paths = (
{
closed = 1;
nodes = (
"770 688 LINE",
"529 688 LINE",
"397 459 LINE",
"393 459 LINE",
"261 688 LINE",
"7 688 LINE",
"280 267 LINE",
"280 0 LINE",
"501 0 LINE",
"501 267 LINE"
);
},
{
closed = 1;
nodes = (
"575 885 LINE",
"423 885 LINE",
"423 746 LINE",
"575 746 LINE"
);
},
{
closed = 1;
nodes = (
"355 885 LINE",
"203 885 LINE",
"203 746 LINE",
"355 746 LINE"
);
}
);
width = 778;
}
);
unicode = 0178;
},
{
color = 0;
glyphname = Ygrave;
lastChange = "2013-12-03 22:30:04 +0000";
layers = (
{
layerId = "87647C87-E27A-4883-B22D-08F5E311E309";
paths = (
{
closed = 1;
nodes = (
"501 267 LINE",
"770 688 LINE",
"529 688 LINE",
"397 459 LINE",
"393 459 LINE",
"261 688 LINE",
"7 688 LINE",
"280 267 LINE",
"280 0 LINE",
"501 0 LINE"
);
},
{
closed = 1;
nodes = (
"485 752 LINE",
"393 885 LINE",
"200 885 LINE",
"198 881 LINE",
"358 752 LINE"
);
}
);
width = 778;
}
);
unicode = 1EF2;
},
{
color = 0;
glyphname = Z;
lastChange = "2013-12-03 22:31:02 +0000";
layers = (
{
anchors = (
{
name = top;
position = "{361, 688}";
}
);
layerId = "87647C87-E27A-4883-B22D-08F5E311E309";
paths = (
{
closed = 1;
nodes = (
"683 688 LINE",
"48 688 LINE",
"48 523 LINE",
"343 523 LINE",
"24 71 LINE",
"24 0 LINE",
"691 0 LINE",
"691 165 LINE",
"364 165 LINE",
"683 617 LINE"
);
}
);
width = 722;
}
);
unicode = 005A;
},
{
color = 0;
glyphname = Zacute;
lastChange = "2013-12-03 22:30:04 +0000";
layers = (
{
layerId = "87647C87-E27A-4883-B22D-08F5E311E309";
paths = (
{
closed = 1;
nodes = (
"683 617 LINE",
"683 688 LINE",
"48 688 LINE",
"48 523 LINE",
"343 523 LINE",
"24 71 LINE",
"24 0 LINE",
"691 0 LINE",
"691 165 LINE",
"364 165 LINE"
);
},
{
closed = 1;
nodes = (
"552 881 LINE",
"550 885 LINE",
"357 885 LINE",
"265 752 LINE",
"393 752 LINE"
);
}
);
width = 722;
}
);
unicode = 0179;
},
{
color = 0;
glyphname = Zcaron;
lastChange = "2013-12-03 22:30:04 +0000";
layers = (
{
layerId = "87647C87-E27A-4883-B22D-08F5E311E309";
paths = (
{
closed = 1;
nodes = (
"683 688 LINE",
"48 688 LINE",
"48 523 LINE",
"343 523 LINE",
"24 71 LINE",
"24 0 LINE",
"691 0 LINE",
"691 165 LINE",
"364 165 LINE",
"683 617 LINE"
);
},
{
closed = 1;
nodes = (
"564 885 LINE",
"435 885 LINE",
"360 808 LINE",
"286 885 LINE",
"158 885 LINE",
"297 740 LINE",
"425 740 LINE"
);
}
);
width = 722;
}
);
unicode = 017D;
},
{
color = 0;
glyphname = Zdotaccent;
lastChange = "2013-12-03 22:30:04 +0000";
layers = (
{
layerId = "87647C87-E27A-4883-B22D-08F5E311E309";
paths = (
{
closed = 1;
nodes = (
"683 688 LINE",
"48 688 LINE",
"48 523 LINE",
"343 523 LINE",
"24 71 LINE",
"24 0 LINE",
"691 0 LINE",
"691 165 LINE",
"364 165 LINE",
"683 617 LINE"
);
},
{
closed = 1;
nodes = (
"437 885 LINE",
"285 885 LINE",
"285 746 LINE",
"437 746 LINE"
);
}
);
width = 722;
}
);
unicode = 017B;
},
{
color = 0;
glyphname = a;
lastChange = "2013-12-03 22:31:02 +0000";
layers = (
{
anchors = (
{
name = ogonek;
position = "{600, 10}";
},
{
name = top;
position = "{334, 528}";
}
);
layerId = "87647C87-E27A-4883-B22D-08F5E311E309";
paths = (
{
closed = 1;
nodes = (
"140 540 OFFCURVE",
"45 474 OFFCURVE",
"45 377 CURVE SMOOTH",
"45 372 OFFCURVE",
"45 368 OFFCURVE",
"46 363 CURVE",
"242 363 LINE",
"242 367 LINE SMOOTH",
"242 402 OFFCURVE",
"283 413 OFFCURVE",
"318 413 CURVE SMOOTH",
"361 413 OFFCURVE",
"395 393 OFFCURVE",
"395 350 CURVE SMOOTH",
"395 324 LINE",
"164 324 OFFCURVE",
"30 294 OFFCURVE",
"30 136 CURVE SMOOTH",
"30 26 OFFCURVE",
"106 -12 OFFCURVE",
"216 -12 CURVE SMOOTH",
"308 -12 OFFCURVE",
"367 19 OFFCURVE",
"411 54 CURVE",
"429 14 OFFCURVE",
"478 -12 OFFCURVE",
"558 -12 CURVE SMOOTH",
"625 -12 OFFCURVE",
"662 8 OFFCURVE",
"662 8 CURVE",
"662 123 LINE",
"626 123 LINE SMOOTH",
"604 123 OFFCURVE",
"594 140 OFFCURVE",
"594 162 CURVE SMOOTH",
"594 368 LINE SMOOTH",
"594 498 OFFCURVE",
"466 540 OFFCURVE",
"321 540 CURVE SMOOTH"
);
},
{
closed = 1;
nodes = (
"395 185 LINE SMOOTH",
"395 142 OFFCURVE",
"348 112 OFFCURVE",
"297 112 CURVE SMOOTH",
"263 112 OFFCURVE",
"229 121 OFFCURVE",
"229 162 CURVE SMOOTH",
"229 201 OFFCURVE",
"277 230 OFFCURVE",
"395 230 CURVE"
);
}
);
width = 667;
}
);
unicode = 0061;
},
{
color = 0;
glyphname = aacute;
lastChange = "2013-12-03 22:30:04 +0000";
layers = (
{
layerId = "87647C87-E27A-4883-B22D-08F5E311E309";
paths = (
{
closed = 1;
nodes = (
"140 540 OFFCURVE",
"45 474 OFFCURVE",
"45 377 CURVE SMOOTH",
"45 372 OFFCURVE",
"45 368 OFFCURVE",
"46 363 CURVE",
"242 363 LINE",
"242 367 LINE SMOOTH",
"242 402 OFFCURVE",
"283 413 OFFCURVE",
"318 413 CURVE SMOOTH",
"361 413 OFFCURVE",
"395 393 OFFCURVE",
"395 350 CURVE SMOOTH",
"395 324 LINE",
"164 324 OFFCURVE",
"30 294 OFFCURVE",
"30 136 CURVE SMOOTH",
"30 26 OFFCURVE",
"106 -12 OFFCURVE",
"216 -12 CURVE SMOOTH",
"308 -12 OFFCURVE",
"367 19 OFFCURVE",
"411 54 CURVE",
"429 14 OFFCURVE",
"478 -12 OFFCURVE",
"558 -12 CURVE SMOOTH",
"625 -12 OFFCURVE",
"662 8 OFFCURVE",
"662 8 CURVE",
"662 123 LINE",
"626 123 LINE SMOOTH",
"604 123 OFFCURVE",
"594 140 OFFCURVE",
"594 162 CURVE SMOOTH",
"594 368 LINE SMOOTH",
"594 498 OFFCURVE",
"466 540 OFFCURVE",
"321 540 CURVE SMOOTH"
);
},
{
closed = 1;
nodes = (
"395 185 LINE SMOOTH",
"395 142 OFFCURVE",
"348 112 OFFCURVE",
"297 112 CURVE SMOOTH",
"263 112 OFFCURVE",
"229 121 OFFCURVE",
"229 162 CURVE SMOOTH",
"229 201 OFFCURVE",
"277 230 OFFCURVE",
"395 230 CURVE"
);
},
{
closed = 1;
nodes = (
"512 721 LINE",
"510 725 LINE",
"317 725 LINE",
"225 592 LINE",
"353 592 LINE"
);
}
);
width = 667;
}
);
unicode = 00E1;
},
{
color = 0;
glyphname = abreve;
lastChange = "2013-12-03 22:30:04 +0000";
layers = (
{
layerId = "87647C87-E27A-4883-B22D-08F5E311E309";
paths = (
{
closed = 1;
nodes = (
"140 540 OFFCURVE",
"45 474 OFFCURVE",
"45 377 CURVE SMOOTH",
"45 372 OFFCURVE",
"45 368 OFFCURVE",
"46 363 CURVE",
"242 363 LINE",
"242 367 LINE SMOOTH",
"242 402 OFFCURVE",
"283 413 OFFCURVE",
"318 413 CURVE SMOOTH",
"361 413 OFFCURVE",
"395 393 OFFCURVE",
"395 350 CURVE SMOOTH",
"395 324 LINE",
"164 324 OFFCURVE",
"30 294 OFFCURVE",
"30 136 CURVE SMOOTH",
"30 26 OFFCURVE",
"106 -12 OFFCURVE",
"216 -12 CURVE SMOOTH",
"308 -12 OFFCURVE",
"367 19 OFFCURVE",
"411 54 CURVE",
"429 14 OFFCURVE",
"478 -12 OFFCURVE",
"558 -12 CURVE SMOOTH",
"625 -12 OFFCURVE",
"662 8 OFFCURVE",
"662 8 CURVE",
"662 123 LINE",
"626 123 LINE SMOOTH",
"604 123 OFFCURVE",
"594 140 OFFCURVE",
"594 162 CURVE SMOOTH",
"594 368 LINE SMOOTH",
"594 498 OFFCURVE",
"466 540 OFFCURVE",
"321 540 CURVE SMOOTH"
);
},
{
closed = 1;
nodes = (
"395 185 LINE SMOOTH",
"395 142 OFFCURVE",
"348 112 OFFCURVE",
"297 112 CURVE SMOOTH",
"263 112 OFFCURVE",
"229 121 OFFCURVE",
"229 162 CURVE SMOOTH",
"229 201 OFFCURVE",
"277 230 OFFCURVE",
"395 230 CURVE"
);
},
{
closed = 1;
nodes = (
"423 725 LINE",
"419 704 OFFCURVE",
"383 675 OFFCURVE",
"333 675 CURVE SMOOTH",
"309 675 OFFCURVE",
"288 682 OFFCURVE",
"272 692 CURVE SMOOTH",
"257 702 OFFCURVE",
"247 715 OFFCURVE",
"245 725 CURVE",
"149 725 LINE",
"149 658 OFFCURVE",
"218 581 OFFCURVE",
"333 581 CURVE SMOOTH",
"447 581 OFFCURVE",
"518 658 OFFCURVE",
"518 725 CURVE"
);
}
);
width = 667;
}
);
unicode = 0103;
},
{
color = 0;
glyphname = acircumflex;
lastChange = "2013-12-03 22:30:04 +0000";
layers = (
{
layerId = "87647C87-E27A-4883-B22D-08F5E311E309";
paths = (
{
closed = 1;
nodes = (
"140 540 OFFCURVE",
"45 474 OFFCURVE",
"45 377 CURVE SMOOTH",
"45 372 OFFCURVE",
"45 368 OFFCURVE",
"46 363 CURVE",
"242 363 LINE",
"242 367 LINE SMOOTH",
"242 402 OFFCURVE",
"283 413 OFFCURVE",
"318 413 CURVE SMOOTH",
"361 413 OFFCURVE",
"395 393 OFFCURVE",
"395 350 CURVE SMOOTH",
"395 324 LINE",
"164 324 OFFCURVE",
"30 294 OFFCURVE",
"30 136 CURVE SMOOTH",
"30 26 OFFCURVE",
"106 -12 OFFCURVE",
"216 -12 CURVE SMOOTH",
"308 -12 OFFCURVE",
"367 19 OFFCURVE",
"411 54 CURVE",
"429 14 OFFCURVE",
"478 -12 OFFCURVE",
"558 -12 CURVE SMOOTH",
"625 -12 OFFCURVE",
"662 8 OFFCURVE",
"662 8 CURVE",
"662 123 LINE",
"626 123 LINE SMOOTH",
"604 123 OFFCURVE",
"594 140 OFFCURVE",
"594 162 CURVE SMOOTH",
"594 368 LINE SMOOTH",
"594 498 OFFCURVE",
"466 540 OFFCURVE",
"321 540 CURVE SMOOTH"
);
},
{
closed = 1;
nodes = (
"395 185 LINE SMOOTH",
"395 142 OFFCURVE",
"348 112 OFFCURVE",
"297 112 CURVE SMOOTH",
"263 112 OFFCURVE",
"229 121 OFFCURVE",
"229 162 CURVE SMOOTH",
"229 201 OFFCURVE",
"277 230 OFFCURVE",
"395 230 CURVE"
);
},
{
closed = 1;
nodes = (
"397 725 LINE",
"270 725 LINE",
"130 580 LINE",
"258 580 LINE",
"333 657 LINE",
"407 580 LINE",
"537 580 LINE"
);
}
);
width = 667;
}
);
unicode = 00E2;
},
{
color = 0;
glyphname = adieresis;
lastChange = "2013-12-03 22:30:04 +0000";
layers = (
{
layerId = "87647C87-E27A-4883-B22D-08F5E311E309";
paths = (
{
closed = 1;
nodes = (
"140 540 OFFCURVE",
"45 474 OFFCURVE",
"45 377 CURVE SMOOTH",
"45 372 OFFCURVE",
"45 368 OFFCURVE",
"46 363 CURVE",
"242 363 LINE",
"242 367 LINE SMOOTH",
"242 402 OFFCURVE",
"283 413 OFFCURVE",
"318 413 CURVE SMOOTH",
"361 413 OFFCURVE",
"395 393 OFFCURVE",
"395 350 CURVE SMOOTH",
"395 324 LINE",
"164 324 OFFCURVE",
"30 294 OFFCURVE",
"30 136 CURVE SMOOTH",
"30 26 OFFCURVE",
"106 -12 OFFCURVE",
"216 -12 CURVE SMOOTH",
"308 -12 OFFCURVE",
"367 19 OFFCURVE",
"411 54 CURVE",
"429 14 OFFCURVE",
"478 -12 OFFCURVE",
"558 -12 CURVE SMOOTH",
"625 -12 OFFCURVE",
"662 8 OFFCURVE",
"662 8 CURVE",
"662 123 LINE",
"626 123 LINE SMOOTH",
"604 123 OFFCURVE",
"594 140 OFFCURVE",
"594 162 CURVE SMOOTH",
"594 368 LINE SMOOTH",
"594 498 OFFCURVE",
"466 540 OFFCURVE",
"321 540 CURVE SMOOTH"
);
},
{
closed = 1;
nodes = (
"395 185 LINE SMOOTH",
"395 142 OFFCURVE",
"348 112 OFFCURVE",
"297 112 CURVE SMOOTH",
"263 112 OFFCURVE",
"229 121 OFFCURVE",
"229 162 CURVE SMOOTH",
"229 201 OFFCURVE",
"277 230 OFFCURVE",
"395 230 CURVE"
);
},
{
closed = 1;
nodes = (
"520 725 LINE",
"368 725 LINE",
"368 586 LINE",
"520 586 LINE"
);
},
{
closed = 1;
nodes = (
"299 725 LINE",
"147 725 LINE",
"147 586 LINE",
"299 586 LINE"
);
}
);
width = 667;
}
);
unicode = 00E4;
},
{
color = 0;
glyphname = agrave;
lastChange = "2013-12-03 22:30:04 +0000";
layers = (
{
layerId = "87647C87-E27A-4883-B22D-08F5E311E309";
paths = (
{
closed = 1;
nodes = (
"140 540 OFFCURVE",
"45 474 OFFCURVE",
"45 377 CURVE SMOOTH",
"45 372 OFFCURVE",
"45 368 OFFCURVE",
"46 363 CURVE",
"242 363 LINE",
"242 367 LINE SMOOTH",
"242 402 OFFCURVE",
"283 413 OFFCURVE",
"318 413 CURVE SMOOTH",
"361 413 OFFCURVE",
"395 393 OFFCURVE",
"395 350 CURVE SMOOTH",
"395 324 LINE",
"164 324 OFFCURVE",
"30 294 OFFCURVE",
"30 136 CURVE SMOOTH",
"30 26 OFFCURVE",
"106 -12 OFFCURVE",
"216 -12 CURVE SMOOTH",
"308 -12 OFFCURVE",
"367 19 OFFCURVE",
"411 54 CURVE",
"429 14 OFFCURVE",
"478 -12 OFFCURVE",
"558 -12 CURVE SMOOTH",
"625 -12 OFFCURVE",
"662 8 OFFCURVE",
"662 8 CURVE",
"662 123 LINE",
"626 123 LINE SMOOTH",
"604 123 OFFCURVE",
"594 140 OFFCURVE",
"594 162 CURVE SMOOTH",
"594 368 LINE SMOOTH",
"594 498 OFFCURVE",
"466 540 OFFCURVE",
"321 540 CURVE SMOOTH"
);
},
{
closed = 1;
nodes = (
"395 185 LINE SMOOTH",
"395 142 OFFCURVE",
"348 112 OFFCURVE",
"297 112 CURVE SMOOTH",
"263 112 OFFCURVE",
"229 121 OFFCURVE",
"229 162 CURVE SMOOTH",
"229 201 OFFCURVE",
"277 230 OFFCURVE",
"395 230 CURVE"
);
},
{
closed = 1;
nodes = (
"417 592 LINE",
"325 725 LINE",
"132 725 LINE",
"130 721 LINE",
"291 592 LINE"
);
}
);
width = 667;
}
);
unicode = 00E0;
},
{
color = 0;
glyphname = amacron;
lastChange = "2013-12-03 22:30:04 +0000";
layers = (
{
layerId = "87647C87-E27A-4883-B22D-08F5E311E309";
paths = (
{
closed = 1;
nodes = (
"140 540 OFFCURVE",
"45 474 OFFCURVE",
"45 377 CURVE SMOOTH",
"45 372 OFFCURVE",
"45 368 OFFCURVE",
"46 363 CURVE",
"242 363 LINE",
"242 367 LINE SMOOTH",
"242 402 OFFCURVE",
"283 413 OFFCURVE",
"318 413 CURVE SMOOTH",
"361 413 OFFCURVE",
"395 393 OFFCURVE",
"395 350 CURVE SMOOTH",
"395 324 LINE",
"164 324 OFFCURVE",
"30 294 OFFCURVE",
"30 136 CURVE SMOOTH",
"30 26 OFFCURVE",
"106 -12 OFFCURVE",
"216 -12 CURVE SMOOTH",
"308 -12 OFFCURVE",
"367 19 OFFCURVE",
"411 54 CURVE",
"429 14 OFFCURVE",
"478 -12 OFFCURVE",
"558 -12 CURVE SMOOTH",
"625 -12 OFFCURVE",
"662 8 OFFCURVE",
"662 8 CURVE",
"662 123 LINE",
"626 123 LINE SMOOTH",
"604 123 OFFCURVE",
"594 140 OFFCURVE",
"594 162 CURVE SMOOTH",
"594 368 LINE SMOOTH",
"594 498 OFFCURVE",
"466 540 OFFCURVE",
"321 540 CURVE SMOOTH"
);
},
{
closed = 1;
nodes = (
"395 185 LINE SMOOTH",
"395 142 OFFCURVE",
"348 112 OFFCURVE",
"297 112 CURVE SMOOTH",
"263 112 OFFCURVE",
"229 121 OFFCURVE",
"229 162 CURVE SMOOTH",
"229 201 OFFCURVE",
"277 230 OFFCURVE",
"395 230 CURVE"
);
},
{
closed = 1;
nodes = (
"492 705 LINE",
"175 705 LINE",
"175 605 LINE",
"492 605 LINE"
);
}
);
width = 667;
}
);
unicode = 0101;
},
{
color = 0;
glyphname = aogonek;
lastChange = "2013-12-03 22:30:04 +0000";
layers = (
{
layerId = "87647C87-E27A-4883-B22D-08F5E311E309";
paths = (
{
closed = 1;
nodes = (
"140 540 OFFCURVE",
"45 474 OFFCURVE",
"45 377 CURVE SMOOTH",
"45 372 OFFCURVE",
"45 368 OFFCURVE",
"46 363 CURVE",
"242 363 LINE",
"242 367 LINE SMOOTH",
"242 402 OFFCURVE",
"283 413 OFFCURVE",
"318 413 CURVE SMOOTH",
"361 413 OFFCURVE",
"395 393 OFFCURVE",
"395 350 CURVE SMOOTH",
"395 324 LINE",
"164 324 OFFCURVE",
"30 294 OFFCURVE",
"30 136 CURVE SMOOTH",
"30 26 OFFCURVE",
"106 -12 OFFCURVE",
"216 -12 CURVE SMOOTH",
"308 -12 OFFCURVE",
"367 19 OFFCURVE",
"411 54 CURVE",
"421 32 OFFCURVE",
"440 14 OFFCURVE",
"469 2 CURVE",
"449 -23 OFFCURVE",
"427 -53 OFFCURVE",
"427 -97 CURVE SMOOTH",
"427 -179 OFFCURVE",
"489 -211 OFFCURVE",
"554 -211 CURVE SMOOTH",
"586 -211 OFFCURVE",
"619 -206 OFFCURVE",
"649 -196 CURVE",
"649 -120 LINE",
"607 -120 LINE SMOOTH",
"562 -120 OFFCURVE",
"547 -95 OFFCURVE",
"547 -69 CURVE SMOOTH",
"547 -49 OFFCURVE",
"552 -28 OFFCURVE",
"558 -12 CURVE",
"625 -12 OFFCURVE",
"662 8 OFFCURVE",
"662 8 CURVE",
"662 123 LINE",
"626 123 LINE SMOOTH",
"604 123 OFFCURVE",
"594 140 OFFCURVE",
"594 162 CURVE SMOOTH",
"594 368 LINE SMOOTH",
"594 498 OFFCURVE",
"466 540 OFFCURVE",
"321 540 CURVE SMOOTH"
);
},
{
closed = 1;
nodes = (
"395 185 LINE SMOOTH",
"395 142 OFFCURVE",
"348 112 OFFCURVE",
"297 112 CURVE SMOOTH",
"263 112 OFFCURVE",
"229 121 OFFCURVE",
"229 162 CURVE SMOOTH",
"229 201 OFFCURVE",
"277 230 OFFCURVE",
"395 230 CURVE"
);
}
);
width = 667;
}
);
unicode = 0105;
},
{
color = 0;
glyphname = aring;
lastChange = "2013-12-03 22:30:04 +0000";
layers = (
{
layerId = "87647C87-E27A-4883-B22D-08F5E311E309";
paths = (
{
closed = 1;
nodes = (
"140 540 OFFCURVE",
"45 474 OFFCURVE",
"45 377 CURVE SMOOTH",
"45 372 OFFCURVE",
"45 368 OFFCURVE",
"46 363 CURVE",
"242 363 LINE",
"242 367 LINE SMOOTH",
"242 402 OFFCURVE",
"283 413 OFFCURVE",
"318 413 CURVE SMOOTH",
"361 413 OFFCURVE",
"395 393 OFFCURVE",
"395 350 CURVE SMOOTH",
"395 324 LINE",
"164 324 OFFCURVE",
"30 294 OFFCURVE",
"30 136 CURVE SMOOTH",
"30 26 OFFCURVE",
"106 -12 OFFCURVE",
"216 -12 CURVE SMOOTH",
"308 -12 OFFCURVE",
"367 19 OFFCURVE",
"411 54 CURVE",
"429 14 OFFCURVE",
"478 -12 OFFCURVE",
"558 -12 CURVE SMOOTH",
"625 -12 OFFCURVE",
"662 8 OFFCURVE",
"662 8 CURVE",
"662 123 LINE",
"626 123 LINE SMOOTH",
"604 123 OFFCURVE",
"594 140 OFFCURVE",
"594 162 CURVE SMOOTH",
"594 368 LINE SMOOTH",
"594 498 OFFCURVE",
"466 540 OFFCURVE",
"321 540 CURVE SMOOTH"
);
},
{
closed = 1;
nodes = (
"395 185 LINE SMOOTH",
"395 142 OFFCURVE",
"348 112 OFFCURVE",
"297 112 CURVE SMOOTH",
"263 112 OFFCURVE",
"229 121 OFFCURVE",
"229 162 CURVE SMOOTH",
"229 201 OFFCURVE",
"277 230 OFFCURVE",
"395 230 CURVE"
);
},
{
closed = 1;
nodes = (
"273 794 OFFCURVE",
"225 745 OFFCURVE",
"225 685 CURVE SMOOTH",
"225 625 OFFCURVE",
"274 577 OFFCURVE",
"333 577 CURVE SMOOTH",
"394 577 OFFCURVE",
"442 626 OFFCURVE",
"442 685 CURVE SMOOTH",
"442 746 OFFCURVE",
"393 794 OFFCURVE",
"333 794 CURVE SMOOTH"
);
},
{
closed = 1;
nodes = (
"356 725 OFFCURVE",
"374 709 OFFCURVE",
"374 686 CURVE SMOOTH",
"374 662 OFFCURVE",
"357 645 OFFCURVE",
"333 645 CURVE SMOOTH",
"311 645 OFFCURVE",
"293 661 OFFCURVE",
"293 684 CURVE SMOOTH",
"293 708 OFFCURVE",
"310 725 OFFCURVE",
"333 725 CURVE SMOOTH"
);
}
);
width = 667;
}
);
unicode = 00E5;
},
{
color = 0;
glyphname = aringacute;
lastChange = "2013-12-03 22:30:04 +0000";
layers = (
{
layerId = "87647C87-E27A-4883-B22D-08F5E311E309";
paths = (
{
closed = 1;
nodes = (
"273 758 OFFCURVE",
"225 724 OFFCURVE",
"225 659 CURVE SMOOTH",
"225 594 OFFCURVE",
"274 561 OFFCURVE",
"333 561 CURVE SMOOTH",
"394 561 OFFCURVE",
"442 595 OFFCURVE",
"442 659 CURVE SMOOTH",
"442 725 OFFCURVE",
"393 758 OFFCURVE",
"333 758 CURVE SMOOTH"
);
},
{
closed = 1;
nodes = (
"356 699 OFFCURVE",
"374 683 OFFCURVE",
"374 660 CURVE SMOOTH",
"374 636 OFFCURVE",
"357 619 OFFCURVE",
"333 619 CURVE SMOOTH",
"311 619 OFFCURVE",
"293 635 OFFCURVE",
"293 658 CURVE SMOOTH",
"293 682 OFFCURVE",
"310 699 OFFCURVE",
"333 699 CURVE SMOOTH"
);
},
{
closed = 1;
nodes = (
"140 540 OFFCURVE",
"45 474 OFFCURVE",
"45 377 CURVE SMOOTH",
"45 372 OFFCURVE",
"45 368 OFFCURVE",
"46 363 CURVE",
"242 363 LINE",
"242 367 LINE SMOOTH",
"242 402 OFFCURVE",
"283 413 OFFCURVE",
"318 413 CURVE SMOOTH",
"361 413 OFFCURVE",
"395 393 OFFCURVE",
"395 350 CURVE SMOOTH",
"395 324 LINE",
"164 324 OFFCURVE",
"30 294 OFFCURVE",
"30 136 CURVE SMOOTH",
"30 26 OFFCURVE",
"106 -12 OFFCURVE",
"216 -12 CURVE SMOOTH",
"308 -12 OFFCURVE",
"367 19 OFFCURVE",
"411 54 CURVE",
"429 14 OFFCURVE",
"478 -12 OFFCURVE",
"558 -12 CURVE SMOOTH",
"625 -12 OFFCURVE",
"662 8 OFFCURVE",
"662 8 CURVE",
"662 123 LINE",
"626 123 LINE SMOOTH",
"604 123 OFFCURVE",
"594 140 OFFCURVE",
"594 162 CURVE SMOOTH",
"594 368 LINE SMOOTH",
"594 498 OFFCURVE",
"466 540 OFFCURVE",
"321 540 CURVE SMOOTH"
);
},
{
closed = 1;
nodes = (
"395 185 LINE SMOOTH",
"395 142 OFFCURVE",
"348 112 OFFCURVE",
"297 112 CURVE SMOOTH",
"263 112 OFFCURVE",
"229 121 OFFCURVE",
"229 162 CURVE SMOOTH",
"229 201 OFFCURVE",
"277 230 OFFCURVE",
"395 230 CURVE"
);
},
{
closed = 1;
nodes = (
"523 887 LINE",
"342 887 LINE",
"265 783 LINE",
"392 783 LINE",
"525 883 LINE"
);
}
);
width = 667;
}
);
unicode = 01FB;
},
{
color = 0;
glyphname = atilde;
lastChange = "2013-12-03 22:30:04 +0000";
layers = (
{
layerId = "87647C87-E27A-4883-B22D-08F5E311E309";
paths = (
{
closed = 1;
nodes = (
"140 540 OFFCURVE",
"45 474 OFFCURVE",
"45 377 CURVE SMOOTH",
"45 372 OFFCURVE",
"45 368 OFFCURVE",
"46 363 CURVE",
"242 363 LINE",
"242 367 LINE SMOOTH",
"242 402 OFFCURVE",
"283 413 OFFCURVE",
"318 413 CURVE SMOOTH",
"361 413 OFFCURVE",
"395 393 OFFCURVE",
"395 350 CURVE SMOOTH",
"395 324 LINE",
"164 324 OFFCURVE",
"30 294 OFFCURVE",
"30 136 CURVE SMOOTH",
"30 26 OFFCURVE",
"106 -12 OFFCURVE",
"216 -12 CURVE SMOOTH",
"308 -12 OFFCURVE",
"367 19 OFFCURVE",
"411 54 CURVE",
"429 14 OFFCURVE",
"478 -12 OFFCURVE",
"558 -12 CURVE SMOOTH",
"625 -12 OFFCURVE",
"662 8 OFFCURVE",
"662 8 CURVE",
"662 123 LINE",
"626 123 LINE SMOOTH",
"604 123 OFFCURVE",
"594 140 OFFCURVE",
"594 162 CURVE SMOOTH",
"594 368 LINE SMOOTH",
"594 498 OFFCURVE",
"466 540 OFFCURVE",
"321 540 CURVE SMOOTH"
);
},
{
closed = 1;
nodes = (
"395 185 LINE SMOOTH",
"395 142 OFFCURVE",
"348 112 OFFCURVE",
"297 112 CURVE SMOOTH",
"263 112 OFFCURVE",
"229 121 OFFCURVE",
"229 162 CURVE SMOOTH",
"229 201 OFFCURVE",
"277 230 OFFCURVE",
"395 230 CURVE"
);
},
{
closed = 1;
nodes = (
"475 725 LINE",
"467 702 OFFCURVE",
"450 685 OFFCURVE",
"424 685 CURVE SMOOTH",
"371 685 OFFCURVE",
"315 725 OFFCURVE",
"251 725 CURVE SMOOTH",
"167 725 OFFCURVE",
"111 654 OFFCURVE",
"111 582 CURVE",
"192 582 LINE",
"200 605 OFFCURVE",
"217 622 OFFCURVE",
"243 622 CURVE SMOOTH",
"296 622 OFFCURVE",
"352 582 OFFCURVE",
"416 582 CURVE SMOOTH",
"500 582 OFFCURVE",
"556 653 OFFCURVE",
"556 725 CURVE"
);
}
);
width = 667;
}
);
unicode = 00E3;
},
{
color = 0;
glyphname = ae;
lastChange = "2013-12-03 22:31:02 +0000";
layers = (
{
anchors = (
{
name = top;
position = "{500, 528}";
}
);
layerId = "87647C87-E27A-4883-B22D-08F5E311E309";
paths = (
{
closed = 1;
nodes = (
"626 540 OFFCURVE",
"566 524 OFFCURVE",
"518 492 CURVE",
"468 527 OFFCURVE",
"396 540 OFFCURVE",
"321 540 CURVE SMOOTH",
"140 540 OFFCURVE",
"45 474 OFFCURVE",
"45 377 CURVE SMOOTH",
"45 372 OFFCURVE",
"45 368 OFFCURVE",
"46 363 CURVE",
"242 363 LINE",
"242 367 LINE SMOOTH",
"242 402 OFFCURVE",
"285 413 OFFCURVE",
"322 413 CURVE SMOOTH",
"363 413 OFFCURVE",
"395 393 OFFCURVE",
"395 350 CURVE SMOOTH",
"395 324 LINE",
"163 324 OFFCURVE",
"30 295 OFFCURVE",
"30 146 CURVE SMOOTH",
"30 24 OFFCURVE",
"117 -12 OFFCURVE",
"256 -12 CURVE SMOOTH",
"350 -12 OFFCURVE",
"421 23 OFFCURVE",
"472 61 CURVE",
"525 11 OFFCURVE",
"606 -12 OFFCURVE",
"706 -12 CURVE SMOOTH",
"882 -12 OFFCURVE",
"972 66 OFFCURVE",
"972 192 CURVE",
"779 192 LINE",
"779 149 OFFCURVE",
"756 115 OFFCURVE",
"692 115 CURVE SMOOTH",
"623 115 OFFCURVE",
"596 157 OFFCURVE",
"596 230 CURVE",
"972 230 LINE",
"972 264 LINE SMOOTH",
"972 454 OFFCURVE",
"872 540 OFFCURVE",
"694 540 CURVE SMOOTH"
);
},
{
closed = 1;
nodes = (
"395 185 LINE SMOOTH",
"395 142 OFFCURVE",
"348 112 OFFCURVE",
"297 112 CURVE SMOOTH",
"263 112 OFFCURVE",
"229 121 OFFCURVE",
"229 162 CURVE SMOOTH",
"229 201 OFFCURVE",
"277 230 OFFCURVE",
"395 230 CURVE"
);
},
{
closed = 1;
nodes = (
"741 413 OFFCURVE",
"771 379 OFFCURVE",
"771 324 CURVE",
"597 324 LINE",
"603 379 OFFCURVE",
"630 413 OFFCURVE",
"688 413 CURVE SMOOTH"
);
}
);
width = 1000;
}
);
unicode = 00E6;
},
{
color = 0;
glyphname = aeacute;
lastChange = "2013-12-03 22:30:04 +0000";
layers = (
{
layerId = "87647C87-E27A-4883-B22D-08F5E311E309";
paths = (
{
closed = 1;
nodes = (
"626 540 OFFCURVE",
"566 524 OFFCURVE",
"518 492 CURVE",
"468 527 OFFCURVE",
"396 540 OFFCURVE",
"321 540 CURVE SMOOTH",
"140 540 OFFCURVE",
"45 474 OFFCURVE",
"45 377 CURVE SMOOTH",
"45 372 OFFCURVE",
"45 368 OFFCURVE",
"46 363 CURVE",
"242 363 LINE",
"242 367 LINE SMOOTH",
"242 402 OFFCURVE",
"285 413 OFFCURVE",
"322 413 CURVE SMOOTH",
"363 413 OFFCURVE",
"395 393 OFFCURVE",
"395 350 CURVE SMOOTH",
"395 324 LINE",
"163 324 OFFCURVE",
"30 295 OFFCURVE",
"30 146 CURVE SMOOTH",
"30 24 OFFCURVE",
"117 -12 OFFCURVE",
"256 -12 CURVE SMOOTH",
"350 -12 OFFCURVE",
"421 23 OFFCURVE",
"472 61 CURVE",
"525 11 OFFCURVE",
"606 -12 OFFCURVE",
"706 -12 CURVE SMOOTH",
"882 -12 OFFCURVE",
"972 66 OFFCURVE",
"972 192 CURVE",
"779 192 LINE",
"779 149 OFFCURVE",
"756 115 OFFCURVE",
"692 115 CURVE SMOOTH",
"623 115 OFFCURVE",
"596 157 OFFCURVE",
"596 230 CURVE",
"972 230 LINE",
"972 264 LINE SMOOTH",
"972 454 OFFCURVE",
"872 540 OFFCURVE",
"694 540 CURVE SMOOTH"
);
},
{
closed = 1;
nodes = (
"395 185 LINE SMOOTH",
"395 142 OFFCURVE",
"348 112 OFFCURVE",
"297 112 CURVE SMOOTH",
"263 112 OFFCURVE",
"229 121 OFFCURVE",
"229 162 CURVE SMOOTH",
"229 201 OFFCURVE",
"277 230 OFFCURVE",
"395 230 CURVE"
);
},
{
closed = 1;
nodes = (
"741 413 OFFCURVE",
"771 379 OFFCURVE",
"771 324 CURVE",
"597 324 LINE",
"603 379 OFFCURVE",
"630 413 OFFCURVE",
"688 413 CURVE SMOOTH"
);
},
{
closed = 1;
nodes = (
"703 721 LINE",
"701 725 LINE",
"508 725 LINE",
"416 592 LINE",
"543 592 LINE"
);
}
);
width = 1000;
}
);
unicode = 01FD;
},
{
color = 0;
glyphname = b;
lastChange = "2013-12-03 22:30:04 +0000";
layers = (
{
layerId = "87647C87-E27A-4883-B22D-08F5E311E309";
paths = (
{
closed = 1;
nodes = (
"260 725 LINE",
"61 725 LINE",
"61 0 LINE",
"223 0 LINE",
"240 75 LINE",
"279 16 OFFCURVE",
"337 -12 OFFCURVE",
"408 -12 CURVE SMOOTH",
"548 -12 OFFCURVE",
"631 79 OFFCURVE",
"631 265 CURVE SMOOTH",
"631 449 OFFCURVE",
"548 540 OFFCURVE",
"408 540 CURVE SMOOTH",
"348 540 OFFCURVE",
"298 520 OFFCURVE",
"260 479 CURVE"
);
},
{
closed = 1;
nodes = (
"408 393 OFFCURVE",
"432 352 OFFCURVE",
"432 290 CURVE SMOOTH",
"432 237 LINE SMOOTH",
"432 175 OFFCURVE",
"408 135 OFFCURVE",
"346 135 CURVE SMOOTH",
"284 135 OFFCURVE",
"258 185 OFFCURVE",
"258 247 CURVE SMOOTH",
"258 280 LINE SMOOTH",
"258 342 OFFCURVE",
"284 393 OFFCURVE",
"346 393 CURVE SMOOTH"
);
}
);
width = 667;
}
);
unicode = 0062;
},
{
color = 0;
glyphname = c;
lastChange = "2013-12-03 22:31:02 +0000";
layers = (
{
anchors = (
{
name = bottom;
position = "{334, 0}";
},
{
name = top;
position = "{334, 528}";
}
);
layerId = "87647C87-E27A-4883-B22D-08F5E311E309";
paths = (
{
closed = 1;
nodes = (
"153 540 OFFCURVE",
"36 449 OFFCURVE",
"36 264 CURVE SMOOTH",
"36 79 OFFCURVE",
"153 -12 OFFCURVE",
"333 -12 CURVE SMOOTH",
"494 -12 OFFCURVE",
"624 54 OFFCURVE",
"624 215 CURVE",
"439 215 LINE",
"439 150 OFFCURVE",
"402 123 OFFCURVE",
"337 123 CURVE SMOOTH",
"264 123 OFFCURVE",
"235 165 OFFCURVE",
"235 235 CURVE SMOOTH",
"235 292 LINE SMOOTH",
"235 362 OFFCURVE",
"263 405 OFFCURVE",
"333 405 CURVE SMOOTH",
"395 405 OFFCURVE",
"431 377 OFFCURVE",
"431 315 CURVE",
"624 315 LINE",
"624 476 OFFCURVE",
"494 540 OFFCURVE",
"333 540 CURVE SMOOTH"
);
}
);
width = 667;
}
);
unicode = 0063;
},
{
color = 0;
glyphname = cacute;
lastChange = "2013-12-03 22:30:04 +0000";
layers = (
{
layerId = "87647C87-E27A-4883-B22D-08F5E311E309";
paths = (
{
closed = 1;
nodes = (
"153 540 OFFCURVE",
"36 449 OFFCURVE",
"36 264 CURVE SMOOTH",
"36 79 OFFCURVE",
"153 -12 OFFCURVE",
"333 -12 CURVE SMOOTH",
"494 -12 OFFCURVE",
"624 54 OFFCURVE",
"624 215 CURVE",
"439 215 LINE",
"439 150 OFFCURVE",
"402 123 OFFCURVE",
"337 123 CURVE SMOOTH",
"264 123 OFFCURVE",
"235 165 OFFCURVE",
"235 235 CURVE SMOOTH",
"235 292 LINE SMOOTH",
"235 362 OFFCURVE",
"263 405 OFFCURVE",
"333 405 CURVE SMOOTH",
"395 405 OFFCURVE",
"431 377 OFFCURVE",
"431 315 CURVE",
"624 315 LINE",
"624 476 OFFCURVE",
"494 540 OFFCURVE",
"333 540 CURVE SMOOTH"
);
},
{
closed = 1;
nodes = (
"524 721 LINE",
"522 725 LINE",
"330 725 LINE",
"237 592 LINE",
"365 592 LINE"
);
}
);
width = 667;
}
);
unicode = 0107;
},
{
color = 0;
glyphname = ccaron;
lastChange = "2013-12-03 22:30:04 +0000";
layers = (
{
layerId = "87647C87-E27A-4883-B22D-08F5E311E309";
paths = (
{
closed = 1;
nodes = (
"153 540 OFFCURVE",
"36 449 OFFCURVE",
"36 264 CURVE SMOOTH",
"36 79 OFFCURVE",
"153 -12 OFFCURVE",
"333 -12 CURVE SMOOTH",
"494 -12 OFFCURVE",
"624 54 OFFCURVE",
"624 215 CURVE",
"439 215 LINE",
"439 150 OFFCURVE",
"402 123 OFFCURVE",
"337 123 CURVE SMOOTH",
"264 123 OFFCURVE",
"235 165 OFFCURVE",
"235 235 CURVE SMOOTH",
"235 292 LINE SMOOTH",
"235 362 OFFCURVE",
"263 405 OFFCURVE",
"333 405 CURVE SMOOTH",
"395 405 OFFCURVE",
"431 377 OFFCURVE",
"431 315 CURVE",
"624 315 LINE",
"624 476 OFFCURVE",
"494 540 OFFCURVE",
"333 540 CURVE SMOOTH"
);
},
{
closed = 1;
nodes = (
"537 725 LINE",
"407 725 LINE",
"333 648 LINE",
"258 725 LINE",
"130 725 LINE",
"270 580 LINE",
"397 580 LINE"
);
}
);
width = 667;
}
);
unicode = 010D;
},
{
color = 0;
glyphname = ccedilla;
lastChange = "2013-12-03 22:30:04 +0000";
layers = (
{
layerId = "87647C87-E27A-4883-B22D-08F5E311E309";
paths = (
{
closed = 1;
nodes = (
"153 540 OFFCURVE",
"36 449 OFFCURVE",
"36 264 CURVE SMOOTH",
"36 89 OFFCURVE",
"140 -1 OFFCURVE",
"304 -11 CURVE",
"292 -86 LINE",
"331 -86 LINE SMOOTH",
"359 -86 OFFCURVE",
"369 -98 OFFCURVE",
"369 -118 CURVE SMOOTH",
"369 -141 OFFCURVE",
"353 -149 OFFCURVE",
"329 -149 CURVE SMOOTH",
"276 -149 OFFCURVE",
"211 -141 OFFCURVE",
"211 -141 CURVE",
"211 -195 LINE",
"241 -205 OFFCURVE",
"292 -211 OFFCURVE",
"337 -211 CURVE SMOOTH",
"384 -211 OFFCURVE",
"456 -194 OFFCURVE",
"456 -118 CURVE SMOOTH",
"456 -56 OFFCURVE",
"412 -34 OFFCURVE",
"363 -29 CURVE",
"365 -11 LINE",
"511 -2 OFFCURVE",
"624 65 OFFCURVE",
"624 215 CURVE",
"439 215 LINE",
"439 150 OFFCURVE",
"402 123 OFFCURVE",
"337 123 CURVE SMOOTH",
"264 123 OFFCURVE",
"235 165 OFFCURVE",
"235 235 CURVE SMOOTH",
"235 292 LINE SMOOTH",
"235 362 OFFCURVE",
"263 405 OFFCURVE",
"333 405 CURVE SMOOTH",
"395 405 OFFCURVE",
"431 377 OFFCURVE",
"431 315 CURVE",
"624 315 LINE",
"624 476 OFFCURVE",
"494 540 OFFCURVE",
"333 540 CURVE SMOOTH"
);
}
);
width = 667;
}
);
unicode = 00E7;
},
{
color = 0;
glyphname = ccircumflex;
lastChange = "2013-12-03 22:30:04 +0000";
layers = (
{
layerId = "87647C87-E27A-4883-B22D-08F5E311E309";
paths = (
{
closed = 1;
nodes = (
"153 540 OFFCURVE",
"36 449 OFFCURVE",
"36 264 CURVE SMOOTH",
"36 79 OFFCURVE",
"153 -12 OFFCURVE",
"333 -12 CURVE SMOOTH",
"494 -12 OFFCURVE",
"624 54 OFFCURVE",
"624 215 CURVE",
"439 215 LINE",
"439 150 OFFCURVE",
"402 123 OFFCURVE",
"337 123 CURVE SMOOTH",
"264 123 OFFCURVE",
"235 165 OFFCURVE",
"235 235 CURVE SMOOTH",
"235 292 LINE SMOOTH",
"235 362 OFFCURVE",
"263 405 OFFCURVE",
"333 405 CURVE SMOOTH",
"395 405 OFFCURVE",
"431 377 OFFCURVE",
"431 315 CURVE",
"624 315 LINE",
"624 476 OFFCURVE",
"494 540 OFFCURVE",
"333 540 CURVE SMOOTH"
);
},
{
closed = 1;
nodes = (
"397 725 LINE",
"270 725 LINE",
"130 580 LINE",
"258 580 LINE",
"333 657 LINE",
"407 580 LINE",
"537 580 LINE"
);
}
);
width = 667;
}
);
unicode = 0109;
},
{
color = 0;
glyphname = cdotaccent;
lastChange = "2013-12-03 22:30:04 +0000";
layers = (
{
layerId = "87647C87-E27A-4883-B22D-08F5E311E309";
paths = (
{
closed = 1;
nodes = (
"153 540 OFFCURVE",
"36 449 OFFCURVE",
"36 264 CURVE SMOOTH",
"36 79 OFFCURVE",
"153 -12 OFFCURVE",
"333 -12 CURVE SMOOTH",
"494 -12 OFFCURVE",
"624 54 OFFCURVE",
"624 215 CURVE",
"439 215 LINE",
"439 150 OFFCURVE",
"402 123 OFFCURVE",
"337 123 CURVE SMOOTH",
"264 123 OFFCURVE",
"235 165 OFFCURVE",
"235 235 CURVE SMOOTH",
"235 292 LINE SMOOTH",
"235 362 OFFCURVE",
"263 405 OFFCURVE",
"333 405 CURVE SMOOTH",
"395 405 OFFCURVE",
"431 377 OFFCURVE",
"431 315 CURVE",
"624 315 LINE",
"624 476 OFFCURVE",
"494 540 OFFCURVE",
"333 540 CURVE SMOOTH"
);
},
{
closed = 1;
nodes = (
"410 725 LINE",
"257 725 LINE",
"257 586 LINE",
"410 586 LINE"
);
}
);
width = 667;
}
);
unicode = 010B;
},
{
color = 0;
glyphname = d;
lastChange = "2013-12-03 22:31:02 +0000";
layers = (
{
anchors = (
{
name = center;
position = "{334, 264}";
}
);
layerId = "87647C87-E27A-4883-B22D-08F5E311E309";
paths = (
{
closed = 1;
nodes = (
"606 725 LINE",
"407 725 LINE",
"407 479 LINE",
"369 520 OFFCURVE",
"318 540 OFFCURVE",
"259 540 CURVE SMOOTH",
"119 540 OFFCURVE",
"36 449 OFFCURVE",
"36 265 CURVE SMOOTH",
"36 79 OFFCURVE",
"119 -12 OFFCURVE",
"259 -12 CURVE SMOOTH",
"330 -12 OFFCURVE",
"388 16 OFFCURVE",
"427 75 CURVE",
"444 0 LINE",
"606 0 LINE"
);
},
{
closed = 1;
nodes = (
"383 393 OFFCURVE",
"409 342 OFFCURVE",
"409 280 CURVE SMOOTH",
"409 247 LINE SMOOTH",
"409 185 OFFCURVE",
"383 135 OFFCURVE",
"321 135 CURVE SMOOTH",
"259 135 OFFCURVE",
"235 175 OFFCURVE",
"235 237 CURVE SMOOTH",
"235 290 LINE SMOOTH",
"235 352 OFFCURVE",
"259 393 OFFCURVE",
"321 393 CURVE SMOOTH"
);
}
);
width = 667;
}
);
unicode = 0064;
},
{
color = 0;
glyphname = eth;
lastChange = "2013-12-03 22:30:04 +0000";
layers = (
{
layerId = "87647C87-E27A-4883-B22D-08F5E311E309";
paths = (
{
closed = 1;
nodes = (
"165 725 LINE",
"164 721 LINE",
"183 709 OFFCURVE",
"213 687 OFFCURVE",
"247 656 CURVE",
"149 645 LINE",
"149 567 LINE",
"314 586 LINE",
"331 564 OFFCURVE",
"348 541 OFFCURVE",
"364 516 CURVE",
"343 522 OFFCURVE",
"318 524 OFFCURVE",
"298 524 CURVE SMOOTH",
"136 524 OFFCURVE",
"36 418 OFFCURVE",
"36 264 CURVE SMOOTH",
"36 79 OFFCURVE",
"153 -12 OFFCURVE",
"333 -12 CURVE SMOOTH",
"513 -12 OFFCURVE",
"631 79 OFFCURVE",
"631 264 CURVE SMOOTH",
"631 419 OFFCURVE",
"567 532 OFFCURVE",
"502 608 CURVE",
"570 616 LINE",
"570 694 LINE",
"431 678 LINE",
"392 710 OFFCURVE",
"363 725 OFFCURVE",
"363 725 CURVE SMOOTH"
);
},
{
closed = 1;
nodes = (
"403 405 OFFCURVE",
"432 362 OFFCURVE",
"432 292 CURVE SMOOTH",
"432 235 LINE SMOOTH",
"432 165 OFFCURVE",
"403 123 OFFCURVE",
"333 123 CURVE SMOOTH",
"263 123 OFFCURVE",
"235 165 OFFCURVE",
"235 235 CURVE SMOOTH",
"235 292 LINE SMOOTH",
"235 362 OFFCURVE",
"263 405 OFFCURVE",
"333 405 CURVE SMOOTH"
);
}
);
width = 667;
}
);
unicode = 00F0;
},
{
color = 0;
glyphname = dcaron;
lastChange = "2013-12-03 22:30:04 +0000";
layers = (
{
layerId = "87647C87-E27A-4883-B22D-08F5E311E309";
paths = (
{
closed = 1;
nodes = (
"606 725 LINE",
"407 725 LINE",
"407 479 LINE",
"369 520 OFFCURVE",
"318 540 OFFCURVE",
"259 540 CURVE SMOOTH",
"119 540 OFFCURVE",
"36 449 OFFCURVE",
"36 265 CURVE SMOOTH",
"36 79 OFFCURVE",
"119 -12 OFFCURVE",
"259 -12 CURVE SMOOTH",
"330 -12 OFFCURVE",
"388 16 OFFCURVE",
"427 75 CURVE",
"444 0 LINE",
"606 0 LINE"
);
},
{
closed = 1;
nodes = (
"383 393 OFFCURVE",
"409 342 OFFCURVE",
"409 280 CURVE SMOOTH",
"409 247 LINE SMOOTH",
"409 185 OFFCURVE",
"383 135 OFFCURVE",
"321 135 CURVE SMOOTH",
"259 135 OFFCURVE",
"235 175 OFFCURVE",
"235 237 CURVE SMOOTH",
"235 290 LINE SMOOTH",
"235 352 OFFCURVE",
"259 393 OFFCURVE",
"321 393 CURVE SMOOTH"
);
},
{
closed = 1;
nodes = (
"785 688 LINE",
"655 688 LINE",
"655 573 LINE",
"705 573 LINE",
"664 481 LINE",
"731 481 LINE",
"785 580 LINE"
);
}
);
width = 844;
}
);
unicode = 010F;
},
{
color = 0;
glyphname = dcroat;
lastChange = "2013-12-03 22:30:04 +0000";
layers = (
{
layerId = "87647C87-E27A-4883-B22D-08F5E311E309";
paths = (
{
closed = 1;
nodes = (
"606 725 LINE",
"407 725 LINE",
"407 668 LINE",
"336 668 LINE",
"336 575 LINE",
"407 575 LINE",
"407 479 LINE",
"369 520 OFFCURVE",
"318 540 OFFCURVE",
"259 540 CURVE SMOOTH",
"119 540 OFFCURVE",
"36 449 OFFCURVE",
"36 265 CURVE SMOOTH",
"36 79 OFFCURVE",
"119 -12 OFFCURVE",
"259 -12 CURVE SMOOTH",
"330 -12 OFFCURVE",
"388 16 OFFCURVE",
"427 75 CURVE",
"444 0 LINE",
"606 0 LINE",
"606 575 LINE",
"667 575 LINE",
"667 668 LINE",
"606 668 LINE"
);
},
{
closed = 1;
nodes = (
"383 393 OFFCURVE",
"409 342 OFFCURVE",
"409 280 CURVE SMOOTH",
"409 247 LINE SMOOTH",
"409 185 OFFCURVE",
"383 135 OFFCURVE",
"321 135 CURVE SMOOTH",
"259 135 OFFCURVE",
"235 175 OFFCURVE",
"235 237 CURVE SMOOTH",
"235 290 LINE SMOOTH",
"235 352 OFFCURVE",
"259 393 OFFCURVE",
"321 393 CURVE SMOOTH"
);
}
);
width = 667;
}
);
unicode = 0111;
},
{
color = 0;
glyphname = e;
lastChange = "2013-12-03 22:31:02 +0000";
layers = (
{
anchors = (
{
name = bottom;
position = "{334, 0}";
},
{
name = ogonek;
position = "{600, 10}";
},
{
name = top;
position = "{334, 528}";
}
);
layerId = "87647C87-E27A-4883-B22D-08F5E311E309";
paths = (
{
closed = 1;
nodes = (
"153 540 OFFCURVE",
"36 449 OFFCURVE",
"36 264 CURVE SMOOTH",
"36 74 OFFCURVE",
"155 -12 OFFCURVE",
"345 -12 CURVE SMOOTH",
"535 -12 OFFCURVE",
"631 66 OFFCURVE",
"631 192 CURVE",
"438 192 LINE",
"438 149 OFFCURVE",
"412 115 OFFCURVE",
"341 115 CURVE SMOOTH",
"265 115 OFFCURVE",
"235 157 OFFCURVE",
"235 230 CURVE",
"631 230 LINE",
"631 264 LINE SMOOTH",
"631 454 OFFCURVE",
"523 540 OFFCURVE",
"333 540 CURVE SMOOTH"
);
},
{
closed = 1;
nodes = (
"397 413 OFFCURVE",
"430 379 OFFCURVE",
"430 324 CURVE",
"236 324 LINE",
"243 379 OFFCURVE",
"274 413 OFFCURVE",
"341 413 CURVE SMOOTH"
);
}
);
width = 667;
}
);
unicode = 0065;
},
{
color = 0;
glyphname = eacute;
lastChange = "2013-12-03 22:30:04 +0000";
layers = (
{
layerId = "87647C87-E27A-4883-B22D-08F5E311E309";
paths = (
{
closed = 1;
nodes = (
"153 540 OFFCURVE",
"36 449 OFFCURVE",
"36 264 CURVE SMOOTH",
"36 74 OFFCURVE",
"155 -12 OFFCURVE",
"345 -12 CURVE SMOOTH",
"535 -12 OFFCURVE",
"631 66 OFFCURVE",
"631 192 CURVE",
"438 192 LINE",
"438 149 OFFCURVE",
"412 115 OFFCURVE",
"341 115 CURVE SMOOTH",
"265 115 OFFCURVE",
"235 157 OFFCURVE",
"235 230 CURVE",
"631 230 LINE",
"631 264 LINE SMOOTH",
"631 454 OFFCURVE",
"523 540 OFFCURVE",
"333 540 CURVE SMOOTH"
);
},
{
closed = 1;
nodes = (
"397 413 OFFCURVE",
"430 379 OFFCURVE",
"430 324 CURVE",
"236 324 LINE",
"243 379 OFFCURVE",
"274 413 OFFCURVE",
"341 413 CURVE SMOOTH"
);
},
{
closed = 1;
nodes = (
"524 721 LINE",
"522 725 LINE",
"330 725 LINE",
"237 592 LINE",
"365 592 LINE"
);
}
);
width = 667;
}
);
unicode = 00E9;
},
{
color = 0;
glyphname = ebreve;
lastChange = "2013-12-03 22:30:04 +0000";
layers = (
{
layerId = "87647C87-E27A-4883-B22D-08F5E311E309";
paths = (
{
closed = 1;
nodes = (
"153 540 OFFCURVE",
"36 449 OFFCURVE",
"36 264 CURVE SMOOTH",
"36 74 OFFCURVE",
"155 -12 OFFCURVE",
"345 -12 CURVE SMOOTH",
"535 -12 OFFCURVE",
"631 66 OFFCURVE",
"631 192 CURVE",
"438 192 LINE",
"438 149 OFFCURVE",
"412 115 OFFCURVE",
"341 115 CURVE SMOOTH",
"265 115 OFFCURVE",
"235 157 OFFCURVE",
"235 230 CURVE",
"631 230 LINE",
"631 264 LINE SMOOTH",
"631 454 OFFCURVE",
"523 540 OFFCURVE",
"333 540 CURVE SMOOTH"
);
},
{
closed = 1;
nodes = (
"397 413 OFFCURVE",
"430 379 OFFCURVE",
"430 324 CURVE",
"236 324 LINE",
"243 379 OFFCURVE",
"274 413 OFFCURVE",
"341 413 CURVE SMOOTH"
);
},
{
closed = 1;
nodes = (
"423 725 LINE",
"419 704 OFFCURVE",
"383 675 OFFCURVE",
"333 675 CURVE SMOOTH",
"309 675 OFFCURVE",
"288 682 OFFCURVE",
"272 692 CURVE SMOOTH",
"257 702 OFFCURVE",
"247 715 OFFCURVE",
"245 725 CURVE",
"149 725 LINE",
"149 658 OFFCURVE",
"218 581 OFFCURVE",
"333 581 CURVE SMOOTH",
"447 581 OFFCURVE",
"518 658 OFFCURVE",
"518 725 CURVE"
);
}
);
width = 667;
}
);
unicode = 0115;
},
{
color = 0;
glyphname = ecaron;
lastChange = "2013-12-03 22:30:04 +0000";
layers = (
{
layerId = "87647C87-E27A-4883-B22D-08F5E311E309";
paths = (
{
closed = 1;
nodes = (
"153 540 OFFCURVE",
"36 449 OFFCURVE",
"36 264 CURVE SMOOTH",
"36 74 OFFCURVE",
"155 -12 OFFCURVE",
"345 -12 CURVE SMOOTH",
"535 -12 OFFCURVE",
"631 66 OFFCURVE",
"631 192 CURVE",
"438 192 LINE",
"438 149 OFFCURVE",
"412 115 OFFCURVE",
"341 115 CURVE SMOOTH",
"265 115 OFFCURVE",
"235 157 OFFCURVE",
"235 230 CURVE",
"631 230 LINE",
"631 264 LINE SMOOTH",
"631 454 OFFCURVE",
"523 540 OFFCURVE",
"333 540 CURVE SMOOTH"
);
},
{
closed = 1;
nodes = (
"397 413 OFFCURVE",
"430 379 OFFCURVE",
"430 324 CURVE",
"236 324 LINE",
"243 379 OFFCURVE",
"274 413 OFFCURVE",
"341 413 CURVE SMOOTH"
);
},
{
closed = 1;
nodes = (
"537 725 LINE",
"407 725 LINE",
"333 648 LINE",
"258 725 LINE",
"130 725 LINE",
"270 580 LINE",
"397 580 LINE"
);
}
);
width = 667;
}
);
unicode = 011B;
},
{
color = 0;
glyphname = ecircumflex;
lastChange = "2013-12-03 22:30:04 +0000";
layers = (
{
layerId = "87647C87-E27A-4883-B22D-08F5E311E309";
paths = (
{
closed = 1;
nodes = (
"153 540 OFFCURVE",
"36 449 OFFCURVE",
"36 264 CURVE SMOOTH",
"36 74 OFFCURVE",
"155 -12 OFFCURVE",
"345 -12 CURVE SMOOTH",
"535 -12 OFFCURVE",
"631 66 OFFCURVE",
"631 192 CURVE",
"438 192 LINE",
"438 149 OFFCURVE",
"412 115 OFFCURVE",
"341 115 CURVE SMOOTH",
"265 115 OFFCURVE",
"235 157 OFFCURVE",
"235 230 CURVE",
"631 230 LINE",
"631 264 LINE SMOOTH",
"631 454 OFFCURVE",
"523 540 OFFCURVE",
"333 540 CURVE SMOOTH"
);
},
{
closed = 1;
nodes = (
"397 413 OFFCURVE",
"430 379 OFFCURVE",
"430 324 CURVE",
"236 324 LINE",
"243 379 OFFCURVE",
"274 413 OFFCURVE",
"341 413 CURVE SMOOTH"
);
},
{
closed = 1;
nodes = (
"397 725 LINE",
"270 725 LINE",
"130 580 LINE",
"258 580 LINE",
"333 657 LINE",
"407 580 LINE",
"537 580 LINE"
);
}
);
width = 667;
}
);
unicode = 00EA;
},
{
color = 0;
glyphname = edieresis;
lastChange = "2013-12-03 22:30:04 +0000";
layers = (
{
layerId = "87647C87-E27A-4883-B22D-08F5E311E309";
paths = (
{
closed = 1;
nodes = (
"153 540 OFFCURVE",
"36 449 OFFCURVE",
"36 264 CURVE SMOOTH",
"36 74 OFFCURVE",
"155 -12 OFFCURVE",
"345 -12 CURVE SMOOTH",
"535 -12 OFFCURVE",
"631 66 OFFCURVE",
"631 192 CURVE",
"438 192 LINE",
"438 149 OFFCURVE",
"412 115 OFFCURVE",
"341 115 CURVE SMOOTH",
"265 115 OFFCURVE",
"235 157 OFFCURVE",
"235 230 CURVE",
"631 230 LINE",
"631 264 LINE SMOOTH",
"631 454 OFFCURVE",
"523 540 OFFCURVE",
"333 540 CURVE SMOOTH"
);
},
{
closed = 1;
nodes = (
"397 413 OFFCURVE",
"430 379 OFFCURVE",
"430 324 CURVE",
"236 324 LINE",
"243 379 OFFCURVE",
"274 413 OFFCURVE",
"341 413 CURVE SMOOTH"
);
},
{
closed = 1;
nodes = (
"520 725 LINE",
"368 725 LINE",
"368 586 LINE",
"520 586 LINE"
);
},
{
closed = 1;
nodes = (
"299 725 LINE",
"147 725 LINE",
"147 586 LINE",
"299 586 LINE"
);
}
);
width = 667;
}
);
unicode = 00EB;
},
{
color = 0;
glyphname = edotaccent;
lastChange = "2013-12-03 22:30:04 +0000";
layers = (
{
layerId = "87647C87-E27A-4883-B22D-08F5E311E309";
paths = (
{
closed = 1;
nodes = (
"153 540 OFFCURVE",
"36 449 OFFCURVE",
"36 264 CURVE SMOOTH",
"36 74 OFFCURVE",
"155 -12 OFFCURVE",
"345 -12 CURVE SMOOTH",
"535 -12 OFFCURVE",
"631 66 OFFCURVE",
"631 192 CURVE",
"438 192 LINE",
"438 149 OFFCURVE",
"412 115 OFFCURVE",
"341 115 CURVE SMOOTH",
"265 115 OFFCURVE",
"235 157 OFFCURVE",
"235 230 CURVE",
"631 230 LINE",
"631 264 LINE SMOOTH",
"631 454 OFFCURVE",
"523 540 OFFCURVE",
"333 540 CURVE SMOOTH"
);
},
{
closed = 1;
nodes = (
"397 413 OFFCURVE",
"430 379 OFFCURVE",
"430 324 CURVE",
"236 324 LINE",
"243 379 OFFCURVE",
"274 413 OFFCURVE",
"341 413 CURVE SMOOTH"
);
},
{
closed = 1;
nodes = (
"410 725 LINE",
"257 725 LINE",
"257 586 LINE",
"410 586 LINE"
);
}
);
width = 667;
}
);
unicode = 0117;
},
{
color = 0;
glyphname = egrave;
lastChange = "2013-12-03 22:30:04 +0000";
layers = (
{
layerId = "87647C87-E27A-4883-B22D-08F5E311E309";
paths = (
{
closed = 1;
nodes = (
"153 540 OFFCURVE",
"36 449 OFFCURVE",
"36 264 CURVE SMOOTH",
"36 74 OFFCURVE",
"155 -12 OFFCURVE",
"345 -12 CURVE SMOOTH",
"535 -12 OFFCURVE",
"631 66 OFFCURVE",
"631 192 CURVE",
"438 192 LINE",
"438 149 OFFCURVE",
"412 115 OFFCURVE",
"341 115 CURVE SMOOTH",
"265 115 OFFCURVE",
"235 157 OFFCURVE",
"235 230 CURVE",
"631 230 LINE",
"631 264 LINE SMOOTH",
"631 454 OFFCURVE",
"523 540 OFFCURVE",
"333 540 CURVE SMOOTH"
);
},
{
closed = 1;
nodes = (
"397 413 OFFCURVE",
"430 379 OFFCURVE",
"430 324 CURVE",
"236 324 LINE",
"243 379 OFFCURVE",
"274 413 OFFCURVE",
"341 413 CURVE SMOOTH"
);
},
{
closed = 1;
nodes = (
"430 592 LINE",
"337 725 LINE",
"145 725 LINE",
"143 721 LINE",
"303 592 LINE"
);
}
);
width = 667;
}
);
unicode = 00E8;
},
{
color = 0;
glyphname = emacron;
lastChange = "2013-12-03 22:30:04 +0000";
layers = (
{
layerId = "87647C87-E27A-4883-B22D-08F5E311E309";
paths = (
{
closed = 1;
nodes = (
"153 540 OFFCURVE",
"36 449 OFFCURVE",
"36 264 CURVE SMOOTH",
"36 74 OFFCURVE",
"155 -12 OFFCURVE",
"345 -12 CURVE SMOOTH",
"535 -12 OFFCURVE",
"631 66 OFFCURVE",
"631 192 CURVE",
"438 192 LINE",
"438 149 OFFCURVE",
"412 115 OFFCURVE",
"341 115 CURVE SMOOTH",
"265 115 OFFCURVE",
"235 157 OFFCURVE",
"235 230 CURVE",
"631 230 LINE",
"631 264 LINE SMOOTH",
"631 454 OFFCURVE",
"523 540 OFFCURVE",
"333 540 CURVE SMOOTH"
);
},
{
closed = 1;
nodes = (
"397 413 OFFCURVE",
"430 379 OFFCURVE",
"430 324 CURVE",
"236 324 LINE",
"243 379 OFFCURVE",
"274 413 OFFCURVE",
"341 413 CURVE SMOOTH"
);
},
{
closed = 1;
nodes = (
"492 705 LINE",
"175 705 LINE",
"175 605 LINE",
"492 605 LINE"
);
}
);
width = 667;
}
);
unicode = 0113;
},
{
color = 0;
glyphname = eogonek;
lastChange = "2013-12-03 22:30:04 +0000";
layers = (
{
layerId = "87647C87-E27A-4883-B22D-08F5E311E309";
paths = (
{
closed = 1;
nodes = (
"153 540 OFFCURVE",
"36 449 OFFCURVE",
"36 264 CURVE SMOOTH",
"36 74 OFFCURVE",
"155 -12 OFFCURVE",
"345 -12 CURVE SMOOTH",
"375 -12 LINE",
"358 -34 OFFCURVE",
"343 -61 OFFCURVE",
"343 -97 CURVE SMOOTH",
"343 -179 OFFCURVE",
"405 -211 OFFCURVE",
"470 -211 CURVE SMOOTH",
"502 -211 OFFCURVE",
"535 -206 OFFCURVE",
"565 -196 CURVE",
"565 -120 LINE",
"523 -120 LINE SMOOTH",
"479 -120 OFFCURVE",
"463 -95 OFFCURVE",
"463 -69 CURVE SMOOTH",
"463 -41 OFFCURVE",
"474 -9 OFFCURVE",
"482 5 CURVE",
"581 35 OFFCURVE",
"631 101 OFFCURVE",
"631 192 CURVE",
"438 192 LINE",
"438 149 OFFCURVE",
"412 115 OFFCURVE",
"341 115 CURVE SMOOTH",
"265 115 OFFCURVE",
"235 157 OFFCURVE",
"235 230 CURVE",
"631 230 LINE",
"631 264 LINE SMOOTH",
"631 454 OFFCURVE",
"523 540 OFFCURVE",
"333 540 CURVE SMOOTH"
);
},
{
closed = 1;
nodes = (
"397 413 OFFCURVE",
"430 379 OFFCURVE",
"430 324 CURVE",
"236 324 LINE",
"243 379 OFFCURVE",
"274 413 OFFCURVE",
"341 413 CURVE SMOOTH"
);
}
);
width = 667;
}
);
unicode = 0119;
},
{
color = 0;
glyphname = f;
lastChange = "2013-12-03 22:30:04 +0000";
layers = (
{
layerId = "87647C87-E27A-4883-B22D-08F5E311E309";
paths = (
{
closed = 1;
nodes = (
"161 737 OFFCURVE",
"82 694 OFFCURVE",
"82 550 CURVE SMOOTH",
"82 528 LINE",
"8 528 LINE",
"8 393 LINE",
"82 393 LINE",
"82 0 LINE",
"281 0 LINE",
"281 393 LINE",
"383 393 LINE",
"383 528 LINE",
"281 528 LINE",
"281 549 LINE SMOOTH",
"281 586 OFFCURVE",
"293 602 OFFCURVE",
"337 602 CURVE SMOOTH",
"383 602 LINE",
"383 719 LINE",
"356 729 OFFCURVE",
"304 737 OFFCURVE",
"275 737 CURVE SMOOTH"
);
}
);
width = 389;
}
);
unicode = 0066;
},
{
color = 0;
glyphname = g;
lastChange = "2013-12-03 22:31:02 +0000";
layers = (
{
anchors = (
{
name = top;
position = "{334, 528}";
}
);
layerId = "87647C87-E27A-4883-B22D-08F5E311E309";
paths = (
{
closed = 1;
nodes = (
"490 627 LINE SMOOTH",
"490 627 OFFCURVE",
"491 583 OFFCURVE",
"412 534 CURVE",
"390 538 OFFCURVE",
"365 540 OFFCURVE",
"325 540 CURVE SMOOTH",
"177 540 OFFCURVE",
"53 500 OFFCURVE",
"53 369 CURVE SMOOTH",
"53 318 OFFCURVE",
"90 274 OFFCURVE",
"138 243 CURVE",
"82 229 OFFCURVE",
"37 183 OFFCURVE",
"37 130 CURVE SMOOTH",
"37 92 OFFCURVE",
"57 59 OFFCURVE",
"89 37 CURVE",
"45 17 OFFCURVE",
"5 -26 OFFCURVE",
"5 -81 CURVE SMOOTH",
"5 -154 OFFCURVE",
"65 -210 OFFCURVE",
"138 -210 CURVE SMOOTH",
"432 -210 LINE SMOOTH",
"550 -210 OFFCURVE",
"654 -147 OFFCURVE",
"654 -29 CURVE SMOOTH",
"654 69 OFFCURVE",
"598 140 OFFCURVE",
"476 140 CURVE SMOOTH",
"296 140 LINE SMOOTH",
"245 140 OFFCURVE",
"233 154 OFFCURVE",
"233 171 CURVE SMOOTH",
"233 188 OFFCURVE",
"250 200 OFFCURVE",
"296 200 CURVE SMOOTH",
"372 200 LINE SMOOTH",
"490 200 OFFCURVE",
"594 252 OFFCURVE",
"594 370 CURVE SMOOTH",
"594 414 OFFCURVE",
"571 455 OFFCURVE",
"532 484 CURVE",
"608 504 OFFCURVE",
"654 541 OFFCURVE",
"654 627 CURVE"
);
},
{
closed = 1;
nodes = (
"402 0 LINE SMOOTH",
"431 0 OFFCURVE",
"455 -18 OFFCURVE",
"455 -49 CURVE SMOOTH",
"455 -80 OFFCURVE",
"431 -99 OFFCURVE",
"402 -99 CURVE SMOOTH",
"246 -99 LINE SMOOTH",
"217 -99 OFFCURVE",
"194 -79 OFFCURVE",
"194 -48 CURVE SMOOTH",
"194 -17 OFFCURVE",
"217 0 OFFCURVE",
"246 0 CURVE SMOOTH"
);
},
{
closed = 1;
nodes = (
"370 436 OFFCURVE",
"400 415 OFFCURVE",
"400 370 CURVE SMOOTH",
"400 325 OFFCURVE",
"370 304 OFFCURVE",
"323 304 CURVE SMOOTH",
"276 304 OFFCURVE",
"248 325 OFFCURVE",
"248 370 CURVE SMOOTH",
"248 415 OFFCURVE",
"281 436 OFFCURVE",
"323 436 CURVE SMOOTH"
);
}
);
width = 667;
}
);
unicode = 0067;
},
{
color = 0;
glyphname = gbreve;
lastChange = "2013-12-03 22:30:04 +0000";
layers = (
{
layerId = "87647C87-E27A-4883-B22D-08F5E311E309";
paths = (
{
closed = 1;
nodes = (
"521 627 LINE SMOOTH",
"521 627 OFFCURVE",
"509 534 OFFCURVE",
"412 534 CURVE",
"390 538 OFFCURVE",
"365 540 OFFCURVE",
"325 540 CURVE SMOOTH",
"177 540 OFFCURVE",
"53 500 OFFCURVE",
"53 369 CURVE SMOOTH",
"53 318 OFFCURVE",
"90 274 OFFCURVE",
"138 243 CURVE",
"82 229 OFFCURVE",
"37 183 OFFCURVE",
"37 130 CURVE SMOOTH",
"37 92 OFFCURVE",
"57 59 OFFCURVE",
"89 37 CURVE",
"45 17 OFFCURVE",
"5 -26 OFFCURVE",
"5 -81 CURVE SMOOTH",
"5 -154 OFFCURVE",
"65 -210 OFFCURVE",
"138 -210 CURVE SMOOTH",
"432 -210 LINE SMOOTH",
"550 -210 OFFCURVE",
"654 -147 OFFCURVE",
"654 -29 CURVE SMOOTH",
"654 69 OFFCURVE",
"598 140 OFFCURVE",
"476 140 CURVE SMOOTH",
"296 140 LINE SMOOTH",
"245 140 OFFCURVE",
"233 154 OFFCURVE",
"233 171 CURVE SMOOTH",
"233 188 OFFCURVE",
"250 200 OFFCURVE",
"296 200 CURVE SMOOTH",
"372 200 LINE SMOOTH",
"490 200 OFFCURVE",
"594 252 OFFCURVE",
"594 370 CURVE SMOOTH",
"594 414 OFFCURVE",
"571 455 OFFCURVE",
"532 484 CURVE",
"608 504 OFFCURVE",
"654 541 OFFCURVE",
"654 627 CURVE"
);
},
{
closed = 1;
nodes = (
"402 0 LINE SMOOTH",
"431 0 OFFCURVE",
"455 -18 OFFCURVE",
"455 -49 CURVE SMOOTH",
"455 -80 OFFCURVE",
"431 -99 OFFCURVE",
"402 -99 CURVE SMOOTH",
"246 -99 LINE SMOOTH",
"217 -99 OFFCURVE",
"194 -79 OFFCURVE",
"194 -48 CURVE SMOOTH",
"194 -17 OFFCURVE",
"217 0 OFFCURVE",
"246 0 CURVE SMOOTH"
);
},
{
closed = 1;
nodes = (
"370 436 OFFCURVE",
"400 415 OFFCURVE",
"400 370 CURVE SMOOTH",
"400 325 OFFCURVE",
"370 304 OFFCURVE",
"323 304 CURVE SMOOTH",
"276 304 OFFCURVE",
"248 325 OFFCURVE",
"248 370 CURVE SMOOTH",
"248 415 OFFCURVE",
"281 436 OFFCURVE",
"323 436 CURVE SMOOTH"
);
},
{
closed = 1;
nodes = (
"419 725 LINE",
"416 704 OFFCURVE",
"379 675 OFFCURVE",
"330 675 CURVE SMOOTH",
"306 675 OFFCURVE",
"285 682 OFFCURVE",
"269 692 CURVE SMOOTH",
"254 702 OFFCURVE",
"244 715 OFFCURVE",
"242 725 CURVE",
"146 725 LINE",
"146 658 OFFCURVE",
"214 581 OFFCURVE",
"330 581 CURVE SMOOTH",
"443 581 OFFCURVE",
"515 658 OFFCURVE",
"515 725 CURVE"
);
}
);
width = 667;
}
);
unicode = 011F;
},
{
color = 0;
glyphname = gcircumflex;
lastChange = "2013-12-03 22:30:04 +0000";
layers = (
{
layerId = "87647C87-E27A-4883-B22D-08F5E311E309";
paths = (
{
closed = 1;
nodes = (
"521 627 LINE SMOOTH",
"521 627 OFFCURVE",
"534 534 OFFCURVE",
"412 534 CURVE",
"390 538 OFFCURVE",
"365 540 OFFCURVE",
"325 540 CURVE SMOOTH",
"177 540 OFFCURVE",
"53 500 OFFCURVE",
"53 369 CURVE SMOOTH",
"53 318 OFFCURVE",
"90 274 OFFCURVE",
"138 243 CURVE",
"82 229 OFFCURVE",
"37 183 OFFCURVE",
"37 130 CURVE SMOOTH",
"37 92 OFFCURVE",
"57 59 OFFCURVE",
"89 37 CURVE",
"45 17 OFFCURVE",
"5 -26 OFFCURVE",
"5 -81 CURVE SMOOTH",
"5 -154 OFFCURVE",
"65 -210 OFFCURVE",
"138 -210 CURVE SMOOTH",
"432 -210 LINE SMOOTH",
"550 -210 OFFCURVE",
"654 -147 OFFCURVE",
"654 -29 CURVE SMOOTH",
"654 69 OFFCURVE",
"598 140 OFFCURVE",
"476 140 CURVE SMOOTH",
"296 140 LINE SMOOTH",
"245 140 OFFCURVE",
"233 154 OFFCURVE",
"233 171 CURVE SMOOTH",
"233 188 OFFCURVE",
"250 200 OFFCURVE",
"296 200 CURVE SMOOTH",
"372 200 LINE SMOOTH",
"490 200 OFFCURVE",
"594 252 OFFCURVE",
"594 370 CURVE SMOOTH",
"594 414 OFFCURVE",
"571 455 OFFCURVE",
"532 484 CURVE",
"608 504 OFFCURVE",
"654 541 OFFCURVE",
"654 627 CURVE"
);
},
{
closed = 1;
nodes = (
"402 0 LINE SMOOTH",
"431 0 OFFCURVE",
"455 -18 OFFCURVE",
"455 -49 CURVE SMOOTH",
"455 -80 OFFCURVE",
"431 -99 OFFCURVE",
"402 -99 CURVE SMOOTH",
"246 -99 LINE SMOOTH",
"217 -99 OFFCURVE",
"194 -79 OFFCURVE",
"194 -48 CURVE SMOOTH",
"194 -17 OFFCURVE",
"217 0 OFFCURVE",
"246 0 CURVE SMOOTH"
);
},
{
closed = 1;
nodes = (
"370 436 OFFCURVE",
"400 415 OFFCURVE",
"400 370 CURVE SMOOTH",
"400 325 OFFCURVE",
"370 304 OFFCURVE",
"323 304 CURVE SMOOTH",
"276 304 OFFCURVE",
"248 325 OFFCURVE",
"248 370 CURVE SMOOTH",
"248 415 OFFCURVE",
"281 436 OFFCURVE",
"323 436 CURVE SMOOTH"
);
},
{
closed = 1;
nodes = (
"370 725 LINE",
"242 725 LINE",
"122 580 LINE",
"250 580 LINE",
"305 657 LINE",
"359 580 LINE",
"489 580 LINE"
);
}
);
width = 667;
}
);
unicode = 011D;
},
{
color = 0;
glyphname = gcommaaccent;
lastChange = "2013-12-03 22:30:04 +0000";
layers = (
{
layerId = "87647C87-E27A-4883-B22D-08F5E311E309";
paths = (
{
closed = 1;
nodes = (
"490 627 LINE SMOOTH",
"490 627 OFFCURVE",
"491 583 OFFCURVE",
"412 534 CURVE",
"390 538 OFFCURVE",
"365 540 OFFCURVE",
"325 540 CURVE SMOOTH",
"177 540 OFFCURVE",
"53 500 OFFCURVE",
"53 369 CURVE SMOOTH",
"53 318 OFFCURVE",
"90 274 OFFCURVE",
"138 243 CURVE",
"82 229 OFFCURVE",
"37 183 OFFCURVE",
"37 130 CURVE SMOOTH",
"37 92 OFFCURVE",
"57 59 OFFCURVE",
"89 37 CURVE",
"45 17 OFFCURVE",
"5 -26 OFFCURVE",
"5 -81 CURVE SMOOTH",
"5 -154 OFFCURVE",
"65 -210 OFFCURVE",
"138 -210 CURVE SMOOTH",
"432 -210 LINE SMOOTH",
"550 -210 OFFCURVE",
"654 -147 OFFCURVE",
"654 -29 CURVE SMOOTH",
"654 69 OFFCURVE",
"598 140 OFFCURVE",
"476 140 CURVE SMOOTH",
"296 140 LINE SMOOTH",
"245 140 OFFCURVE",
"233 154 OFFCURVE",
"233 171 CURVE SMOOTH",
"233 188 OFFCURVE",
"250 200 OFFCURVE",
"296 200 CURVE SMOOTH",
"372 200 LINE SMOOTH",
"490 200 OFFCURVE",
"594 252 OFFCURVE",
"594 370 CURVE SMOOTH",
"594 414 OFFCURVE",
"571 455 OFFCURVE",
"532 484 CURVE",
"608 504 OFFCURVE",
"654 541 OFFCURVE",
"654 627 CURVE"
);
},
{
closed = 1;
nodes = (
"258 572 LINE",
"388 572 LINE",
"388 688 LINE",
"338 688 LINE",
"379 780 LINE",
"312 780 LINE",
"258 681 LINE"
);
},
{
closed = 1;
nodes = (
"402 0 LINE SMOOTH",
"431 0 OFFCURVE",
"455 -18 OFFCURVE",
"455 -49 CURVE SMOOTH",
"455 -80 OFFCURVE",
"431 -99 OFFCURVE",
"402 -99 CURVE SMOOTH",
"246 -99 LINE SMOOTH",
"217 -99 OFFCURVE",
"194 -79 OFFCURVE",
"194 -48 CURVE SMOOTH",
"194 -17 OFFCURVE",
"217 0 OFFCURVE",
"246 0 CURVE SMOOTH"
);
},
{
closed = 1;
nodes = (
"370 436 OFFCURVE",
"400 415 OFFCURVE",
"400 370 CURVE SMOOTH",
"400 325 OFFCURVE",
"370 304 OFFCURVE",
"323 304 CURVE SMOOTH",
"276 304 OFFCURVE",
"248 325 OFFCURVE",
"248 370 CURVE SMOOTH",
"248 415 OFFCURVE",
"281 436 OFFCURVE",
"323 436 CURVE SMOOTH"
);
}
);
width = 667;
}
);
unicode = 0123;
},
{
color = 0;
glyphname = gdotaccent;
lastChange = "2013-12-03 22:30:04 +0000";
layers = (
{
layerId = "87647C87-E27A-4883-B22D-08F5E311E309";
paths = (
{
closed = 1;
nodes = (
"490 627 LINE SMOOTH",
"490 627 OFFCURVE",
"491 583 OFFCURVE",
"412 534 CURVE",
"390 538 OFFCURVE",
"365 540 OFFCURVE",
"325 540 CURVE SMOOTH",
"177 540 OFFCURVE",
"53 500 OFFCURVE",
"53 369 CURVE SMOOTH",
"53 318 OFFCURVE",
"90 274 OFFCURVE",
"138 243 CURVE",
"82 229 OFFCURVE",
"37 183 OFFCURVE",
"37 130 CURVE SMOOTH",
"37 92 OFFCURVE",
"57 59 OFFCURVE",
"89 37 CURVE",
"45 17 OFFCURVE",
"5 -26 OFFCURVE",
"5 -81 CURVE SMOOTH",
"5 -154 OFFCURVE",
"65 -210 OFFCURVE",
"138 -210 CURVE SMOOTH",
"432 -210 LINE SMOOTH",
"550 -210 OFFCURVE",
"654 -147 OFFCURVE",
"654 -29 CURVE SMOOTH",
"654 69 OFFCURVE",
"598 140 OFFCURVE",
"476 140 CURVE SMOOTH",
"296 140 LINE SMOOTH",
"245 140 OFFCURVE",
"233 154 OFFCURVE",
"233 171 CURVE SMOOTH",
"233 188 OFFCURVE",
"250 200 OFFCURVE",
"296 200 CURVE SMOOTH",
"372 200 LINE SMOOTH",
"490 200 OFFCURVE",
"594 252 OFFCURVE",
"594 370 CURVE SMOOTH",
"594 414 OFFCURVE",
"571 455 OFFCURVE",
"532 484 CURVE",
"608 504 OFFCURVE",
"654 541 OFFCURVE",
"654 627 CURVE"
);
},
{
closed = 1;
nodes = (
"402 0 LINE SMOOTH",
"431 0 OFFCURVE",
"455 -18 OFFCURVE",
"455 -49 CURVE SMOOTH",
"455 -80 OFFCURVE",
"431 -99 OFFCURVE",
"402 -99 CURVE SMOOTH",
"246 -99 LINE SMOOTH",
"217 -99 OFFCURVE",
"194 -79 OFFCURVE",
"194 -48 CURVE SMOOTH",
"194 -17 OFFCURVE",
"217 0 OFFCURVE",
"246 0 CURVE SMOOTH"
);
},
{
closed = 1;
nodes = (
"370 436 OFFCURVE",
"400 415 OFFCURVE",
"400 370 CURVE SMOOTH",
"400 325 OFFCURVE",
"370 304 OFFCURVE",
"323 304 CURVE SMOOTH",
"276 304 OFFCURVE",
"248 325 OFFCURVE",
"248 370 CURVE SMOOTH",
"248 415 OFFCURVE",
"281 436 OFFCURVE",
"323 436 CURVE SMOOTH"
);
},
{
closed = 1;
nodes = (
"379 725 LINE",
"227 725 LINE",
"227 586 LINE",
"379 586 LINE"
);
}
);
width = 667;
}
);
unicode = 0121;
},
{
color = 0;
glyphname = h;
lastChange = "2013-12-03 22:31:02 +0000";
layers = (
{
anchors = (
{
name = center;
position = "{334, 264}";
},
{
name = top;
position = "{334, 528}";
}
);
layerId = "87647C87-E27A-4883-B22D-08F5E311E309";
paths = (
{
closed = 1;
nodes = (
"259 725 LINE",
"60 725 LINE",
"60 0 LINE",
"259 0 LINE",
"259 310 LINE SMOOTH",
"259 355 OFFCURVE",
"292 393 OFFCURVE",
"342 393 CURVE SMOOTH",
"386 393 OFFCURVE",
"409 362 OFFCURVE",
"409 318 CURVE SMOOTH",
"409 0 LINE",
"608 0 LINE",
"608 342 LINE SMOOTH",
"608 467 OFFCURVE",
"549 540 OFFCURVE",
"424 540 CURVE SMOOTH",
"361 540 OFFCURVE",
"301 515 OFFCURVE",
"259 473 CURVE"
);
}
);
width = 667;
}
);
unicode = 0068;
},
{
color = 0;
glyphname = hbar;
lastChange = "2013-12-03 22:30:04 +0000";
layers = (
{
layerId = "87647C87-E27A-4883-B22D-08F5E311E309";
paths = (
{
closed = 1;
nodes = (
"259 725 LINE",
"60 725 LINE",
"60 668 LINE",
"-2 668 LINE",
"-2 575 LINE",
"60 575 LINE",
"60 0 LINE",
"259 0 LINE",
"259 310 LINE SMOOTH",
"259 355 OFFCURVE",
"292 393 OFFCURVE",
"342 393 CURVE SMOOTH",
"386 393 OFFCURVE",
"409 362 OFFCURVE",
"409 318 CURVE SMOOTH",
"409 0 LINE",
"608 0 LINE",
"608 342 LINE SMOOTH",
"608 467 OFFCURVE",
"549 540 OFFCURVE",
"424 540 CURVE SMOOTH",
"361 540 OFFCURVE",
"301 515 OFFCURVE",
"259 473 CURVE",
"259 575 LINE",
"329 575 LINE",
"329 668 LINE",
"259 668 LINE"
);
}
);
width = 667;
}
);
unicode = 0127;
},
{
color = 0;
glyphname = hcircumflex;
lastChange = "2013-12-03 22:30:04 +0000";
layers = (
{
layerId = "87647C87-E27A-4883-B22D-08F5E311E309";
paths = (
{
closed = 1;
nodes = (
"259 725 LINE",
"60 725 LINE",
"60 0 LINE",
"259 0 LINE",
"259 310 LINE SMOOTH",
"259 355 OFFCURVE",
"292 393 OFFCURVE",
"342 393 CURVE SMOOTH",
"386 393 OFFCURVE",
"409 362 OFFCURVE",
"409 318 CURVE SMOOTH",
"409 0 LINE",
"608 0 LINE",
"608 342 LINE SMOOTH",
"608 467 OFFCURVE",
"549 540 OFFCURVE",
"424 540 CURVE SMOOTH",
"361 540 OFFCURVE",
"301 515 OFFCURVE",
"259 473 CURVE"
);
},
{
closed = 1;
nodes = (
"224 885 LINE",
"96 885 LINE",
"-43 740 LINE",
"84 740 LINE",
"159 817 LINE",
"233 740 LINE",
"363 740 LINE"
);
}
);
width = 667;
}
);
unicode = 0125;
},
{
color = 0;
glyphname = i;
lastChange = "2013-12-03 22:30:04 +0000";
layers = (
{
layerId = "87647C87-E27A-4883-B22D-08F5E311E309";
paths = (
{
closed = 1;
nodes = (
"266 528 LINE",
"67 528 LINE",
"67 0 LINE",
"266 0 LINE"
);
},
{
closed = 1;
nodes = (
"266 725 LINE",
"67 725 LINE",
"67 590 LINE",
"266 590 LINE"
);
}
);
width = 333;
}
);
unicode = 0069;
},
{
color = 0;
glyphname = dotlessi;
lastChange = "2013-12-03 22:31:02 +0000";
layers = (
{
anchors = (
{
name = ogonek;
position = "{300, 10}";
},
{
name = top;
position = "{167, 528}";
}
);
layerId = "87647C87-E27A-4883-B22D-08F5E311E309";
paths = (
{
closed = 1;
nodes = (
"266 528 LINE",
"67 528 LINE",
"67 0 LINE",
"266 0 LINE"
);
}
);
width = 333;
}
);
unicode = 0131;
},
{
color = 0;
glyphname = iacute;
lastChange = "2013-12-03 22:30:04 +0000";
layers = (
{
layerId = "87647C87-E27A-4883-B22D-08F5E311E309";
paths = (
{
closed = 1;
nodes = (
"266 0 LINE",
"266 528 LINE",
"67 528 LINE",
"67 0 LINE"
);
},
{
closed = 1;
nodes = (
"357 721 LINE",
"355 725 LINE",
"163 725 LINE",
"70 592 LINE",
"198 592 LINE"
);
}
);
width = 333;
}
);
unicode = 00ED;
},
{
color = 0;
glyphname = ibreve;
lastChange = "2013-12-03 22:30:04 +0000";
layers = (
{
layerId = "87647C87-E27A-4883-B22D-08F5E311E309";
paths = (
{
closed = 1;
nodes = (
"266 528 LINE",
"67 528 LINE",
"67 0 LINE",
"266 0 LINE"
);
},
{
closed = 1;
nodes = (
"256 725 LINE",
"252 704 OFFCURVE",
"216 675 OFFCURVE",
"166 675 CURVE SMOOTH",
"142 675 OFFCURVE",
"121 682 OFFCURVE",
"105 692 CURVE SMOOTH",
"90 702 OFFCURVE",
"80 715 OFFCURVE",
"78 725 CURVE",
"-18 725 LINE",
"-18 658 OFFCURVE",
"51 581 OFFCURVE",
"166 581 CURVE SMOOTH",
"280 581 OFFCURVE",
"351 658 OFFCURVE",
"351 725 CURVE"
);
}
);
width = 333;
}
);
unicode = 012D;
},
{
color = 0;
glyphname = icircumflex;
lastChange = "2013-12-03 22:30:04 +0000";
layers = (
{
layerId = "87647C87-E27A-4883-B22D-08F5E311E309";
paths = (
{
closed = 1;
nodes = (
"266 528 LINE",
"67 528 LINE",
"67 0 LINE",
"266 0 LINE"
);
},
{
closed = 1;
nodes = (
"230 725 LINE",
"103 725 LINE",
"-37 580 LINE",
"91 580 LINE",
"166 657 LINE",
"240 580 LINE",
"370 580 LINE"
);
}
);
width = 333;
}
);
unicode = 00EE;
},
{
color = 0;
glyphname = idieresis;
lastChange = "2013-12-03 22:30:04 +0000";
layers = (
{
layerId = "87647C87-E27A-4883-B22D-08F5E311E309";
paths = (
{
closed = 1;
nodes = (
"266 528 LINE",
"67 528 LINE",
"67 0 LINE",
"266 0 LINE"
);
},
{
closed = 1;
nodes = (
"353 725 LINE",
"201 725 LINE",
"201 586 LINE",
"353 586 LINE"
);
},
{
closed = 1;
nodes = (
"132 725 LINE",
"-20 725 LINE",
"-20 586 LINE",
"132 586 LINE"
);
}
);
width = 333;
}
);
unicode = 00EF;
},
{
color = 0;
glyphname = igrave;
lastChange = "2013-12-03 22:30:04 +0000";
layers = (
{
layerId = "87647C87-E27A-4883-B22D-08F5E311E309";
paths = (
{
closed = 1;
nodes = (
"266 0 LINE",
"266 528 LINE",
"67 528 LINE",
"67 0 LINE"
);
},
{
closed = 1;
nodes = (
"263 592 LINE",
"170 725 LINE",
"-22 725 LINE",
"-24 721 LINE",
"136 592 LINE"
);
}
);
width = 333;
}
);
unicode = 00EC;
},
{
color = 0;
glyphname = ij;
lastChange = "2013-12-03 22:30:04 +0000";
layers = (
{
layerId = "87647C87-E27A-4883-B22D-08F5E311E309";
paths = (
{
closed = 1;
nodes = (
"601 528 LINE",
"402 528 LINE",
"402 -9 LINE SMOOTH",
"402 -50 OFFCURVE",
"386 -73 OFFCURVE",
"346 -73 CURVE SMOOTH",
"294 -73 LINE",
"294 -192 LINE",
"325 -203 OFFCURVE",
"386 -210 OFFCURVE",
"418 -210 CURVE SMOOTH",
"546 -210 OFFCURVE",
"601 -157 OFFCURVE",
"601 -29 CURVE SMOOTH"
);
},
{
closed = 1;
nodes = (
"601 725 LINE",
"402 725 LINE",
"402 590 LINE",
"601 590 LINE"
);
},
{
closed = 1;
nodes = (
"266 528 LINE",
"67 528 LINE",
"67 0 LINE",
"266 0 LINE"
);
},
{
closed = 1;
nodes = (
"266 725 LINE",
"67 725 LINE",
"67 590 LINE",
"266 590 LINE"
);
}
);
width = 668;
}
);
unicode = 0133;
},
{
color = 0;
glyphname = imacron;
lastChange = "2013-12-03 22:30:04 +0000";
layers = (
{
layerId = "87647C87-E27A-4883-B22D-08F5E311E309";
paths = (
{
closed = 1;
nodes = (
"266 528 LINE",
"67 528 LINE",
"67 0 LINE",
"266 0 LINE"
);
},
{
closed = 1;
nodes = (
"325 705 LINE",
"8 705 LINE",
"8 605 LINE",
"325 605 LINE"
);
}
);
width = 333;
}
);
unicode = 012B;
},
{
color = 0;
glyphname = iogonek;
lastChange = "2013-12-03 22:30:04 +0000";
layers = (
{
layerId = "87647C87-E27A-4883-B22D-08F5E311E309";
paths = (
{
closed = 1;
nodes = (
"266 528 LINE",
"67 528 LINE",
"67 0 LINE",
"146 0 LINE",
"126 -25 OFFCURVE",
"106 -55 OFFCURVE",
"106 -97 CURVE SMOOTH",
"106 -179 OFFCURVE",
"168 -211 OFFCURVE",
"233 -211 CURVE SMOOTH",
"266 -211 OFFCURVE",
"298 -206 OFFCURVE",
"329 -196 CURVE",
"329 -120 LINE",
"287 -120 LINE SMOOTH",
"242 -120 OFFCURVE",
"227 -95 OFFCURVE",
"227 -69 CURVE SMOOTH",
"227 -43 OFFCURVE",
"235 -16 OFFCURVE",
"243 0 CURVE",
"266 0 LINE"
);
},
{
closed = 1;
nodes = (
"243 725 LINE",
"90 725 LINE",
"90 586 LINE",
"243 586 LINE"
);
}
);
width = 333;
}
);
unicode = 012F;
},
{
color = 0;
glyphname = itilde;
lastChange = "2013-12-03 22:30:04 +0000";
layers = (
{
layerId = "87647C87-E27A-4883-B22D-08F5E311E309";
paths = (
{
closed = 1;
nodes = (
"266 528 LINE",
"67 528 LINE",
"67 0 LINE",
"266 0 LINE"
);
},
{
closed = 1;
nodes = (
"308 725 LINE",
"300 702 OFFCURVE",
"283 685 OFFCURVE",
"257 685 CURVE SMOOTH",
"204 685 OFFCURVE",
"148 725 OFFCURVE",
"84 725 CURVE SMOOTH",
"0 725 OFFCURVE",
"-56 654 OFFCURVE",
"-56 582 CURVE",
"25 582 LINE",
"33 605 OFFCURVE",
"50 622 OFFCURVE",
"76 622 CURVE SMOOTH",
"129 622 OFFCURVE",
"185 582 OFFCURVE",
"249 582 CURVE SMOOTH",
"333 582 OFFCURVE",
"389 653 OFFCURVE",
"389 725 CURVE"
);
}
);
width = 333;
}
);
unicode = 0129;
},
{
color = 0;
glyphname = j;
lastChange = "2013-12-03 22:30:04 +0000";
layers = (
{
layerId = "87647C87-E27A-4883-B22D-08F5E311E309";
paths = (
{
closed = 1;
nodes = (
"266 528 LINE",
"67 528 LINE",
"67 -9 LINE SMOOTH",
"67 -50 OFFCURVE",
"51 -73 OFFCURVE",
"11 -73 CURVE SMOOTH",
"-41 -73 LINE",
"-41 -192 LINE",
"-10 -203 OFFCURVE",
"51 -210 OFFCURVE",
"83 -210 CURVE SMOOTH",
"211 -210 OFFCURVE",
"266 -157 OFFCURVE",
"266 -29 CURVE SMOOTH"
);
},
{
closed = 1;
nodes = (
"266 725 LINE",
"67 725 LINE",
"67 590 LINE",
"266 590 LINE"
);
}
);
width = 333;
}
);
unicode = 006A;
},
{
color = 0;
glyphname = jcircumflex;
lastChange = "2013-12-03 22:30:04 +0000";
layers = (
{
layerId = "87647C87-E27A-4883-B22D-08F5E311E309";
paths = (
{
closed = 1;
nodes = (
"266 528 LINE",
"67 528 LINE",
"67 -9 LINE SMOOTH",
"67 -50 OFFCURVE",
"51 -73 OFFCURVE",
"11 -73 CURVE SMOOTH",
"-41 -73 LINE",
"-41 -192 LINE",
"-10 -203 OFFCURVE",
"51 -210 OFFCURVE",
"83 -210 CURVE SMOOTH",
"211 -210 OFFCURVE",
"266 -157 OFFCURVE",
"266 -29 CURVE SMOOTH"
);
},
{
closed = 1;
nodes = (
"232 725 LINE",
"104 725 LINE",
"-35 580 LINE",
"93 580 LINE",
"167 657 LINE",
"241 580 LINE",
"371 580 LINE"
);
}
);
width = 333;
}
);
unicode = 0135;
},
{
color = 0;
glyphname = k;
lastChange = "2013-12-03 22:31:02 +0000";
layers = (
{
anchors = (
{
name = bottom;
position = "{334, 0}";
}
);
layerId = "87647C87-E27A-4883-B22D-08F5E311E309";
paths = (
{
closed = 1;
nodes = (
"259 726 LINE",
"60 726 LINE",
"60 0 LINE",
"259 0 LINE",
"259 114 LINE",
"328 181 LINE",
"439 0 LINE",
"665 0 LINE",
"465 315 LINE",
"660 528 LINE",
"428 528 LINE",
"259 326 LINE"
);
}
);
width = 667;
}
);
unicode = 006B;
},
{
color = 0;
glyphname = kcommaaccent;
lastChange = "2013-12-03 22:30:04 +0000";
layers = (
{
layerId = "87647C87-E27A-4883-B22D-08F5E311E309";
paths = (
{
closed = 1;
nodes = (
"259 726 LINE",
"60 726 LINE",
"60 0 LINE",
"259 0 LINE",
"259 114 LINE",
"328 181 LINE",
"439 0 LINE",
"665 0 LINE",
"465 315 LINE",
"660 528 LINE",
"428 528 LINE",
"259 326 LINE"
);
},
{
closed = 1;
nodes = (
"398 -59 LINE",
"269 -59 LINE",
"269 -175 LINE",
"318 -175 LINE",
"277 -267 LINE",
"344 -267 LINE",
"398 -168 LINE"
);
}
);
width = 667;
}
);
unicode = 0137;
},
{
color = 0;
glyphname = kgreenlandic;
lastChange = "2013-12-03 22:30:04 +0000";
layers = (
{
layerId = "87647C87-E27A-4883-B22D-08F5E311E309";
paths = (
{
closed = 1;
nodes = (
"660 528 LINE",
"428 528 LINE",
"259 326 LINE",
"259 528 LINE",
"60 528 LINE",
"60 0 LINE",
"259 0 LINE",
"259 114 LINE",
"328 181 LINE",
"439 0 LINE",
"665 0 LINE",
"465 315 LINE"
);
}
);
width = 667;
}
);
unicode = 0138;
},
{
color = 0;
glyphname = l;
lastChange = "2013-12-03 22:31:02 +0000";
layers = (
{
anchors = (
{
name = bottom;
position = "{167, 0}";
},
{
name = top;
position = "{167, 528}";
},
{
name = topright;
position = "{313, 528}";
}
);
layerId = "87647C87-E27A-4883-B22D-08F5E311E309";
paths = (
{
closed = 1;
nodes = (
"266 725 LINE",
"67 725 LINE",
"67 0 LINE",
"266 0 LINE"
);
}
);
width = 333;
}
);
unicode = 006C;
},
{
color = 0;
glyphname = lacute;
lastChange = "2013-12-03 22:30:04 +0000";
layers = (
{
layerId = "87647C87-E27A-4883-B22D-08F5E311E309";
paths = (
{
closed = 1;
nodes = (
"266 0 LINE",
"266 725 LINE",
"67 725 LINE",
"67 0 LINE"
);
},
{
closed = 1;
nodes = (
"357 881 LINE",
"355 885 LINE",
"163 885 LINE",
"70 752 LINE",
"198 752 LINE"
);
}
);
width = 333;
}
);
unicode = 013A;
},
{
color = 0;
glyphname = lcaron;
lastChange = "2013-12-03 22:30:04 +0000";
layers = (
{
layerId = "87647C87-E27A-4883-B22D-08F5E311E309";
paths = (
{
closed = 1;
nodes = (
"266 725 LINE",
"67 725 LINE",
"67 0 LINE",
"266 0 LINE"
);
},
{
closed = 1;
nodes = (
"489 688 LINE",
"303 688 LINE",
"303 513 LINE",
"374 513 LINE",
"303 331 LINE",
"398 331 LINE",
"489 523 LINE"
);
}
);
width = 500;
}
);
unicode = 013E;
},
{
color = 0;
glyphname = lcommaaccent;
lastChange = "2013-12-03 22:30:04 +0000";
layers = (
{
layerId = "87647C87-E27A-4883-B22D-08F5E311E309";
paths = (
{
closed = 1;
nodes = (
"266 725 LINE",
"67 725 LINE",
"67 0 LINE",
"266 0 LINE"
);
},
{
closed = 1;
nodes = (
"231 -59 LINE",
"102 -59 LINE",
"102 -175 LINE",
"151 -175 LINE",
"110 -267 LINE",
"177 -267 LINE",
"231 -168 LINE"
);
}
);
width = 333;
}
);
unicode = 013C;
},
{
color = 0;
glyphname = ldot;
lastChange = "2013-12-03 22:30:04 +0000";
layers = (
{
layerId = "87647C87-E27A-4883-B22D-08F5E311E309";
paths = (
{
closed = 1;
nodes = (
"266 725 LINE",
"67 725 LINE",
"67 0 LINE",
"266 0 LINE"
);
},
{
closed = 1;
nodes = (
"512 528 LINE",
"359 528 LINE",
"359 389 LINE",
"512 389 LINE"
);
}
);
width = 534;
}
);
unicode = 0140;
},
{
color = 0;
glyphname = lslash;
lastChange = "2013-12-03 22:30:04 +0000";
layers = (
{
layerId = "87647C87-E27A-4883-B22D-08F5E311E309";
paths = (
{
closed = 1;
nodes = (
"266 725 LINE",
"67 725 LINE",
"67 333 LINE",
"-15 283 LINE",
"-15 185 LINE",
"67 234 LINE",
"67 0 LINE",
"266 0 LINE",
"266 351 LINE",
"362 409 LINE",
"362 509 LINE",
"266 450 LINE"
);
}
);
width = 333;
}
);
unicode = 0142;
},
{
color = 0;
glyphname = m;
lastChange = "2013-12-03 22:30:04 +0000";
layers = (
{
layerId = "87647C87-E27A-4883-B22D-08F5E311E309";
paths = (
{
closed = 1;
nodes = (
"690 540 OFFCURVE",
"621 504 OFFCURVE",
"580 449 CURVE",
"554 507 OFFCURVE",
"501 540 OFFCURVE",
"420 540 CURVE SMOOTH",
"347 540 OFFCURVE",
"276 505 OFFCURVE",
"236 449 CURVE",
"223 528 LINE",
"60 528 LINE",
"60 0 LINE",
"259 0 LINE",
"259 310 LINE SMOOTH",
"259 355 OFFCURVE",
"290 393 OFFCURVE",
"338 393 CURVE SMOOTH",
"379 393 OFFCURVE",
"401 362 OFFCURVE",
"401 318 CURVE SMOOTH",
"401 0 LINE",
"600 0 LINE",
"600 310 LINE SMOOTH",
"600 355 OFFCURVE",
"631 393 OFFCURVE",
"679 393 CURVE SMOOTH",
"720 393 OFFCURVE",
"742 362 OFFCURVE",
"742 318 CURVE SMOOTH",
"742 0 LINE",
"941 0 LINE",
"941 342 LINE SMOOTH",
"941 467 OFFCURVE",
"883 540 OFFCURVE",
"761 540 CURVE SMOOTH"
);
}
);
width = 1000;
}
);
unicode = 006D;
},
{
color = 0;
glyphname = n;
lastChange = "2013-12-03 22:31:02 +0000";
layers = (
{
anchors = (
{
name = bottom;
position = "{334, 0}";
},
{
name = top;
position = "{334, 528}";
}
);
layerId = "87647C87-E27A-4883-B22D-08F5E311E309";
paths = (
{
closed = 1;
nodes = (
"349 540 OFFCURVE",
"277 504 OFFCURVE",
"236 448 CURVE",
"223 528 LINE",
"60 528 LINE",
"60 0 LINE",
"259 0 LINE",
"259 310 LINE SMOOTH",
"259 355 OFFCURVE",
"292 393 OFFCURVE",
"342 393 CURVE SMOOTH",
"386 393 OFFCURVE",
"409 362 OFFCURVE",
"409 318 CURVE SMOOTH",
"409 0 LINE",
"608 0 LINE",
"608 342 LINE SMOOTH",
"608 467 OFFCURVE",
"549 540 OFFCURVE",
"424 540 CURVE SMOOTH"
);
}
);
width = 667;
}
);
unicode = 006E;
},
{
color = 0;
glyphname = nacute;
lastChange = "2013-12-03 22:30:04 +0000";
layers = (
{
layerId = "87647C87-E27A-4883-B22D-08F5E311E309";
paths = (
{
closed = 1;
nodes = (
"349 540 OFFCURVE",
"277 504 OFFCURVE",
"236 448 CURVE",
"223 528 LINE",
"60 528 LINE",
"60 0 LINE",
"259 0 LINE",
"259 310 LINE SMOOTH",
"259 355 OFFCURVE",
"292 393 OFFCURVE",
"342 393 CURVE SMOOTH",
"386 393 OFFCURVE",
"409 362 OFFCURVE",
"409 318 CURVE SMOOTH",
"409 0 LINE",
"608 0 LINE",
"608 342 LINE SMOOTH",
"608 467 OFFCURVE",
"549 540 OFFCURVE",
"424 540 CURVE SMOOTH"
);
},
{
closed = 1;
nodes = (
"524 721 LINE",
"522 725 LINE",
"330 725 LINE",
"237 592 LINE",
"365 592 LINE"
);
}
);
width = 667;
}
);
unicode = 0144;
},
{
color = 0;
glyphname = napostrophe;
lastChange = "2013-12-03 22:30:04 +0000";
layers = (
{
layerId = "87647C87-E27A-4883-B22D-08F5E311E309";
paths = (
{
closed = 1;
nodes = (
"210 688 LINE",
"81 688 LINE",
"81 572 LINE",
"130 572 LINE",
"89 480 LINE",
"156 480 LINE",
"210 579 LINE"
);
},
{
closed = 1;
nodes = (
"540 540 OFFCURVE",
"468 504 OFFCURVE",
"427 448 CURVE",
"414 528 LINE",
"251 528 LINE",
"251 0 LINE",
"450 0 LINE",
"450 310 LINE SMOOTH",
"450 355 OFFCURVE",
"483 393 OFFCURVE",
"533 393 CURVE SMOOTH",
"577 393 OFFCURVE",
"600 362 OFFCURVE",
"600 318 CURVE SMOOTH",
"600 0 LINE",
"799 0 LINE",
"799 342 LINE SMOOTH",
"799 467 OFFCURVE",
"740 540 OFFCURVE",
"615 540 CURVE SMOOTH"
);
}
);
width = 858;
}
);
unicode = 0149;
},
{
color = 0;
glyphname = ncaron;
lastChange = "2013-12-03 22:30:04 +0000";
layers = (
{
layerId = "87647C87-E27A-4883-B22D-08F5E311E309";
paths = (
{
closed = 1;
nodes = (
"349 540 OFFCURVE",
"277 504 OFFCURVE",
"236 448 CURVE",
"223 528 LINE",
"60 528 LINE",
"60 0 LINE",
"259 0 LINE",
"259 310 LINE SMOOTH",
"259 355 OFFCURVE",
"292 393 OFFCURVE",
"342 393 CURVE SMOOTH",
"386 393 OFFCURVE",
"409 362 OFFCURVE",
"409 318 CURVE SMOOTH",
"409 0 LINE",
"608 0 LINE",
"608 342 LINE SMOOTH",
"608 467 OFFCURVE",
"549 540 OFFCURVE",
"424 540 CURVE SMOOTH"
);
},
{
closed = 1;
nodes = (
"537 725 LINE",
"407 725 LINE",
"333 648 LINE",
"258 725 LINE",
"130 725 LINE",
"270 580 LINE",
"397 580 LINE"
);
}
);
width = 667;
}
);
unicode = 0148;
},
{
color = 0;
glyphname = ncommaaccent;
lastChange = "2013-12-03 22:30:04 +0000";
layers = (
{
layerId = "87647C87-E27A-4883-B22D-08F5E311E309";
paths = (
{
closed = 1;
nodes = (
"349 540 OFFCURVE",
"277 504 OFFCURVE",
"236 448 CURVE",
"223 528 LINE",
"60 528 LINE",
"60 0 LINE",
"259 0 LINE",
"259 310 LINE SMOOTH",
"259 355 OFFCURVE",
"292 393 OFFCURVE",
"342 393 CURVE SMOOTH",
"386 393 OFFCURVE",
"409 362 OFFCURVE",
"409 318 CURVE SMOOTH",
"409 0 LINE",
"608 0 LINE",
"608 342 LINE SMOOTH",
"608 467 OFFCURVE",
"549 540 OFFCURVE",
"424 540 CURVE SMOOTH"
);
},
{
closed = 1;
nodes = (
"398 -59 LINE",
"269 -59 LINE",
"269 -175 LINE",
"318 -175 LINE",
"277 -267 LINE",
"344 -267 LINE",
"398 -168 LINE"
);
}
);
width = 667;
}
);
unicode = 0146;
},
{
color = 0;
glyphname = eng;
lastChange = "2013-12-03 22:30:04 +0000";
layers = (
{
layerId = "87647C87-E27A-4883-B22D-08F5E311E309";
paths = (
{
closed = 1;
nodes = (
"356 540 OFFCURVE",
"284 504 OFFCURVE",
"243 448 CURVE",
"230 528 LINE",
"67 528 LINE",
"67 0 LINE",
"266 0 LINE",
"266 310 LINE SMOOTH",
"266 355 OFFCURVE",
"299 393 OFFCURVE",
"349 393 CURVE SMOOTH",
"393 393 OFFCURVE",
"416 362 OFFCURVE",
"416 318 CURVE SMOOTH",
"416 -9 LINE SMOOTH",
"416 -50 OFFCURVE",
"400 -73 OFFCURVE",
"360 -73 CURVE SMOOTH",
"308 -73 LINE",
"308 -192 LINE",
"339 -203 OFFCURVE",
"400 -210 OFFCURVE",
"432 -210 CURVE SMOOTH",
"560 -210 OFFCURVE",
"615 -157 OFFCURVE",
"615 -29 CURVE SMOOTH",
"615 342 LINE SMOOTH",
"615 467 OFFCURVE",
"556 540 OFFCURVE",
"431 540 CURVE SMOOTH"
);
}
);
width = 681;
}
);
unicode = 014B;
},
{
color = 0;
glyphname = ntilde;
lastChange = "2013-12-03 22:30:04 +0000";
layers = (
{
layerId = "87647C87-E27A-4883-B22D-08F5E311E309";
paths = (
{
closed = 1;
nodes = (
"349 540 OFFCURVE",
"277 504 OFFCURVE",
"236 448 CURVE",
"223 528 LINE",
"60 528 LINE",
"60 0 LINE",
"259 0 LINE",
"259 310 LINE SMOOTH",
"259 355 OFFCURVE",
"292 393 OFFCURVE",
"342 393 CURVE SMOOTH",
"386 393 OFFCURVE",
"409 362 OFFCURVE",
"409 318 CURVE SMOOTH",
"409 0 LINE",
"608 0 LINE",
"608 342 LINE SMOOTH",
"608 467 OFFCURVE",
"549 540 OFFCURVE",
"424 540 CURVE SMOOTH"
);
},
{
closed = 1;
nodes = (
"475 725 LINE",
"467 702 OFFCURVE",
"450 685 OFFCURVE",
"424 685 CURVE SMOOTH",
"371 685 OFFCURVE",
"315 725 OFFCURVE",
"251 725 CURVE SMOOTH",
"167 725 OFFCURVE",
"111 654 OFFCURVE",
"111 582 CURVE",
"192 582 LINE",
"200 605 OFFCURVE",
"217 622 OFFCURVE",
"243 622 CURVE SMOOTH",
"296 622 OFFCURVE",
"352 582 OFFCURVE",
"416 582 CURVE SMOOTH",
"500 582 OFFCURVE",
"556 653 OFFCURVE",
"556 725 CURVE"
);
}
);
width = 667;
}
);
unicode = 00F1;
},
{
color = 0;
glyphname = o;
lastChange = "2013-12-03 22:31:02 +0000";
layers = (
{
anchors = (
{
name = top;
position = "{334, 528}";
}
);
layerId = "87647C87-E27A-4883-B22D-08F5E311E309";
paths = (
{
closed = 1;
nodes = (
"153 540 OFFCURVE",
"36 449 OFFCURVE",
"36 264 CURVE SMOOTH",
"36 79 OFFCURVE",
"153 -12 OFFCURVE",
"333 -12 CURVE SMOOTH",
"513 -12 OFFCURVE",
"631 79 OFFCURVE",
"631 264 CURVE SMOOTH",
"631 449 OFFCURVE",
"513 540 OFFCURVE",
"333 540 CURVE SMOOTH"
);
},
{
closed = 1;
nodes = (
"403 405 OFFCURVE",
"432 362 OFFCURVE",
"432 292 CURVE SMOOTH",
"432 235 LINE SMOOTH",
"432 165 OFFCURVE",
"403 123 OFFCURVE",
"333 123 CURVE SMOOTH",
"263 123 OFFCURVE",
"235 165 OFFCURVE",
"235 235 CURVE SMOOTH",
"235 292 LINE SMOOTH",
"235 362 OFFCURVE",
"263 405 OFFCURVE",
"333 405 CURVE SMOOTH"
);
}
);
width = 667;
}
);
unicode = 006F;
},
{
color = 0;
glyphname = oacute;
lastChange = "2013-12-03 22:30:04 +0000";
layers = (
{
layerId = "87647C87-E27A-4883-B22D-08F5E311E309";
paths = (
{
closed = 1;
nodes = (
"153 540 OFFCURVE",
"36 449 OFFCURVE",
"36 264 CURVE SMOOTH",
"36 79 OFFCURVE",
"153 -12 OFFCURVE",
"333 -12 CURVE SMOOTH",
"513 -12 OFFCURVE",
"631 79 OFFCURVE",
"631 264 CURVE SMOOTH",
"631 449 OFFCURVE",
"513 540 OFFCURVE",
"333 540 CURVE SMOOTH"
);
},
{
closed = 1;
nodes = (
"403 405 OFFCURVE",
"432 362 OFFCURVE",
"432 292 CURVE SMOOTH",
"432 235 LINE SMOOTH",
"432 165 OFFCURVE",
"403 123 OFFCURVE",
"333 123 CURVE SMOOTH",
"263 123 OFFCURVE",
"235 165 OFFCURVE",
"235 235 CURVE SMOOTH",
"235 292 LINE SMOOTH",
"235 362 OFFCURVE",
"263 405 OFFCURVE",
"333 405 CURVE SMOOTH"
);
},
{
closed = 1;
nodes = (
"524 721 LINE",
"522 725 LINE",
"330 725 LINE",
"237 592 LINE",
"365 592 LINE"
);
}
);
width = 667;
}
);
unicode = 00F3;
},
{
color = 0;
glyphname = obreve;
lastChange = "2013-12-03 22:30:04 +0000";
layers = (
{
layerId = "87647C87-E27A-4883-B22D-08F5E311E309";
paths = (
{
closed = 1;
nodes = (
"153 540 OFFCURVE",
"36 449 OFFCURVE",
"36 264 CURVE SMOOTH",
"36 79 OFFCURVE",
"153 -12 OFFCURVE",
"333 -12 CURVE SMOOTH",
"513 -12 OFFCURVE",
"631 79 OFFCURVE",
"631 264 CURVE SMOOTH",
"631 449 OFFCURVE",
"513 540 OFFCURVE",
"333 540 CURVE SMOOTH"
);
},
{
closed = 1;
nodes = (
"403 405 OFFCURVE",
"432 362 OFFCURVE",
"432 292 CURVE SMOOTH",
"432 235 LINE SMOOTH",
"432 165 OFFCURVE",
"403 123 OFFCURVE",
"333 123 CURVE SMOOTH",
"263 123 OFFCURVE",
"235 165 OFFCURVE",
"235 235 CURVE SMOOTH",
"235 292 LINE SMOOTH",
"235 362 OFFCURVE",
"263 405 OFFCURVE",
"333 405 CURVE SMOOTH"
);
},
{
closed = 1;
nodes = (
"423 725 LINE",
"419 704 OFFCURVE",
"383 675 OFFCURVE",
"333 675 CURVE SMOOTH",
"309 675 OFFCURVE",
"288 682 OFFCURVE",
"272 692 CURVE SMOOTH",
"257 702 OFFCURVE",
"247 715 OFFCURVE",
"245 725 CURVE",
"149 725 LINE",
"149 658 OFFCURVE",
"218 581 OFFCURVE",
"333 581 CURVE SMOOTH",
"447 581 OFFCURVE",
"518 658 OFFCURVE",
"518 725 CURVE"
);
}
);
width = 667;
}
);
unicode = 014F;
},
{
color = 0;
glyphname = ocircumflex;
lastChange = "2013-12-03 22:30:04 +0000";
layers = (
{
layerId = "87647C87-E27A-4883-B22D-08F5E311E309";
paths = (
{
closed = 1;
nodes = (
"153 540 OFFCURVE",
"36 449 OFFCURVE",
"36 264 CURVE SMOOTH",
"36 79 OFFCURVE",
"153 -12 OFFCURVE",
"333 -12 CURVE SMOOTH",
"513 -12 OFFCURVE",
"631 79 OFFCURVE",
"631 264 CURVE SMOOTH",
"631 449 OFFCURVE",
"513 540 OFFCURVE",
"333 540 CURVE SMOOTH"
);
},
{
closed = 1;
nodes = (
"403 405 OFFCURVE",
"432 362 OFFCURVE",
"432 292 CURVE SMOOTH",
"432 235 LINE SMOOTH",
"432 165 OFFCURVE",
"403 123 OFFCURVE",
"333 123 CURVE SMOOTH",
"263 123 OFFCURVE",
"235 165 OFFCURVE",
"235 235 CURVE SMOOTH",
"235 292 LINE SMOOTH",
"235 362 OFFCURVE",
"263 405 OFFCURVE",
"333 405 CURVE SMOOTH"
);
},
{
closed = 1;
nodes = (
"397 725 LINE",
"270 725 LINE",
"130 580 LINE",
"258 580 LINE",
"333 657 LINE",
"407 580 LINE",
"537 580 LINE"
);
}
);
width = 667;
}
);
unicode = 00F4;
},
{
color = 0;
glyphname = odieresis;
lastChange = "2013-12-03 22:30:04 +0000";
layers = (
{
layerId = "87647C87-E27A-4883-B22D-08F5E311E309";
paths = (
{
closed = 1;
nodes = (
"153 540 OFFCURVE",
"36 449 OFFCURVE",
"36 264 CURVE SMOOTH",
"36 79 OFFCURVE",
"153 -12 OFFCURVE",
"333 -12 CURVE SMOOTH",
"513 -12 OFFCURVE",
"631 79 OFFCURVE",
"631 264 CURVE SMOOTH",
"631 449 OFFCURVE",
"513 540 OFFCURVE",
"333 540 CURVE SMOOTH"
);
},
{
closed = 1;
nodes = (
"403 405 OFFCURVE",
"432 362 OFFCURVE",
"432 292 CURVE SMOOTH",
"432 235 LINE SMOOTH",
"432 165 OFFCURVE",
"403 123 OFFCURVE",
"333 123 CURVE SMOOTH",
"263 123 OFFCURVE",
"235 165 OFFCURVE",
"235 235 CURVE SMOOTH",
"235 292 LINE SMOOTH",
"235 362 OFFCURVE",
"263 405 OFFCURVE",
"333 405 CURVE SMOOTH"
);
},
{
closed = 1;
nodes = (
"520 725 LINE",
"368 725 LINE",
"368 586 LINE",
"520 586 LINE"
);
},
{
closed = 1;
nodes = (
"299 725 LINE",
"147 725 LINE",
"147 586 LINE",
"299 586 LINE"
);
}
);
width = 667;
}
);
unicode = 00F6;
},
{
color = 0;
glyphname = ograve;
lastChange = "2013-12-03 22:30:04 +0000";
layers = (
{
layerId = "87647C87-E27A-4883-B22D-08F5E311E309";
paths = (
{
closed = 1;
nodes = (
"153 540 OFFCURVE",
"36 449 OFFCURVE",
"36 264 CURVE SMOOTH",
"36 79 OFFCURVE",
"153 -12 OFFCURVE",
"333 -12 CURVE SMOOTH",
"513 -12 OFFCURVE",
"631 79 OFFCURVE",
"631 264 CURVE SMOOTH",
"631 449 OFFCURVE",
"513 540 OFFCURVE",
"333 540 CURVE SMOOTH"
);
},
{
closed = 1;
nodes = (
"403 405 OFFCURVE",
"432 362 OFFCURVE",
"432 292 CURVE SMOOTH",
"432 235 LINE SMOOTH",
"432 165 OFFCURVE",
"403 123 OFFCURVE",
"333 123 CURVE SMOOTH",
"263 123 OFFCURVE",
"235 165 OFFCURVE",
"235 235 CURVE SMOOTH",
"235 292 LINE SMOOTH",
"235 362 OFFCURVE",
"263 405 OFFCURVE",
"333 405 CURVE SMOOTH"
);
},
{
closed = 1;
nodes = (
"430 592 LINE",
"337 725 LINE",
"145 725 LINE",
"143 721 LINE",
"303 592 LINE"
);
}
);
width = 667;
}
);
unicode = 00F2;
},
{
color = 0;
glyphname = ohungarumlaut;
lastChange = "2013-12-03 22:30:04 +0000";
layers = (
{
layerId = "87647C87-E27A-4883-B22D-08F5E311E309";
paths = (
{
closed = 1;
nodes = (
"153 540 OFFCURVE",
"36 449 OFFCURVE",
"36 264 CURVE SMOOTH",
"36 79 OFFCURVE",
"153 -12 OFFCURVE",
"333 -12 CURVE SMOOTH",
"513 -12 OFFCURVE",
"631 79 OFFCURVE",
"631 264 CURVE SMOOTH",
"631 449 OFFCURVE",
"513 540 OFFCURVE",
"333 540 CURVE SMOOTH"
);
},
{
closed = 1;
nodes = (
"403 405 OFFCURVE",
"432 362 OFFCURVE",
"432 292 CURVE SMOOTH",
"432 235 LINE SMOOTH",
"432 165 OFFCURVE",
"403 123 OFFCURVE",
"333 123 CURVE SMOOTH",
"263 123 OFFCURVE",
"235 165 OFFCURVE",
"235 235 CURVE SMOOTH",
"235 292 LINE SMOOTH",
"235 362 OFFCURVE",
"263 405 OFFCURVE",
"333 405 CURVE SMOOTH"
);
},
{
closed = 1;
nodes = (
"414 725 LINE",
"236 725 LINE",
"160 591 LINE",
"277 591 LINE",
"416 721 LINE"
);
},
{
closed = 1;
nodes = (
"625 725 LINE",
"447 725 LINE",
"371 591 LINE",
"488 591 LINE",
"627 721 LINE"
);
}
);
width = 667;
}
);
unicode = 0151;
},
{
color = 0;
glyphname = omacron;
lastChange = "2013-12-03 22:30:04 +0000";
layers = (
{
layerId = "87647C87-E27A-4883-B22D-08F5E311E309";
paths = (
{
closed = 1;
nodes = (
"153 540 OFFCURVE",
"36 449 OFFCURVE",
"36 264 CURVE SMOOTH",
"36 79 OFFCURVE",
"153 -12 OFFCURVE",
"333 -12 CURVE SMOOTH",
"513 -12 OFFCURVE",
"631 79 OFFCURVE",
"631 264 CURVE SMOOTH",
"631 449 OFFCURVE",
"513 540 OFFCURVE",
"333 540 CURVE SMOOTH"
);
},
{
closed = 1;
nodes = (
"403 405 OFFCURVE",
"432 362 OFFCURVE",
"432 292 CURVE SMOOTH",
"432 235 LINE SMOOTH",
"432 165 OFFCURVE",
"403 123 OFFCURVE",
"333 123 CURVE SMOOTH",
"263 123 OFFCURVE",
"235 165 OFFCURVE",
"235 235 CURVE SMOOTH",
"235 292 LINE SMOOTH",
"235 362 OFFCURVE",
"263 405 OFFCURVE",
"333 405 CURVE SMOOTH"
);
},
{
closed = 1;
nodes = (
"492 705 LINE",
"175 705 LINE",
"175 605 LINE",
"492 605 LINE"
);
}
);
width = 667;
}
);
unicode = 014D;
},
{
color = 0;
glyphname = oslash;
lastChange = "2013-12-03 22:31:02 +0000";
layers = (
{
anchors = (
{
name = top;
position = "{334, 528}";
}
);
layerId = "87647C87-E27A-4883-B22D-08F5E311E309";
paths = (
{
closed = 1;
nodes = (
"622 559 LINE",
"530 559 LINE",
"490 509 LINE",
"446 530 OFFCURVE",
"393 540 OFFCURVE",
"333 540 CURVE SMOOTH",
"153 540 OFFCURVE",
"36 449 OFFCURVE",
"36 264 CURVE SMOOTH",
"36 168 OFFCURVE",
"68 97 OFFCURVE",
"123 51 CURVE",
"46 -45 LINE",
"138 -45 LINE",
"185 14 LINE",
"227 -3 OFFCURVE",
"277 -12 OFFCURVE",
"333 -12 CURVE SMOOTH",
"513 -12 OFFCURVE",
"631 79 OFFCURVE",
"631 264 CURVE SMOOTH",
"631 355 OFFCURVE",
"602 424 OFFCURVE",
"551 470 CURVE"
);
},
{
closed = 1;
nodes = (
"430 320 LINE",
"431 311 OFFCURVE",
"432 302 OFFCURVE",
"432 292 CURVE SMOOTH",
"432 235 LINE SMOOTH",
"432 165 OFFCURVE",
"403 123 OFFCURVE",
"333 123 CURVE SMOOTH",
"312 123 OFFCURVE",
"295 127 OFFCURVE",
"281 134 CURVE"
);
},
{
closed = 1;
nodes = (
"358 405 OFFCURVE",
"378 399 OFFCURVE",
"393 389 CURVE",
"238 195 LINE",
"236 207 OFFCURVE",
"235 220 OFFCURVE",
"235 235 CURVE SMOOTH",
"235 292 LINE SMOOTH",
"235 362 OFFCURVE",
"263 405 OFFCURVE",
"333 405 CURVE SMOOTH"
);
}
);
width = 667;
}
);
unicode = 00F8;
},
{
color = 0;
glyphname = oslashacute;
lastChange = "2013-12-03 22:30:04 +0000";
layers = (
{
layerId = "87647C87-E27A-4883-B22D-08F5E311E309";
paths = (
{
closed = 1;
nodes = (
"622 559 LINE",
"530 559 LINE",
"490 509 LINE",
"446 530 OFFCURVE",
"393 540 OFFCURVE",
"333 540 CURVE SMOOTH",
"153 540 OFFCURVE",
"36 449 OFFCURVE",
"36 264 CURVE SMOOTH",
"36 168 OFFCURVE",
"68 97 OFFCURVE",
"123 51 CURVE",
"46 -45 LINE",
"138 -45 LINE",
"185 14 LINE",
"227 -3 OFFCURVE",
"277 -12 OFFCURVE",
"333 -12 CURVE SMOOTH",
"513 -12 OFFCURVE",
"631 79 OFFCURVE",
"631 264 CURVE SMOOTH",
"631 355 OFFCURVE",
"602 424 OFFCURVE",
"551 470 CURVE"
);
},
{
closed = 1;
nodes = (
"430 320 LINE",
"431 311 OFFCURVE",
"432 302 OFFCURVE",
"432 292 CURVE SMOOTH",
"432 235 LINE SMOOTH",
"432 165 OFFCURVE",
"403 123 OFFCURVE",
"333 123 CURVE SMOOTH",
"312 123 OFFCURVE",
"295 127 OFFCURVE",
"281 134 CURVE"
);
},
{
closed = 1;
nodes = (
"358 405 OFFCURVE",
"378 399 OFFCURVE",
"393 389 CURVE",
"238 195 LINE",
"236 207 OFFCURVE",
"235 220 OFFCURVE",
"235 235 CURVE SMOOTH",
"235 292 LINE SMOOTH",
"235 362 OFFCURVE",
"263 405 OFFCURVE",
"333 405 CURVE SMOOTH"
);
},
{
closed = 1;
nodes = (
"525 721 LINE",
"523 725 LINE",
"330 725 LINE",
"238 592 LINE",
"365 592 LINE"
);
}
);
width = 667;
}
);
unicode = 01FF;
},
{
color = 0;
glyphname = otilde;
lastChange = "2013-12-03 22:30:04 +0000";
layers = (
{
layerId = "87647C87-E27A-4883-B22D-08F5E311E309";
paths = (
{
closed = 1;
nodes = (
"153 540 OFFCURVE",
"36 449 OFFCURVE",
"36 264 CURVE SMOOTH",
"36 79 OFFCURVE",
"153 -12 OFFCURVE",
"333 -12 CURVE SMOOTH",
"513 -12 OFFCURVE",
"631 79 OFFCURVE",
"631 264 CURVE SMOOTH",
"631 449 OFFCURVE",
"513 540 OFFCURVE",
"333 540 CURVE SMOOTH"
);
},
{
closed = 1;
nodes = (
"403 405 OFFCURVE",
"432 362 OFFCURVE",
"432 292 CURVE SMOOTH",
"432 235 LINE SMOOTH",
"432 165 OFFCURVE",
"403 123 OFFCURVE",
"333 123 CURVE SMOOTH",
"263 123 OFFCURVE",
"235 165 OFFCURVE",
"235 235 CURVE SMOOTH",
"235 292 LINE SMOOTH",
"235 362 OFFCURVE",
"263 405 OFFCURVE",
"333 405 CURVE SMOOTH"
);
},
{
closed = 1;
nodes = (
"475 725 LINE",
"467 702 OFFCURVE",
"450 685 OFFCURVE",
"424 685 CURVE SMOOTH",
"371 685 OFFCURVE",
"315 725 OFFCURVE",
"251 725 CURVE SMOOTH",
"167 725 OFFCURVE",
"111 654 OFFCURVE",
"111 582 CURVE",
"192 582 LINE",
"200 605 OFFCURVE",
"217 622 OFFCURVE",
"243 622 CURVE SMOOTH",
"296 622 OFFCURVE",
"352 582 OFFCURVE",
"416 582 CURVE SMOOTH",
"500 582 OFFCURVE",
"556 653 OFFCURVE",
"556 725 CURVE"
);
}
);
width = 667;
}
);
unicode = 00F5;
},
{
color = 0;
glyphname = oe;
lastChange = "2013-12-03 22:31:02 +0000";
layers = (
{
anchors = (
{
name = top;
position = "{500, 528}";
}
);
layerId = "87647C87-E27A-4883-B22D-08F5E311E309";
paths = (
{
closed = 1;
nodes = (
"612 540 OFFCURVE",
"550 523 OFFCURVE",
"502 490 CURVE",
"454 523 OFFCURVE",
"390 540 OFFCURVE",
"316 540 CURVE SMOOTH",
"142 540 OFFCURVE",
"29 449 OFFCURVE",
"29 264 CURVE SMOOTH",
"29 79 OFFCURVE",
"142 -12 OFFCURVE",
"316 -12 CURVE SMOOTH",
"390 -12 OFFCURVE",
"453 4 OFFCURVE",
"502 38 CURVE",
"552 4 OFFCURVE",
"618 -12 OFFCURVE",
"698 -12 CURVE SMOOTH",
"881 -12 OFFCURVE",
"974 66 OFFCURVE",
"974 192 CURVE",
"781 192 LINE",
"781 149 OFFCURVE",
"758 115 OFFCURVE",
"694 115 CURVE SMOOTH",
"625 115 OFFCURVE",
"598 157 OFFCURVE",
"598 230 CURVE",
"974 230 LINE",
"974 264 LINE SMOOTH",
"974 454 OFFCURVE",
"870 540 OFFCURVE",
"686 540 CURVE SMOOTH"
);
},
{
closed = 1;
nodes = (
"379 405 OFFCURVE",
"405 362 OFFCURVE",
"405 292 CURVE SMOOTH",
"405 235 LINE SMOOTH",
"405 165 OFFCURVE",
"379 123 OFFCURVE",
"316 123 CURVE SMOOTH",
"253 123 OFFCURVE",
"228 165 OFFCURVE",
"228 235 CURVE SMOOTH",
"228 292 LINE SMOOTH",
"228 362 OFFCURVE",
"253 405 OFFCURVE",
"316 405 CURVE SMOOTH"
);
},
{
closed = 1;
nodes = (
"744 413 OFFCURVE",
"773 379 OFFCURVE",
"773 324 CURVE",
"599 324 LINE",
"605 379 OFFCURVE",
"633 413 OFFCURVE",
"694 413 CURVE SMOOTH"
);
}
);
width = 1000;
}
);
unicode = 0153;
},
{
color = 0;
glyphname = p;
lastChange = "2013-12-03 22:30:04 +0000";
layers = (
{
layerId = "87647C87-E27A-4883-B22D-08F5E311E309";
paths = (
{
closed = 1;
nodes = (
"337 540 OFFCURVE",
"279 512 OFFCURVE",
"240 453 CURVE",
"223 528 LINE",
"61 528 LINE",
"61 -197 LINE",
"260 -197 LINE",
"260 48 LINE",
"298 7 OFFCURVE",
"348 -12 OFFCURVE",
"408 -12 CURVE SMOOTH",
"548 -12 OFFCURVE",
"631 79 OFFCURVE",
"631 263 CURVE SMOOTH",
"631 449 OFFCURVE",
"548 540 OFFCURVE",
"408 540 CURVE SMOOTH"
);
},
{
closed = 1;
nodes = (
"408 393 OFFCURVE",
"432 353 OFFCURVE",
"432 291 CURVE SMOOTH",
"432 238 LINE SMOOTH",
"432 176 OFFCURVE",
"408 135 OFFCURVE",
"346 135 CURVE SMOOTH",
"284 135 OFFCURVE",
"258 186 OFFCURVE",
"258 248 CURVE SMOOTH",
"258 281 LINE SMOOTH",
"258 343 OFFCURVE",
"284 393 OFFCURVE",
"346 393 CURVE SMOOTH"
);
}
);
width = 667;
}
);
unicode = 0070;
},
{
color = 0;
glyphname = thorn;
lastChange = "2013-12-03 22:30:04 +0000";
layers = (
{
layerId = "87647C87-E27A-4883-B22D-08F5E311E309";
paths = (
{
closed = 1;
nodes = (
"260 725 LINE",
"61 725 LINE",
"61 -197 LINE",
"260 -197 LINE",
"260 48 LINE",
"298 7 OFFCURVE",
"348 -12 OFFCURVE",
"408 -12 CURVE SMOOTH",
"548 -12 OFFCURVE",
"631 79 OFFCURVE",
"631 263 CURVE SMOOTH",
"631 449 OFFCURVE",
"548 540 OFFCURVE",
"408 540 CURVE SMOOTH",
"348 540 OFFCURVE",
"298 520 OFFCURVE",
"260 478 CURVE"
);
},
{
closed = 1;
nodes = (
"408 393 OFFCURVE",
"432 353 OFFCURVE",
"432 291 CURVE SMOOTH",
"432 238 LINE SMOOTH",
"432 176 OFFCURVE",
"408 135 OFFCURVE",
"346 135 CURVE SMOOTH",
"284 135 OFFCURVE",
"258 186 OFFCURVE",
"258 248 CURVE SMOOTH",
"258 281 LINE SMOOTH",
"258 343 OFFCURVE",
"284 393 OFFCURVE",
"346 393 CURVE SMOOTH"
);
}
);
width = 667;
}
);
unicode = 00FE;
},
{
color = 0;
glyphname = q;
lastChange = "2013-12-03 22:30:04 +0000";
layers = (
{
layerId = "87647C87-E27A-4883-B22D-08F5E311E309";
paths = (
{
closed = 1;
nodes = (
"119 540 OFFCURVE",
"36 449 OFFCURVE",
"36 263 CURVE SMOOTH",
"36 79 OFFCURVE",
"119 -12 OFFCURVE",
"259 -12 CURVE SMOOTH",
"318 -12 OFFCURVE",
"369 7 OFFCURVE",
"407 48 CURVE",
"407 -197 LINE",
"606 -197 LINE",
"606 528 LINE",
"444 528 LINE",
"427 453 LINE",
"388 512 OFFCURVE",
"330 540 OFFCURVE",
"259 540 CURVE SMOOTH"
);
},
{
closed = 1;
nodes = (
"383 393 OFFCURVE",
"409 343 OFFCURVE",
"409 281 CURVE SMOOTH",
"409 248 LINE SMOOTH",
"409 186 OFFCURVE",
"383 135 OFFCURVE",
"321 135 CURVE SMOOTH",
"259 135 OFFCURVE",
"235 176 OFFCURVE",
"235 238 CURVE SMOOTH",
"235 291 LINE SMOOTH",
"235 353 OFFCURVE",
"259 393 OFFCURVE",
"321 393 CURVE SMOOTH"
);
}
);
width = 667;
}
);
unicode = 0071;
},
{
color = 0;
glyphname = r;
lastChange = "2013-12-03 22:31:02 +0000";
layers = (
{
anchors = (
{
name = bottom;
position = "{222, 0}";
},
{
name = top;
position = "{222, 528}";
}
);
layerId = "87647C87-E27A-4883-B22D-08F5E311E309";
paths = (
{
closed = 1;
nodes = (
"318 541 OFFCURVE",
"261 511 OFFCURVE",
"236 448 CURVE",
"223 528 LINE",
"60 528 LINE",
"60 0 LINE",
"259 0 LINE",
"259 235 LINE SMOOTH",
"259 315 OFFCURVE",
"290 362 OFFCURVE",
"376 362 CURVE SMOOTH",
"440 362 LINE",
"440 529 LINE",
"440 529 OFFCURVE",
"418 541 OFFCURVE",
"381 541 CURVE SMOOTH"
);
}
);
width = 444;
}
);
unicode = 0072;
},
{
color = 0;
glyphname = racute;
lastChange = "2013-12-03 22:30:04 +0000";
layers = (
{
layerId = "87647C87-E27A-4883-B22D-08F5E311E309";
paths = (
{
closed = 1;
nodes = (
"318 541 OFFCURVE",
"261 511 OFFCURVE",
"236 448 CURVE",
"223 528 LINE",
"60 528 LINE",
"60 0 LINE",
"259 0 LINE",
"259 235 LINE SMOOTH",
"259 315 OFFCURVE",
"290 362 OFFCURVE",
"376 362 CURVE SMOOTH",
"440 362 LINE",
"440 529 LINE",
"440 529 OFFCURVE",
"418 541 OFFCURVE",
"381 541 CURVE SMOOTH"
);
},
{
closed = 1;
nodes = (
"340 721 LINE",
"338 725 LINE",
"146 725 LINE",
"53 592 LINE",
"181 592 LINE"
);
}
);
width = 444;
}
);
unicode = 0155;
},
{
color = 0;
glyphname = rcaron;
lastChange = "2013-12-03 22:30:04 +0000";
layers = (
{
layerId = "87647C87-E27A-4883-B22D-08F5E311E309";
paths = (
{
closed = 1;
nodes = (
"318 541 OFFCURVE",
"261 511 OFFCURVE",
"236 448 CURVE",
"223 528 LINE",
"60 528 LINE",
"60 0 LINE",
"259 0 LINE",
"259 235 LINE SMOOTH",
"259 315 OFFCURVE",
"290 362 OFFCURVE",
"376 362 CURVE SMOOTH",
"440 362 LINE",
"440 529 LINE",
"440 529 OFFCURVE",
"418 541 OFFCURVE",
"381 541 CURVE SMOOTH"
);
},
{
closed = 1;
nodes = (
"425 725 LINE",
"295 725 LINE",
"221 648 LINE",
"147 725 LINE",
"19 725 LINE",
"158 580 LINE",
"286 580 LINE"
);
}
);
width = 444;
}
);
unicode = 0159;
},
{
color = 0;
glyphname = rcommaaccent;
lastChange = "2013-12-03 22:30:04 +0000";
layers = (
{
layerId = "87647C87-E27A-4883-B22D-08F5E311E309";
paths = (
{
closed = 1;
nodes = (
"318 541 OFFCURVE",
"261 511 OFFCURVE",
"236 448 CURVE",
"223 528 LINE",
"60 528 LINE",
"60 0 LINE",
"259 0 LINE",
"259 235 LINE SMOOTH",
"259 315 OFFCURVE",
"290 362 OFFCURVE",
"376 362 CURVE SMOOTH",
"440 362 LINE",
"440 529 LINE",
"440 529 OFFCURVE",
"418 541 OFFCURVE",
"381 541 CURVE SMOOTH"
);
},
{
closed = 1;
nodes = (
"287 -59 LINE",
"157 -59 LINE",
"157 -175 LINE",
"207 -175 LINE",
"166 -267 LINE",
"233 -267 LINE",
"287 -168 LINE"
);
}
);
width = 444;
}
);
unicode = 0157;
},
{
color = 0;
glyphname = s;
lastChange = "2013-12-03 22:31:02 +0000";
layers = (
{
anchors = (
{
name = bottom;
position = "{306, 0}";
},
{
name = top;
position = "{306, 528}";
}
);
layerId = "87647C87-E27A-4883-B22D-08F5E311E309";
paths = (
{
closed = 1;
nodes = (
"172 540 OFFCURVE",
"46 500 OFFCURVE",
"46 361 CURVE SMOOTH",
"46 153 OFFCURVE",
"387 225 OFFCURVE",
"387 146 CURVE SMOOTH",
"387 109 OFFCURVE",
"332 107 OFFCURVE",
"304 107 CURVE SMOOTH",
"275 107 OFFCURVE",
"218 117 OFFCURVE",
"217 168 CURVE",
"217 172 LINE",
"32 172 LINE",
"32 40 OFFCURVE",
"172 -12 OFFCURVE",
"304 -12 CURVE SMOOTH",
"449 -12 OFFCURVE",
"577 30 OFFCURVE",
"577 175 CURVE SMOOTH",
"577 390 OFFCURVE",
"236 311 OFFCURVE",
"236 387 CURVE SMOOTH",
"236 421 OFFCURVE",
"291 421 OFFCURVE",
"308 421 CURVE SMOOTH",
"322 421 OFFCURVE",
"339 419 OFFCURVE",
"353 411 CURVE",
"368 404 OFFCURVE",
"379 391 OFFCURVE",
"379 370 CURVE",
"564 370 LINE",
"564 495 OFFCURVE",
"436 540 OFFCURVE",
"311 540 CURVE SMOOTH"
);
}
);
width = 611;
}
);
unicode = 0073;
},
{
color = 0;
glyphname = sacute;
lastChange = "2013-12-03 22:30:04 +0000";
layers = (
{
layerId = "87647C87-E27A-4883-B22D-08F5E311E309";
paths = (
{
closed = 1;
nodes = (
"172 540 OFFCURVE",
"46 500 OFFCURVE",
"46 361 CURVE SMOOTH",
"46 153 OFFCURVE",
"387 225 OFFCURVE",
"387 146 CURVE SMOOTH",
"387 109 OFFCURVE",
"332 107 OFFCURVE",
"304 107 CURVE SMOOTH",
"275 107 OFFCURVE",
"218 117 OFFCURVE",
"217 168 CURVE",
"217 172 LINE",
"32 172 LINE",
"32 40 OFFCURVE",
"172 -12 OFFCURVE",
"304 -12 CURVE SMOOTH",
"449 -12 OFFCURVE",
"577 30 OFFCURVE",
"577 175 CURVE SMOOTH",
"577 390 OFFCURVE",
"236 311 OFFCURVE",
"236 387 CURVE SMOOTH",
"236 421 OFFCURVE",
"291 421 OFFCURVE",
"308 421 CURVE SMOOTH",
"322 421 OFFCURVE",
"339 419 OFFCURVE",
"353 411 CURVE",
"368 404 OFFCURVE",
"379 391 OFFCURVE",
"379 370 CURVE",
"564 370 LINE",
"564 495 OFFCURVE",
"436 540 OFFCURVE",
"311 540 CURVE SMOOTH"
);
},
{
closed = 1;
nodes = (
"497 721 LINE",
"495 725 LINE",
"302 725 LINE",
"209 592 LINE",
"337 592 LINE"
);
}
);
width = 611;
}
);
unicode = 015B;
},
{
color = 0;
glyphname = scaron;
lastChange = "2013-12-03 22:30:04 +0000";
layers = (
{
layerId = "87647C87-E27A-4883-B22D-08F5E311E309";
paths = (
{
closed = 1;
nodes = (
"172 540 OFFCURVE",
"46 500 OFFCURVE",
"46 361 CURVE SMOOTH",
"46 153 OFFCURVE",
"387 225 OFFCURVE",
"387 146 CURVE SMOOTH",
"387 109 OFFCURVE",
"332 107 OFFCURVE",
"304 107 CURVE SMOOTH",
"275 107 OFFCURVE",
"218 117 OFFCURVE",
"217 168 CURVE",
"217 172 LINE",
"32 172 LINE",
"32 40 OFFCURVE",
"172 -12 OFFCURVE",
"304 -12 CURVE SMOOTH",
"449 -12 OFFCURVE",
"577 30 OFFCURVE",
"577 175 CURVE SMOOTH",
"577 390 OFFCURVE",
"236 311 OFFCURVE",
"236 387 CURVE SMOOTH",
"236 421 OFFCURVE",
"291 421 OFFCURVE",
"308 421 CURVE SMOOTH",
"322 421 OFFCURVE",
"339 419 OFFCURVE",
"353 411 CURVE",
"368 404 OFFCURVE",
"379 391 OFFCURVE",
"379 370 CURVE",
"564 370 LINE",
"564 495 OFFCURVE",
"436 540 OFFCURVE",
"311 540 CURVE SMOOTH"
);
},
{
closed = 1;
nodes = (
"509 725 LINE",
"379 725 LINE",
"305 648 LINE",
"230 725 LINE",
"103 725 LINE",
"242 580 LINE",
"370 580 LINE"
);
}
);
width = 611;
}
);
unicode = 0161;
},
{
color = 0;
glyphname = scedilla;
lastChange = "2013-12-03 22:30:04 +0000";
layers = (
{
layerId = "87647C87-E27A-4883-B22D-08F5E311E309";
paths = (
{
closed = 1;
nodes = (
"172 540 OFFCURVE",
"46 500 OFFCURVE",
"46 361 CURVE SMOOTH",
"46 153 OFFCURVE",
"387 225 OFFCURVE",
"387 146 CURVE SMOOTH",
"387 109 OFFCURVE",
"332 107 OFFCURVE",
"304 107 CURVE SMOOTH",
"275 107 OFFCURVE",
"218 117 OFFCURVE",
"217 168 CURVE",
"217 172 LINE",
"32 172 LINE",
"32 49 OFFCURVE",
"153 -4 OFFCURVE",
"276 -11 CURVE",
"265 -86 LINE",
"303 -86 LINE SMOOTH",
"332 -86 OFFCURVE",
"341 -98 OFFCURVE",
"341 -118 CURVE SMOOTH",
"341 -141 OFFCURVE",
"325 -149 OFFCURVE",
"301 -149 CURVE SMOOTH",
"249 -149 OFFCURVE",
"184 -141 OFFCURVE",
"184 -141 CURVE",
"184 -195 LINE",
"213 -205 OFFCURVE",
"264 -211 OFFCURVE",
"310 -211 CURVE SMOOTH",
"356 -211 OFFCURVE",
"428 -194 OFFCURVE",
"428 -118 CURVE SMOOTH",
"428 -56 OFFCURVE",
"384 -34 OFFCURVE",
"335 -29 CURVE",
"337 -11 LINE",
"468 -5 OFFCURVE",
"577 41 OFFCURVE",
"577 175 CURVE SMOOTH",
"577 390 OFFCURVE",
"236 311 OFFCURVE",
"236 387 CURVE SMOOTH",
"236 421 OFFCURVE",
"291 421 OFFCURVE",
"308 421 CURVE SMOOTH",
"322 421 OFFCURVE",
"339 419 OFFCURVE",
"353 411 CURVE",
"368 404 OFFCURVE",
"379 391 OFFCURVE",
"379 370 CURVE",
"564 370 LINE",
"564 495 OFFCURVE",
"436 540 OFFCURVE",
"311 540 CURVE SMOOTH"
);
}
);
width = 611;
}
);
unicode = 015F;
},
{
color = 0;
glyphname = scircumflex;
lastChange = "2013-12-03 22:30:04 +0000";
layers = (
{
layerId = "87647C87-E27A-4883-B22D-08F5E311E309";
paths = (
{
closed = 1;
nodes = (
"172 540 OFFCURVE",
"46 500 OFFCURVE",
"46 361 CURVE SMOOTH",
"46 153 OFFCURVE",
"387 225 OFFCURVE",
"387 146 CURVE SMOOTH",
"387 109 OFFCURVE",
"332 107 OFFCURVE",
"304 107 CURVE SMOOTH",
"275 107 OFFCURVE",
"218 117 OFFCURVE",
"217 168 CURVE",
"217 172 LINE",
"32 172 LINE",
"32 40 OFFCURVE",
"172 -12 OFFCURVE",
"304 -12 CURVE SMOOTH",
"449 -12 OFFCURVE",
"577 30 OFFCURVE",
"577 175 CURVE SMOOTH",
"577 390 OFFCURVE",
"236 311 OFFCURVE",
"236 387 CURVE SMOOTH",
"236 421 OFFCURVE",
"291 421 OFFCURVE",
"308 421 CURVE SMOOTH",
"322 421 OFFCURVE",
"339 419 OFFCURVE",
"353 411 CURVE",
"368 404 OFFCURVE",
"379 391 OFFCURVE",
"379 370 CURVE",
"564 370 LINE",
"564 495 OFFCURVE",
"436 540 OFFCURVE",
"311 540 CURVE SMOOTH"
);
},
{
closed = 1;
nodes = (
"370 725 LINE",
"242 725 LINE",
"103 580 LINE",
"230 580 LINE",
"305 657 LINE",
"379 580 LINE",
"509 580 LINE"
);
}
);
width = 611;
}
);
unicode = 015D;
},
{
color = 0;
glyphname = germandbls;
lastChange = "2013-12-03 22:30:04 +0000";
layers = (
{
layerId = "87647C87-E27A-4883-B22D-08F5E311E309";
paths = (
{
closed = 1;
nodes = (
"206 737 OFFCURVE",
"67 675 OFFCURVE",
"67 517 CURVE SMOOTH",
"67 0 LINE",
"266 0 LINE",
"266 534 LINE SMOOTH",
"266 573 OFFCURVE",
"293 603 OFFCURVE",
"336 603 CURVE SMOOTH",
"380 603 OFFCURVE",
"406 573 OFFCURVE",
"406 534 CURVE SMOOTH",
"406 496 OFFCURVE",
"378 466 OFFCURVE",
"341 466 CURVE SMOOTH",
"314 466 LINE",
"314 325 LINE",
"342 325 LINE SMOOTH",
"387 325 OFFCURVE",
"425 282 OFFCURVE",
"425 229 CURVE SMOOTH",
"425 179 OFFCURVE",
"388 136 OFFCURVE",
"342 136 CURVE SMOOTH",
"314 136 LINE",
"314 0 LINE",
"378 0 LINE SMOOTH",
"520 0 OFFCURVE",
"624 70 OFFCURVE",
"624 214 CURVE SMOOTH",
"624 294 OFFCURVE",
"574 369 OFFCURVE",
"503 395 CURVE",
"503 400 LINE",
"561 424 OFFCURVE",
"597 484 OFFCURVE",
"597 548 CURVE SMOOTH",
"597 694 OFFCURVE",
"458 737 OFFCURVE",
"336 737 CURVE SMOOTH"
);
}
);
width = 667;
}
);
unicode = 00DF;
},
{
color = 0;
glyphname = longs;
lastChange = "2013-12-03 22:30:04 +0000";
layers = (
{
layerId = "87647C87-E27A-4883-B22D-08F5E311E309";
paths = (
{
closed = 1;
nodes = (
"161 737 OFFCURVE",
"82 694 OFFCURVE",
"82 550 CURVE SMOOTH",
"82 528 LINE",
"8 528 LINE",
"8 393 LINE",
"82 393 LINE",
"82 0 LINE",
"281 0 LINE",
"281 549 LINE SMOOTH",
"281 586 OFFCURVE",
"293 602 OFFCURVE",
"337 602 CURVE SMOOTH",
"383 602 LINE",
"383 719 LINE",
"356 729 OFFCURVE",
"304 737 OFFCURVE",
"275 737 CURVE SMOOTH"
);
}
);
width = 390;
}
);
unicode = 017F;
},
{
color = 0;
glyphname = t;
lastChange = "2013-12-03 22:31:02 +0000";
layers = (
{
anchors = (
{
name = bottom;
position = "{222, 0}";
},
{
name = center;
position = "{222, 264}";
}
);
layerId = "87647C87-E27A-4883-B22D-08F5E311E309";
paths = (
{
closed = 1;
nodes = (
"300 688 LINE",
"152 688 LINE",
"109 528 LINE",
"27 528 LINE",
"27 393 LINE",
"101 393 LINE",
"101 129 LINE SMOOTH",
"101 21 OFFCURVE",
"176 -12 OFFCURVE",
"284 -12 CURVE SMOOTH",
"319 -12 OFFCURVE",
"379 -5 OFFCURVE",
"412 6 CURVE",
"412 123 LINE",
"356 123 LINE SMOOTH",
"311 123 OFFCURVE",
"300 147 OFFCURVE",
"300 192 CURVE SMOOTH",
"300 393 LINE",
"412 393 LINE",
"412 528 LINE",
"300 528 LINE"
);
}
);
width = 444;
}
);
unicode = 0074;
},
{
color = 0;
glyphname = tbar;
lastChange = "2013-12-03 22:30:04 +0000";
layers = (
{
layerId = "87647C87-E27A-4883-B22D-08F5E311E309";
paths = (
{
closed = 1;
nodes = (
"300 688 LINE",
"152 688 LINE",
"109 528 LINE",
"27 528 LINE",
"27 393 LINE",
"101 393 LINE",
"101 310 LINE",
"31 310 LINE",
"31 209 LINE",
"101 209 LINE",
"101 129 LINE SMOOTH",
"101 21 OFFCURVE",
"176 -12 OFFCURVE",
"284 -12 CURVE SMOOTH",
"319 -12 OFFCURVE",
"379 -5 OFFCURVE",
"412 6 CURVE",
"412 123 LINE",
"356 123 LINE SMOOTH",
"311 123 OFFCURVE",
"300 147 OFFCURVE",
"300 192 CURVE SMOOTH",
"300 209 LINE",
"391 209 LINE",
"391 310 LINE",
"300 310 LINE",
"300 393 LINE",
"412 393 LINE",
"412 528 LINE",
"300 528 LINE"
);
}
);
width = 444;
}
);
unicode = 0167;
},
{
color = 0;
glyphname = tcaron;
lastChange = "2013-12-03 22:30:04 +0000";
layers = (
{
layerId = "87647C87-E27A-4883-B22D-08F5E311E309";
paths = (
{
closed = 1;
nodes = (
"583 688 LINE",
"454 688 LINE",
"454 572 LINE",
"503 572 LINE",
"462 480 LINE",
"529 480 LINE",
"583 579 LINE"
);
},
{
closed = 1;
nodes = (
"300 688 LINE",
"152 688 LINE",
"109 528 LINE",
"27 528 LINE",
"27 393 LINE",
"101 393 LINE",
"101 129 LINE SMOOTH",
"101 21 OFFCURVE",
"176 -12 OFFCURVE",
"284 -12 CURVE SMOOTH",
"319 -12 OFFCURVE",
"379 -5 OFFCURVE",
"412 6 CURVE",
"412 123 LINE",
"356 123 LINE SMOOTH",
"311 123 OFFCURVE",
"300 147 OFFCURVE",
"300 192 CURVE SMOOTH",
"300 393 LINE",
"412 393 LINE",
"412 528 LINE",
"300 528 LINE"
);
}
);
width = 625;
}
);
unicode = 0165;
},
{
color = 0;
glyphname = tcommaaccent;
lastChange = "2013-12-03 22:30:04 +0000";
layers = (
{
layerId = "87647C87-E27A-4883-B22D-08F5E311E309";
paths = (
{
closed = 1;
nodes = (
"300 688 LINE",
"152 688 LINE",
"109 528 LINE",
"27 528 LINE",
"27 393 LINE",
"101 393 LINE",
"101 129 LINE SMOOTH",
"101 21 OFFCURVE",
"176 -12 OFFCURVE",
"284 -12 CURVE SMOOTH",
"319 -12 OFFCURVE",
"379 -5 OFFCURVE",
"412 6 CURVE",
"412 123 LINE",
"356 123 LINE SMOOTH",
"311 123 OFFCURVE",
"300 147 OFFCURVE",
"300 192 CURVE SMOOTH",
"300 393 LINE",
"412 393 LINE",
"412 528 LINE",
"300 528 LINE"
);
},
{
closed = 1;
nodes = (
"331 -59 LINE",
"201 -59 LINE",
"201 -175 LINE",
"250 -175 LINE",
"209 -267 LINE",
"276 -267 LINE",
"331 -168 LINE"
);
}
);
width = 444;
}
);
unicode = 021B;
},
{
color = 0;
glyphname = u;
lastChange = "2013-12-03 22:31:02 +0000";
layers = (
{
anchors = (
{
name = ogonek;
position = "{600, 10}";
},
{
name = top;
position = "{334, 528}";
}
);
layerId = "87647C87-E27A-4883-B22D-08F5E311E309";
paths = (
{
closed = 1;
nodes = (
"606 528 LINE",
"407 528 LINE",
"407 218 LINE SMOOTH",
"407 173 OFFCURVE",
"374 135 OFFCURVE",
"324 135 CURVE SMOOTH",
"280 135 OFFCURVE",
"257 166 OFFCURVE",
"257 210 CURVE SMOOTH",
"257 528 LINE",
"58 528 LINE",
"58 186 LINE SMOOTH",
"58 61 OFFCURVE",
"117 -12 OFFCURVE",
"242 -12 CURVE SMOOTH",
"317 -12 OFFCURVE",
"389 23 OFFCURVE",
"430 80 CURVE",
"443 0 LINE",
"606 0 LINE"
);
}
);
width = 667;
}
);
unicode = 0075;
},
{
color = 0;
glyphname = uacute;
lastChange = "2013-12-03 22:30:04 +0000";
layers = (
{
layerId = "87647C87-E27A-4883-B22D-08F5E311E309";
paths = (
{
closed = 1;
nodes = (
"606 0 LINE",
"606 528 LINE",
"407 528 LINE",
"407 218 LINE SMOOTH",
"407 173 OFFCURVE",
"374 135 OFFCURVE",
"324 135 CURVE SMOOTH",
"280 135 OFFCURVE",
"257 166 OFFCURVE",
"257 210 CURVE SMOOTH",
"257 528 LINE",
"58 528 LINE",
"58 186 LINE SMOOTH",
"58 61 OFFCURVE",
"117 -12 OFFCURVE",
"242 -12 CURVE SMOOTH",
"317 -12 OFFCURVE",
"389 23 OFFCURVE",
"430 80 CURVE",
"443 0 LINE"
);
},
{
closed = 1;
nodes = (
"524 721 LINE",
"522 725 LINE",
"330 725 LINE",
"237 592 LINE",
"365 592 LINE"
);
}
);
width = 667;
}
);
unicode = 00FA;
},
{
color = 0;
glyphname = ubreve;
lastChange = "2013-12-03 22:30:04 +0000";
layers = (
{
layerId = "87647C87-E27A-4883-B22D-08F5E311E309";
paths = (
{
closed = 1;
nodes = (
"606 528 LINE",
"407 528 LINE",
"407 218 LINE SMOOTH",
"407 173 OFFCURVE",
"374 135 OFFCURVE",
"324 135 CURVE SMOOTH",
"280 135 OFFCURVE",
"257 166 OFFCURVE",
"257 210 CURVE SMOOTH",
"257 528 LINE",
"58 528 LINE",
"58 186 LINE SMOOTH",
"58 61 OFFCURVE",
"117 -12 OFFCURVE",
"242 -12 CURVE SMOOTH",
"317 -12 OFFCURVE",
"389 23 OFFCURVE",
"430 80 CURVE",
"443 0 LINE",
"606 0 LINE"
);
},
{
closed = 1;
nodes = (
"423 725 LINE",
"419 704 OFFCURVE",
"383 675 OFFCURVE",
"333 675 CURVE SMOOTH",
"309 675 OFFCURVE",
"288 682 OFFCURVE",
"272 692 CURVE SMOOTH",
"257 702 OFFCURVE",
"247 715 OFFCURVE",
"245 725 CURVE",
"149 725 LINE",
"149 658 OFFCURVE",
"218 581 OFFCURVE",
"333 581 CURVE SMOOTH",
"447 581 OFFCURVE",
"518 658 OFFCURVE",
"518 725 CURVE"
);
}
);
width = 667;
}
);
unicode = 016D;
},
{
color = 0;
glyphname = ucircumflex;
lastChange = "2013-12-03 22:30:04 +0000";
layers = (
{
layerId = "87647C87-E27A-4883-B22D-08F5E311E309";
paths = (
{
closed = 1;
nodes = (
"606 528 LINE",
"407 528 LINE",
"407 218 LINE SMOOTH",
"407 173 OFFCURVE",
"374 135 OFFCURVE",
"324 135 CURVE SMOOTH",
"280 135 OFFCURVE",
"257 166 OFFCURVE",
"257 210 CURVE SMOOTH",
"257 528 LINE",
"58 528 LINE",
"58 186 LINE SMOOTH",
"58 61 OFFCURVE",
"117 -12 OFFCURVE",
"242 -12 CURVE SMOOTH",
"317 -12 OFFCURVE",
"389 23 OFFCURVE",
"430 80 CURVE",
"443 0 LINE",
"606 0 LINE"
);
},
{
closed = 1;
nodes = (
"397 725 LINE",
"270 725 LINE",
"130 580 LINE",
"258 580 LINE",
"333 657 LINE",
"407 580 LINE",
"537 580 LINE"
);
}
);
width = 667;
}
);
unicode = 00FB;
},
{
color = 0;
glyphname = udieresis;
lastChange = "2013-12-03 22:30:04 +0000";
layers = (
{
layerId = "87647C87-E27A-4883-B22D-08F5E311E309";
paths = (
{
closed = 1;
nodes = (
"606 528 LINE",
"407 528 LINE",
"407 218 LINE SMOOTH",
"407 173 OFFCURVE",
"374 135 OFFCURVE",
"324 135 CURVE SMOOTH",
"280 135 OFFCURVE",
"257 166 OFFCURVE",
"257 210 CURVE SMOOTH",
"257 528 LINE",
"58 528 LINE",
"58 186 LINE SMOOTH",
"58 61 OFFCURVE",
"117 -12 OFFCURVE",
"242 -12 CURVE SMOOTH",
"317 -12 OFFCURVE",
"389 23 OFFCURVE",
"430 80 CURVE",
"443 0 LINE",
"606 0 LINE"
);
},
{
closed = 1;
nodes = (
"520 725 LINE",
"368 725 LINE",
"368 586 LINE",
"520 586 LINE"
);
},
{
closed = 1;
nodes = (
"299 725 LINE",
"147 725 LINE",
"147 586 LINE",
"299 586 LINE"
);
}
);
width = 667;
}
);
unicode = 00FC;
},
{
color = 0;
glyphname = ugrave;
lastChange = "2013-12-03 22:30:04 +0000";
layers = (
{
layerId = "87647C87-E27A-4883-B22D-08F5E311E309";
paths = (
{
closed = 1;
nodes = (
"606 0 LINE",
"606 528 LINE",
"407 528 LINE",
"407 218 LINE SMOOTH",
"407 173 OFFCURVE",
"374 135 OFFCURVE",
"324 135 CURVE SMOOTH",
"280 135 OFFCURVE",
"257 166 OFFCURVE",
"257 210 CURVE SMOOTH",
"257 528 LINE",
"58 528 LINE",
"58 186 LINE SMOOTH",
"58 61 OFFCURVE",
"117 -12 OFFCURVE",
"242 -12 CURVE SMOOTH",
"317 -12 OFFCURVE",
"389 23 OFFCURVE",
"430 80 CURVE",
"443 0 LINE"
);
},
{
closed = 1;
nodes = (
"430 592 LINE",
"337 725 LINE",
"145 725 LINE",
"143 721 LINE",
"303 592 LINE"
);
}
);
width = 667;
}
);
unicode = 00F9;
},
{
color = 0;
glyphname = uhungarumlaut;
lastChange = "2013-12-03 22:30:04 +0000";
layers = (
{
layerId = "87647C87-E27A-4883-B22D-08F5E311E309";
paths = (
{
closed = 1;
nodes = (
"606 528 LINE",
"407 528 LINE",
"407 218 LINE SMOOTH",
"407 173 OFFCURVE",
"374 135 OFFCURVE",
"324 135 CURVE SMOOTH",
"280 135 OFFCURVE",
"257 166 OFFCURVE",
"257 210 CURVE SMOOTH",
"257 528 LINE",
"58 528 LINE",
"58 186 LINE SMOOTH",
"58 61 OFFCURVE",
"117 -12 OFFCURVE",
"242 -12 CURVE SMOOTH",
"317 -12 OFFCURVE",
"389 23 OFFCURVE",
"430 80 CURVE",
"443 0 LINE",
"606 0 LINE"
);
},
{
closed = 1;
nodes = (
"409 725 LINE",
"231 725 LINE",
"155 591 LINE",
"272 591 LINE",
"411 721 LINE"
);
},
{
closed = 1;
nodes = (
"620 725 LINE",
"442 725 LINE",
"366 591 LINE",
"483 591 LINE",
"622 721 LINE"
);
}
);
width = 667;
}
);
unicode = 0171;
},
{
color = 0;
glyphname = umacron;
lastChange = "2013-12-03 22:30:04 +0000";
layers = (
{
layerId = "87647C87-E27A-4883-B22D-08F5E311E309";
paths = (
{
closed = 1;
nodes = (
"606 528 LINE",
"407 528 LINE",
"407 218 LINE SMOOTH",
"407 173 OFFCURVE",
"374 135 OFFCURVE",
"324 135 CURVE SMOOTH",
"280 135 OFFCURVE",
"257 166 OFFCURVE",
"257 210 CURVE SMOOTH",
"257 528 LINE",
"58 528 LINE",
"58 186 LINE SMOOTH",
"58 61 OFFCURVE",
"117 -12 OFFCURVE",
"242 -12 CURVE SMOOTH",
"317 -12 OFFCURVE",
"389 23 OFFCURVE",
"430 80 CURVE",
"443 0 LINE",
"606 0 LINE"
);
},
{
closed = 1;
nodes = (
"492 705 LINE",
"175 705 LINE",
"175 605 LINE",
"492 605 LINE"
);
}
);
width = 667;
}
);
unicode = 016B;
},
{
color = 0;
glyphname = uogonek;
lastChange = "2013-12-03 22:30:04 +0000";
layers = (
{
layerId = "87647C87-E27A-4883-B22D-08F5E311E309";
paths = (
{
closed = 1;
nodes = (
"606 528 LINE",
"407 528 LINE",
"407 218 LINE SMOOTH",
"407 173 OFFCURVE",
"374 135 OFFCURVE",
"324 135 CURVE SMOOTH",
"280 135 OFFCURVE",
"257 166 OFFCURVE",
"257 210 CURVE SMOOTH",
"257 528 LINE",
"58 528 LINE",
"58 186 LINE SMOOTH",
"58 61 OFFCURVE",
"117 -12 OFFCURVE",
"242 -12 CURVE SMOOTH",
"317 -12 OFFCURVE",
"389 23 OFFCURVE",
"430 80 CURVE",
"441 12 LINE",
"428 12 LINE",
"405 -16 OFFCURVE",
"378 -48 OFFCURVE",
"378 -97 CURVE SMOOTH",
"378 -179 OFFCURVE",
"440 -211 OFFCURVE",
"504 -211 CURVE SMOOTH",
"537 -211 OFFCURVE",
"569 -206 OFFCURVE",
"600 -196 CURVE",
"600 -120 LINE",
"558 -120 LINE SMOOTH",
"513 -120 OFFCURVE",
"498 -95 OFFCURVE",
"498 -69 CURVE SMOOTH",
"498 -43 OFFCURVE",
"507 -16 OFFCURVE",
"514 0 CURVE",
"606 0 LINE"
);
}
);
width = 667;
}
);
unicode = 0173;
},
{
color = 0;
glyphname = uring;
lastChange = "2013-12-03 22:30:04 +0000";
layers = (
{
layerId = "87647C87-E27A-4883-B22D-08F5E311E309";
paths = (
{
closed = 1;
nodes = (
"606 528 LINE",
"407 528 LINE",
"407 218 LINE SMOOTH",
"407 173 OFFCURVE",
"374 135 OFFCURVE",
"324 135 CURVE SMOOTH",
"280 135 OFFCURVE",
"257 166 OFFCURVE",
"257 210 CURVE SMOOTH",
"257 528 LINE",
"58 528 LINE",
"58 186 LINE SMOOTH",
"58 61 OFFCURVE",
"117 -12 OFFCURVE",
"242 -12 CURVE SMOOTH",
"317 -12 OFFCURVE",
"389 23 OFFCURVE",
"430 80 CURVE",
"443 0 LINE",
"606 0 LINE"
);
},
{
closed = 1;
nodes = (
"273 794 OFFCURVE",
"225 745 OFFCURVE",
"225 685 CURVE SMOOTH",
"225 625 OFFCURVE",
"274 577 OFFCURVE",
"333 577 CURVE SMOOTH",
"394 577 OFFCURVE",
"442 626 OFFCURVE",
"442 685 CURVE SMOOTH",
"442 746 OFFCURVE",
"393 794 OFFCURVE",
"333 794 CURVE SMOOTH"
);
},
{
closed = 1;
nodes = (
"356 725 OFFCURVE",
"374 709 OFFCURVE",
"374 686 CURVE SMOOTH",
"374 662 OFFCURVE",
"357 645 OFFCURVE",
"333 645 CURVE SMOOTH",
"311 645 OFFCURVE",
"293 661 OFFCURVE",
"293 684 CURVE SMOOTH",
"293 708 OFFCURVE",
"310 725 OFFCURVE",
"333 725 CURVE SMOOTH"
);
}
);
width = 667;
}
);
unicode = 016F;
},
{
color = 0;
glyphname = utilde;
lastChange = "2013-12-03 22:30:04 +0000";
layers = (
{
layerId = "87647C87-E27A-4883-B22D-08F5E311E309";
paths = (
{
closed = 1;
nodes = (
"606 528 LINE",
"407 528 LINE",
"407 218 LINE SMOOTH",
"407 173 OFFCURVE",
"374 135 OFFCURVE",
"324 135 CURVE SMOOTH",
"280 135 OFFCURVE",
"257 166 OFFCURVE",
"257 210 CURVE SMOOTH",
"257 528 LINE",
"58 528 LINE",
"58 186 LINE SMOOTH",
"58 61 OFFCURVE",
"117 -12 OFFCURVE",
"242 -12 CURVE SMOOTH",
"317 -12 OFFCURVE",
"389 23 OFFCURVE",
"430 80 CURVE",
"443 0 LINE",
"606 0 LINE"
);
},
{
closed = 1;
nodes = (
"475 725 LINE",
"467 702 OFFCURVE",
"450 685 OFFCURVE",
"424 685 CURVE SMOOTH",
"371 685 OFFCURVE",
"315 725 OFFCURVE",
"251 725 CURVE SMOOTH",
"167 725 OFFCURVE",
"111 654 OFFCURVE",
"111 582 CURVE",
"192 582 LINE",
"200 605 OFFCURVE",
"217 622 OFFCURVE",
"243 622 CURVE SMOOTH",
"296 622 OFFCURVE",
"352 582 OFFCURVE",
"416 582 CURVE SMOOTH",
"500 582 OFFCURVE",
"556 653 OFFCURVE",
"556 725 CURVE"
);
}
);
width = 667;
}
);
unicode = 0169;
},
{
color = 0;
glyphname = v;
lastChange = "2013-12-03 22:30:04 +0000";
layers = (
{
layerId = "87647C87-E27A-4883-B22D-08F5E311E309";
paths = (
{
closed = 1;
nodes = (
"611 528 LINE",
"415 528 LINE",
"318 199 LINE",
"311 199 LINE",
"214 528 LINE",
"0 528 LINE",
"200 0 LINE",
"409 0 LINE"
);
}
);
width = 611;
}
);
unicode = 0076;
},
{
color = 0;
glyphname = w;
lastChange = "2013-12-03 22:31:02 +0000";
layers = (
{
anchors = (
{
name = top;
position = "{472, 528}";
}
);
layerId = "87647C87-E27A-4883-B22D-08F5E311E309";
paths = (
{
closed = 1;
nodes = (
"944 528 LINE",
"750 528 LINE",
"669 216 LINE",
"662 216 LINE",
"582 528 LINE",
"384 528 LINE",
"301 216 LINE",
"294 216 LINE",
"214 528 LINE",
"0 528 LINE",
"193 0 LINE",
"387 0 LINE",
"470 294 LINE",
"474 294 LINE",
"556 0 LINE",
"750 0 LINE"
);
}
);
width = 944;
}
);
unicode = 0077;
},
{
color = 0;
glyphname = wacute;
lastChange = "2013-12-03 22:30:04 +0000";
layers = (
{
layerId = "87647C87-E27A-4883-B22D-08F5E311E309";
paths = (
{
closed = 1;
nodes = (
"750 0 LINE",
"944 528 LINE",
"750 528 LINE",
"669 216 LINE",
"662 216 LINE",
"582 528 LINE",
"384 528 LINE",
"301 216 LINE",
"294 216 LINE",
"214 528 LINE",
"0 528 LINE",
"193 0 LINE",
"387 0 LINE",
"470 294 LINE",
"474 294 LINE",
"556 0 LINE"
);
},
{
closed = 1;
nodes = (
"663 721 LINE",
"661 725 LINE",
"468 725 LINE",
"376 592 LINE",
"503 592 LINE"
);
}
);
width = 944;
}
);
unicode = 1E83;
},
{
color = 0;
glyphname = wcircumflex;
lastChange = "2013-12-03 22:30:04 +0000";
layers = (
{
layerId = "87647C87-E27A-4883-B22D-08F5E311E309";
paths = (
{
closed = 1;
nodes = (
"944 528 LINE",
"750 528 LINE",
"669 216 LINE",
"662 216 LINE",
"582 528 LINE",
"384 528 LINE",
"301 216 LINE",
"294 216 LINE",
"214 528 LINE",
"0 528 LINE",
"193 0 LINE",
"387 0 LINE",
"470 294 LINE",
"474 294 LINE",
"556 0 LINE",
"750 0 LINE"
);
},
{
closed = 1;
nodes = (
"536 725 LINE",
"408 725 LINE",
"269 580 LINE",
"397 580 LINE",
"471 657 LINE",
"545 580 LINE",
"675 580 LINE"
);
}
);
width = 944;
}
);
unicode = 0175;
},
{
color = 0;
glyphname = wdieresis;
lastChange = "2013-12-03 22:30:04 +0000";
layers = (
{
layerId = "87647C87-E27A-4883-B22D-08F5E311E309";
paths = (
{
closed = 1;
nodes = (
"944 528 LINE",
"750 528 LINE",
"669 216 LINE",
"662 216 LINE",
"582 528 LINE",
"384 528 LINE",
"301 216 LINE",
"294 216 LINE",
"214 528 LINE",
"0 528 LINE",
"193 0 LINE",
"387 0 LINE",
"470 294 LINE",
"474 294 LINE",
"556 0 LINE",
"750 0 LINE"
);
},
{
closed = 1;
nodes = (
"658 725 LINE",
"506 725 LINE",
"506 586 LINE",
"658 586 LINE"
);
},
{
closed = 1;
nodes = (
"438 725 LINE",
"286 725 LINE",
"286 586 LINE",
"438 586 LINE"
);
}
);
width = 944;
}
);
unicode = 1E85;
},
